<?xml version="1.0" standalone="no"?>
<!DOCTYPE svg PUBLIC "-//W3C//DTD SVG 1.1//EN" "http://www.w3.org/Graphics/SVG/1.1/DTD/svg11.dtd" >
<svg>
<metadata>
Created by FontForge 20090914 at Wed Jun 22 14:17:02 2022
 By www-data
Copyright 2011 The Montserrat Project Authors (https://github.com/JulietaUla/Montserrat)
</metadata>
<defs>
<font id="Montserrat-Light" horiz-adv-x="0" >
  <font-face 
    font-family="Montserrat Light"
    font-weight="300"
    font-stretch="normal"
    units-per-em="1000"
    panose-1="0 0 0 0 0 0 0 0 0 0"
    ascent="800"
    descent="-200"
    x-height="522"
    cap-height="700"
    bbox="-178 -261.002 1562 1034"
    underline-thickness="50"
    underline-position="-75"
    unicode-range="U+000D-U+FB02"
  />
<missing-glyph horiz-adv-x="587" 
d="M40 0v700h507v-700h-507zM120 70h347v560h-347v-560z" />
    <glyph glyph-name="fi" unicode="fi" horiz-adv-x="589" 
d="M116 0v602.002c0 43.333 12.5 78.166 37.5 104.499s60.833 39.5 107.5 39.5c19.333 0 38.333 -2.83301 57 -8.5s34 -14.167 46 -25.5l-20 -38c-10 10 -22 17.333 -36 22s-29 7 -45 7c-32 0 -56.333 -8.83301 -73 -26.5s-25 -43.834 -25 -78.501v-88l1 -24v-486h-50z
M20 479.002v43h312v-43h-312zM434 0.00195312v522h50v-522h-50zM459 649.002c-11.333 0 -21 4 -29 12s-12 17.333 -12 28c0 11.333 4 21 12 29s17.667 12 29 12c12 0 21.833 -3.83301 29.5 -11.5s11.5 -17.167 11.5 -28.5s-3.83301 -21 -11.5 -29s-17.5 -12 -29.5 -12z" />
    <glyph glyph-name="fl" unicode="fl" horiz-adv-x="589" 
d="M116 0v602.002c0 43.333 12.5 78.166 37.5 104.499s60.833 39.5 107.5 39.5c19.333 0 38.333 -2.83301 57 -8.5s34 -14.167 46 -25.5l-20 -38c-10 10 -22 17.333 -36 22s-29 7 -45 7c-32 0 -56.333 -8.83301 -73 -26.5s-25 -43.834 -25 -78.501v-88l1 -24v-486h-50z
M20 479.002v43h312v-43h-312zM434 0.00195312v742h50v-742h-50z" />
    <glyph glyph-name=".notdef" horiz-adv-x="587" 
d="M40 0v700h507v-700h-507zM120 70h347v560h-347v-560z" />
    <glyph glyph-name="NULL" 
 />
    <glyph glyph-name="NULL" 
 />
    <glyph glyph-name="CR" unicode="&#xd;" horiz-adv-x="257" 
 />
    <glyph glyph-name="space" unicode=" " horiz-adv-x="257" 
 />
    <glyph glyph-name="exclam" unicode="!" horiz-adv-x="252" 
d="M107 201l-10 499h58l-10 -499h-38zM126 -4c-11.333 0 -21 4.16699 -29 12.5s-12 17.833 -12 28.5c0 11.333 4 21 12 29s17.667 12 29 12c12 0 22 -4 30 -12s12 -17.667 12 -29c0 -10.667 -4 -20.167 -12 -28.5s-18 -12.5 -30 -12.5z" />
    <glyph glyph-name="quotedbl" unicode="&#x22;" horiz-adv-x="357" 
d="M78 442l-4 258h46l-4 -258h-38zM240 442l-4 258h46l-4 -258h-38z" />
    <glyph glyph-name="numbersign" unicode="#" horiz-adv-x="690" 
d="M412 0l86 700h40l-86 -700h-40zM32 198v40h594v-40h-594zM152 0l86 700h41l-87 -700h-40zM63 462v40h595v-40h-595z" />
    <glyph glyph-name="dollar" unicode="$" horiz-adv-x="609" 
d="M289 -120v940h37v-940h-37zM306 -5c-52 0 -101.172 8.83203 -147.505 26.499s-82.166 40.5 -107.499 68.5l23 38c24 -24.667 56.833 -45.5 98.5 -62.5s85.834 -25.5 132.501 -25.5s84.834 6.16699 114.501 18.5s51.667 28.833 66 49.5s21.5 43.667 21.5 69
c0 30 -8 54 -24 72s-37 32.333 -63 43s-54.333 19.667 -85 27s-61.667 15.166 -93 23.499s-60 19.166 -86 32.499s-46.833 31.5 -62.5 54.5s-23.5 52.833 -23.5 89.5c0 33.333 8.66699 64 26 92s44.333 50.667 81 68s83.667 26 141 26c38.667 0 76.834 -5.66699 114.501 -17
s69.834 -26.666 96.501 -45.999l-19 -41c-29.333 20 -60.833 34.833 -94.5 44.5s-66.167 14.5 -97.5 14.5c-44.667 0 -81.667 -6.33301 -111 -19s-51 -29.5 -65 -50.5s-21 -44.5 -21 -70.5c0 -30 7.83301 -54 23.5 -72s36.5 -32.333 62.5 -43s54.667 -19.667 86 -27
s62.333 -15.166 93 -23.499s59 -19.166 85 -32.499s47 -31.333 63 -54s24 -52 24 -88c0 -32.667 -9 -63.167 -27 -91.5s-45.5 -51 -82.5 -68s-84.5 -25.5 -142.5 -25.5z" />
    <glyph glyph-name="percent" unicode="%" horiz-adv-x="817" 
d="M148 0l478 700h43l-478 -700h-43zM199 326c-30 0 -56.667 7.83301 -80 23.5s-41.5 37.667 -54.5 66s-19.5 61.5 -19.5 99.5s6.5 71.167 19.5 99.5s31.167 50.333 54.5 66s50 23.5 80 23.5c30.667 0 57.667 -7.83301 81 -23.5s41.5 -37.667 54.5 -66
s19.5 -61.5 19.5 -99.5s-6.5 -71.167 -19.5 -99.5s-31.167 -50.333 -54.5 -66s-50.333 -23.5 -81 -23.5zM200 360c34.667 0 62.667 13.667 84 41s32 65.333 32 114s-10.667 86.667 -32 114s-49.333 41 -84 41c-35.333 0 -63.666 -13.667 -84.999 -41s-32 -65.333 -32 -114
c0 -48 10.667 -85.833 32 -113.5s49.666 -41.5 84.999 -41.5zM618 -4c-30 0 -56.833 7.83301 -80.5 23.5s-42 37.667 -55 66s-19.5 61.5 -19.5 99.5s6.5 71.167 19.5 99.5s31.333 50.333 55 66s50.5 23.5 80.5 23.5c30.667 0 57.5 -7.83301 80.5 -23.5s41 -37.667 54 -66
s19.5 -61.5 19.5 -99.5s-6.5 -71.167 -19.5 -99.5s-31 -50.333 -54 -66s-49.833 -23.5 -80.5 -23.5zM618 30c34.667 0 62.667 13.833 84 41.5s32 65.5 32 113.5s-10.667 85.833 -32 113.5s-49.333 41.5 -84 41.5c-35.333 0 -63.666 -13.667 -84.999 -41
s-32 -65.333 -32 -114s10.667 -86.667 32 -114s49.666 -41 84.999 -41z" />
    <glyph glyph-name="ampersand" unicode="&#x26;" horiz-adv-x="655" 
d="M280 -5c-44 0 -83.1709 7.33398 -117.504 22.001s-61.333 35.167 -81 61.5s-29.5 56.833 -29.5 91.5c0 28.667 6.33301 55.167 19 79.5s33.5 48.666 62.5 72.999s67.833 50.166 116.5 77.499c42.667 24.667 76.334 46 101.001 64s42 35.333 52 52s15 34.667 15 54
c0 28.667 -9.5 51.667 -28.5 69s-46.167 26 -81.5 26c-37.333 0 -66.5 -9.5 -87.5 -28.5s-31.5 -44.167 -31.5 -75.5c0 -14.667 2.33301 -28.667 7 -42s13.167 -28.166 25.5 -44.499s29.5 -36.5 51.5 -60.5l371 -391l-30 -33l-382 402
c-23.333 24.667 -41.666 46.334 -54.999 65.001s-22.5 36.167 -27.5 52.5s-7.5 33.5 -7.5 51.5c0 28.667 6.83301 53.667 20.5 75s33 38 58 50s54.167 18 87.5 18c31.333 0 58.5 -5.33301 81.5 -16s40.833 -25.834 53.5 -45.501s19 -43.5 19 -71.5
c0 -24.667 -5.83301 -47.5 -17.5 -68.5s-31.167 -42 -58.5 -63s-64.666 -44.833 -111.999 -71.5c-44 -25.333 -78.667 -48.333 -104 -69s-43.166 -40.834 -53.499 -60.501s-15.5 -41.167 -15.5 -64.5c0 -27.333 7.66699 -51.333 23 -72s36.5 -36.667 63.5 -48
s58.5 -17 94.5 -17c48 0 90.667 9.83301 128 29.5s68.666 49.5 93.999 89.5s43.666 90.333 54.999 151l41 -13c-12.667 -66 -33.667 -121.167 -63 -165.5s-65.666 -77.666 -108.999 -99.999s-92.666 -33.5 -147.999 -33.5z" />
    <glyph glyph-name="quotesingle" unicode="'" horiz-adv-x="194" 
d="M78 442l-4 258h46l-4 -258h-38z" />
    <glyph glyph-name="parenleft" unicode="(" horiz-adv-x="321" 
d="M226 -194c-36.667 60.667 -64.834 130.667 -84.501 210s-29.5 165.333 -29.5 258s9.83301 179.167 29.5 259.5s47.834 149.833 84.501 208.5h48c-39.333 -66.667 -68 -138.667 -86 -216s-27 -161.333 -27 -252s9 -174.667 27 -252s46.667 -149.333 86 -216h-48z" />
    <glyph glyph-name="parenright" unicode=")" horiz-adv-x="322" 
d="M95 -194h-47c38.667 66.667 67 138.667 85 216s27 161.333 27 252s-9 174.667 -27 252s-46.333 149.333 -85 216h47c36.667 -58.667 65 -128.167 85 -208.5s30 -166.833 30 -259.5s-10 -178.667 -30 -258s-48.333 -149.333 -85 -210z" />
    <glyph glyph-name="asterisk" unicode="*" horiz-adv-x="375" 
d="M351 638l-140 -79v13l140 -79l-18 -32l-138 80l9 5l1 -157h-35v157l10 -5l-138 -80l-18 32l141 79v-13l-141 79l18 32l138 -80l-10 -5v157h35l-1 -157l-9 5l138 80z" />
    <glyph glyph-name="plus" unicode="+" horiz-adv-x="569" 
d="M262 143v414h45v-414h-45zM72 328v43h425v-43h-425z" />
    <glyph glyph-name="comma" unicode="," horiz-adv-x="200" 
d="M58 -143l39 169.001l5 -29c-12.667 0 -23.167 4 -31.5 12s-12.5 18 -12.5 30s4.16699 22 12.5 30s18.166 12 29.499 12c12.667 0 22.834 -4.16699 30.501 -12.5s11.5 -18.166 11.5 -29.499c0 -4.66699 -0.333008 -9.33398 -1 -14.001s-1.66699 -9.33398 -3 -14.001
l-5 -18l-39 -136h-36z" />
    <glyph glyph-name="hyphen" unicode="-" horiz-adv-x="381" 
d="M62 246v45h257v-45h-257z" />
    <glyph glyph-name="period" unicode="." horiz-adv-x="200" 
d="M100 -4c-11.333 0 -21.166 4.16699 -29.499 12.5s-12.5 18.5 -12.5 30.5s4.16699 22 12.5 30s18.166 12 29.499 12s21.166 -4 29.499 -12s12.5 -18 12.5 -30s-4.16699 -22.167 -12.5 -30.5s-18.166 -12.5 -29.499 -12.5z" />
    <glyph glyph-name="slash" unicode="/" horiz-adv-x="320" 
d="M-23 -100l330 942h46l-330 -942h-46z" />
    <glyph glyph-name="zero" unicode="0" horiz-adv-x="658" 
d="M329 -5c-53.333 0 -100.666 14.333 -141.999 43s-73.666 69.5 -96.999 122.5s-35 116.167 -35 189.5s11.667 136.5 35 189.5s55.666 93.833 96.999 122.5s88.666 43 141.999 43c54 0 101.5 -14.333 142.5 -43s73.167 -69.5 96.5 -122.5s35 -116.167 35 -189.5
s-11.667 -136.5 -35 -189.5s-55.5 -93.833 -96.5 -122.5s-88.5 -43 -142.5 -43zM329 42c44.667 0 83.667 12.167 117 36.5s59.333 59.5 78 105.5s28 101.333 28 166c0 65.333 -9.33301 120.833 -28 166.5s-44.667 80.667 -78 105s-72.333 36.5 -117 36.5
c-44 0 -82.833 -12.167 -116.5 -36.5s-59.834 -59.333 -78.501 -105s-28 -101.167 -28 -166.5c0 -64.667 9.33301 -120 28 -166s44.834 -81.167 78.501 -105.5s72.5 -36.5 116.5 -36.5z" />
    <glyph glyph-name="one" unicode="1" horiz-adv-x="353" 
d="M180 0v678l23 -24h-194v46h222v-700h-51z" />
    <glyph glyph-name="two" unicode="2" horiz-adv-x="563" 
d="M41 0l-0.000976562 35.999l296 294c28 28 49 52.5 63 73.5s23.5 40.5 28.5 58.5s7.5 35.667 7.5 53c0 44 -15 78.833 -45 104.5s-74 38.5 -132 38.5c-44 0 -82.5 -6.66699 -115.5 -20s-61.5 -33.666 -85.5 -60.999l-36 32c26.667 30.667 60.5 54.334 101.5 71.001
s87.5 25 139.5 25c46 0 85.833 -7.5 119.5 -22.5s59.667 -36.333 78 -64s27.5 -60.5 27.5 -98.5c0 -22.667 -3.16699 -44.834 -9.5 -66.501s-17.666 -44.5 -33.999 -68.5s-39.833 -51.333 -70.5 -82l-278 -277l-17 20h443v-46h-481z" />
    <glyph glyph-name="three" unicode="3" horiz-adv-x="558" 
d="M260 -5c-51.333 0 -99.167 8.66895 -143.5 26.002s-78.833 40 -103.5 68l26 39c21.333 -24.667 51.5 -45.167 90.5 -61.5s82.5 -24.5 130.5 -24.5c62.667 0 110.5 14 143.5 42s49.5 65.667 49.5 113c0 46.667 -16.5 84.167 -49.5 112.5s-84.5 42.5 -154.5 42.5h-44v37
l223 285l7 -20h-396v46h439v-36l-222 -285l-22 16h22c83.333 0 145.666 -18.333 186.999 -55s62 -84.334 62 -143.001c0 -38.667 -9.16699 -73.334 -27.5 -104.001s-45.666 -54.667 -81.999 -72s-81.5 -26 -135.5 -26z" />
    <glyph glyph-name="four" unicode="4" horiz-adv-x="654" 
d="M43 194v37l380 469h57l-379 -469l-28 8h566v-45h-596zM442 0v194l1 45v171h49v-410h-50z" />
    <glyph glyph-name="five" unicode="5" horiz-adv-x="558" 
d="M272 -5c-50.667 0 -98.167 8.66602 -142.5 25.999s-78.833 40 -103.5 68l26 39c21.333 -24.667 51.333 -45.167 90 -61.5s81.667 -24.5 129 -24.5c64.667 0 113.334 14.667 146.001 44s49 67.333 49 114c0 33.333 -7.66699 62 -23 86s-41.333 42.5 -78 55.5
s-86.667 19.5 -150 19.5h-142l37 339h371v-46h-350l25 24l-33 -297l-24 26h127c71.333 0 128.166 -8.5 170.499 -25.5s73 -40.833 92 -71.5s28.5 -66.667 28.5 -108c0 -38.667 -9 -73.667 -27 -105s-45.167 -56.166 -81.5 -74.499s-81.833 -27.5 -136.5 -27.5z" />
    <glyph glyph-name="six" unicode="6" horiz-adv-x="602" 
d="M336 -5c-61.333 0 -112.83 14.001 -154.497 42.001s-73.167 68.333 -94.5 121s-32 115.334 -32 188.001c0 79.333 13 145.5 39 198.5s62.333 93 109 120s101 40.5 163 40.5c30 0 58.667 -2.66699 86 -8s51.666 -14.666 72.999 -27.999l-21 -41
c-18 11.333 -38.833 19.5 -62.5 24.5s-48.834 7.5 -75.501 7.5c-78.667 0 -141.667 -25.5 -189 -76.5s-71 -127.5 -71 -229.5c0 -15.333 1 -34.833 3 -58.5s6.33301 -46.834 13 -69.501l-18 5c4.66699 38.667 17.667 71.667 39 99s48.666 48.166 81.999 62.499
s70 21.5 110 21.5c46.667 0 87.5 -8.5 122.5 -25.5s62.333 -41.167 82 -72.5s29.5 -68 29.5 -110c0 -42.667 -10.167 -79.834 -30.5 -111.501s-48 -56.167 -83 -73.5s-74.833 -26 -119.5 -26zM334.003 39.001c36.667 0 68.666 6.83203 95.999 20.499s48.833 33 64.5 58
s23.5 54.167 23.5 87.5c0 50 -16.833 90 -50.5 120s-80.167 45 -139.5 45c-38 0 -71.667 -7.33301 -101 -22s-52.166 -34.667 -68.499 -60s-24.5 -53.666 -24.5 -84.999c0 -27.333 7.66699 -53.5 23 -78.5s37.833 -45.5 67.5 -61.5s66.167 -24 109.5 -24z" />
    <glyph glyph-name="seven" unicode="7" horiz-adv-x="581" 
d="M179 0l308 676l18 -22h-447l26 24v-158h-50v180h502v-36l-301 -664h-56z" />
    <glyph glyph-name="eight" unicode="8" horiz-adv-x="632" 
d="M315 -5c-55.333 0 -102.667 8 -142 24s-69.5 38.667 -90.5 68s-31.5 64.333 -31.5 105c0 39.333 10.333 73 31 101s50.667 49.5 90 64.5s87 22.5 143 22.5s103.833 -7.5 143.5 -22.5s70 -36.5 91 -64.5s31.5 -61.667 31.5 -101c0 -40.667 -10.667 -75.667 -32 -105
s-51.833 -52 -91.5 -68s-87.167 -24 -142.5 -24zM314.999 39c67.333 0 120 13.667 158 41s57 64.666 57 111.999c0 46.667 -19 83.667 -57 111s-90.667 41 -158 41s-119.666 -13.667 -156.999 -41s-56 -64.333 -56 -111c0 -47.333 18.667 -84.666 56 -111.999
s89.666 -41 156.999 -41zM314.999 351c-50.667 0 -93.832 6.83301 -129.499 20.5s-62.834 33.5 -81.501 59.5s-28 57 -28 93c0 37.333 9.83301 69.5 29.5 96.5s47.5 47.833 83.5 62.5s78 22 126 22c48.667 0 91 -7.33301 127 -22s64 -35.5 84 -62.5s30 -59.167 30 -96.5
c0 -36 -9.5 -67 -28.5 -93s-46.5 -45.833 -82.5 -59.5s-79.333 -20.5 -130 -20.5zM315.001 386c60 0 106.667 12.334 140 37.001s50 57.667 50 99c0 43.333 -17.167 77.333 -51.5 102s-80.5 37 -138.5 37c-57.333 0 -103 -12.333 -137 -37s-51 -58.334 -51 -101.001
c0 -42 16.5 -75.333 49.5 -100s79.167 -37 138.5 -37z" />
    <glyph glyph-name="nine" unicode="9" horiz-adv-x="602" 
d="M266 705c61.333 0 112.833 -14.001 154.5 -42.001s73.167 -68.167 94.5 -120.5s32 -115.166 32 -188.499c0 -78.667 -13 -144.667 -39 -198s-62.333 -93.5 -109 -120.5s-101 -40.5 -163 -40.5c-30 0 -58.5 2.66699 -85.5 8s-51.5 14.666 -73.5 27.999l21 41
c18 -11.333 39 -19.5 63 -24.5s49 -7.5 75 -7.5c78.667 0 141.667 25.5 189 76.5s71 127.5 71 229.5c0 16 -1 35.667 -3 59s-6.33301 46.333 -13 69l18 -5c-4.66699 -38.667 -17.667 -71.5 -39 -98.5s-48.5 -47.833 -81.5 -62.5s-69.833 -22 -110.5 -22
c-46.667 0 -87.5 8.5 -122.5 25.5s-62.333 41.167 -82 72.5s-29.5 68 -29.5 110c0 42.667 10.167 79.834 30.5 111.501s48 56.167 83 73.5s74.833 26 119.5 26zM268 660.999c-36.667 0 -68.667 -6.83105 -96 -20.498s-48.833 -32.834 -64.5 -57.501s-23.5 -54 -23.5 -88
c0 -50 17 -90 51 -120s80.333 -45 139 -45c38 0 71.667 7.33301 101 22s52.166 34.667 68.499 60s24.5 53.666 24.5 84.999c0 27.333 -7.66699 53.5 -23 78.5s-37.666 45.5 -66.999 61.5s-66 24 -110 24z" />
    <glyph glyph-name="colon" unicode=":" horiz-adv-x="200" 
d="M100 441c-11.333 0 -21.166 4.16699 -29.499 12.5s-12.5 18.5 -12.5 30.5s4.16699 22 12.5 30s18.166 12 29.499 12s21.166 -4 29.499 -12s12.5 -18 12.5 -30s-4.16699 -22.167 -12.5 -30.5s-18.166 -12.5 -29.499 -12.5zM100 -4c-11.333 0 -21.166 4.16699 -29.499 12.5
s-12.5 18.5 -12.5 30.5s4.16699 22 12.5 30s18.166 12 29.499 12s21.166 -4 29.499 -12s12.5 -18 12.5 -30s-4.16699 -22.167 -12.5 -30.5s-18.166 -12.5 -29.499 -12.5z" />
    <glyph glyph-name="semicolon" unicode=";" horiz-adv-x="200" 
d="M100 441c-11.333 0 -21.166 4.16699 -29.499 12.5s-12.5 18.5 -12.5 30.5s4.16699 22 12.5 30s18.166 12 29.499 12s21.166 -4 29.499 -12s12.5 -18 12.5 -30s-4.16699 -22.167 -12.5 -30.5s-18.166 -12.5 -29.499 -12.5zM58 -143l39 169.001l5 -29
c-12.667 0 -23.167 4 -31.5 12s-12.5 18 -12.5 30s4.16699 22 12.5 30s18.166 12 29.499 12c12.667 0 22.834 -4.16699 30.501 -12.5s11.5 -18.166 11.5 -29.499c0 -4.66699 -0.333008 -9.33398 -1 -14.001s-1.66699 -9.33398 -3 -14.001l-5 -18l-39 -136h-36z" />
    <glyph glyph-name="less" unicode="&#x3c;" horiz-adv-x="569" 
d="M497 153l-425 173v48l425 173v-46l-404 -162v22l404 -162v-46z" />
    <glyph glyph-name="equal" unicode="=" horiz-adv-x="569" 
d="M72 442v42h425v-42h-425zM72 216v42h425v-42h-425z" />
    <glyph glyph-name="greater" unicode="&#x3e;" horiz-adv-x="569" 
d="M72 153v46l404 162v-22l-404 162v46l425 -173v-48z" />
    <glyph glyph-name="question" unicode="?" horiz-adv-x="562" 
d="M241 201c0 28.667 4.50098 53.333 13.501 74s20.667 38.834 35 54.501s29.5 30.334 45.5 44.001s31.167 27.667 45.5 42s26 30.333 35 48s13.5 38.834 13.5 63.501c0 38.667 -15.167 70.5 -45.5 95.5s-73.5 37.5 -129.5 37.5c-44.667 0 -83.5 -6.83301 -116.5 -20.5
s-61.167 -34.5 -84.5 -62.5l-37 29c26.667 32 60.167 56.5 100.5 73.5s87.166 25.5 140.499 25.5c45.333 0 84.833 -7 118.5 -21s59.667 -33.833 78 -59.5s27.5 -55.834 27.5 -90.501c0 -29.333 -4.5 -54.333 -13.5 -75s-20.667 -39 -35 -55s-29.5 -30.833 -45.5 -44.5
s-31.167 -27.834 -45.5 -42.501s-26 -31.334 -35 -50.001s-13.5 -40.667 -13.5 -66h-52zM267.001 -4.00098c-11.333 0 -21 4.16699 -29 12.5s-12 17.833 -12 28.5c0 11.333 4 21 12 29s17.667 12 29 12c12 0 22 -4 30 -12s12 -17.667 12 -29c0 -10.667 -4 -20.167 -12 -28.5
s-18 -12.5 -30 -12.5z" />
    <glyph glyph-name="at" unicode="@" horiz-adv-x="1033" 
d="M514 -199c-67.333 0 -129.169 11.167 -185.502 33.5s-105 53.666 -146 93.999s-72.5 88 -94.5 143s-33 115.833 -33 182.5s11.167 127.667 33.5 183s54.166 103 95.499 143s90.333 70.833 147 92.5s119 32.5 187 32.5c67.333 0 129 -10.667 185 -32
s104.667 -51.5 146 -90.5s73.166 -85.667 95.499 -140s33.5 -114.166 33.5 -179.499c0 -56.667 -6.33301 -104.834 -19 -144.501s-30.667 -70 -54 -91s-50.333 -31.5 -81 -31.5c-31.333 0 -56.666 9.33301 -75.999 28s-29 45 -29 79v88l9 67l-10 87v166h46v-395
c0 -28.667 6.33301 -49 19 -61s28.334 -18 47.001 -18c22 0 41.167 8.83301 57.5 26.5s29 43.167 38 76.5s13.5 74 13.5 122c0 60.667 -10.167 115.834 -30.5 165.501s-49.333 92.5 -87 128.5s-82.167 63.5 -133.5 82.5s-108 28.5 -170 28.5s-119 -10 -171 -30
s-96.667 -48.333 -134 -85s-66.166 -80.167 -86.499 -130.5s-30.5 -106.166 -30.5 -167.499c0 -60.667 10 -116.334 30 -167.001s48.5 -94.5 85.5 -131.5s81.167 -65.5 132.5 -85.5s108 -30 170 -30c30 0 62.167 3.5 96.5 10.5s65.833 18.167 94.5 33.5l13 -37
c-29.333 -15.333 -62.666 -26.833 -99.999 -34.5s-72 -11.5 -104 -11.5zM505.997 -4c-47.333 0 -89.833 11.167 -127.5 33.5s-67.334 53.166 -89.001 92.499s-32.5 84 -32.5 134c0 50.667 10.833 95.334 32.5 134.001s51.334 69.167 89.001 91.5s80.167 33.5 127.5 33.5
c46.667 0 88.167 -10.667 124.5 -32s65 -51.333 86 -90s31.5 -84.334 31.5 -137.001c0 -52 -10.5 -97.667 -31.5 -137s-49.5 -69.666 -85.5 -90.999s-77.667 -32 -125 -32zM510.997 38c40 0 75.667 9.16699 107 27.5s56 43.833 74 76.5s27 70.667 27 114
c0 44 -9 82.167 -27 114.5s-42.667 57.5 -74 75.5s-67 27 -107 27c-39.333 0 -74.666 -9 -105.999 -27s-56 -43.333 -74 -76s-27 -70.667 -27 -114c0 -42.667 9 -80.5 27 -113.5s42.667 -58.667 74 -77s66.666 -27.5 105.999 -27.5z" />
    <glyph glyph-name="A" unicode="A" horiz-adv-x="705" 
d="M5 0l322 700h51l322 -700h-55l-304 668h22l-303 -668h-55zM123 197l17 43h419l17 -43h-453z" />
    <glyph glyph-name="B" unicode="B" horiz-adv-x="752" 
d="M122 0l0.000976562 700h292c75.333 0 134.333 -15.333 177 -46s64 -75 64 -133c0 -38 -9 -70 -27 -96s-42.833 -45.5 -74.5 -58.5s-67.167 -19.5 -106.5 -19.5l18 20c48 0 89 -7 123 -21s59.833 -34.333 77.5 -61s26.5 -60 26.5 -100
c0 -58.667 -21.333 -104.167 -64 -136.5s-107.334 -48.5 -194.001 -48.5h-312zM173.001 44h261c67.333 0 118.666 11.5 153.999 34.5s53 59.833 53 110.5c0 50 -17.667 86.5 -53 109.5s-86.666 34.5 -153.999 34.5h-267v44h245c60.667 0 107.667 11.667 141 35
s50 58.333 50 105c0 46 -16.667 80.667 -50 104s-80.333 35 -141 35h-239v-612z" />
    <glyph glyph-name="C" unicode="C" horiz-adv-x="716" 
d="M418 -5c-52 0 -100.167 8.83301 -144.5 26.5s-82.833 42.5 -115.5 74.5s-58 69.5 -76 112.5s-27 90.167 -27 141.5s9 98.5 27 141.5s43.5 80.5 76.5 112.5s71.5 56.833 115.5 74.5s92 26.5 144 26.5c49.333 0 95.5 -8 138.5 -24s79.833 -40.333 110.5 -73l-32 -33
c-30 29.333 -63.167 50.5 -99.5 63.5s-74.833 19.5 -115.5 19.5c-44.667 0 -86.167 -7.66699 -124.5 -23s-71.666 -37 -99.999 -65s-50.333 -60.667 -66 -98s-23.5 -78 -23.5 -122s7.83301 -84.667 23.5 -122s37.667 -70 66 -98s61.666 -49.667 99.999 -65
s79.833 -23 124.5 -23c40.667 0 79.167 6.5 115.5 19.5s69.5 34.5 99.5 64.5l32 -33c-30.667 -32.667 -67.5 -57.167 -110.5 -73.5s-89.167 -24.5 -138.5 -24.5z" />
    <glyph glyph-name="D" unicode="D" horiz-adv-x="826" 
d="M122 0v700h277c74 0 139 -15 195 -45s99.5 -71.333 130.5 -124s46.5 -113 46.5 -181s-15.5 -128.333 -46.5 -181s-74.5 -94 -130.5 -124s-121 -45 -195 -45h-277zM173 46h222c66 0 123.333 13 172 39s86.334 61.833 113.001 107.5s40 98.167 40 157.5
s-13.333 111.833 -40 157.5s-64.334 81.5 -113.001 107.5s-106 39 -172 39h-222v-608z" />
    <glyph glyph-name="E" unicode="E" horiz-adv-x="669" 
d="M167 378h379v-45h-379v45zM173 46h432v-46h-483v700h468v-46h-417v-608z" />
    <glyph glyph-name="F" unicode="F" horiz-adv-x="631" 
d="M167 355h379v-46h-379v46zM173 0h-51v700h468v-46h-417v-654z" />
    <glyph glyph-name="G" unicode="G" horiz-adv-x="773" 
d="M421 -5c-52.667 0 -101.331 8.83301 -145.998 26.5s-83.5 42.5 -116.5 74.5s-58.5 69.5 -76.5 112.5s-27 90.167 -27 141.5s9 98.5 27 141.5s43.667 80.5 77 112.5s72.166 56.833 116.499 74.5s93.166 26.5 146.499 26.5c50.667 0 97.667 -8 141 -24s80.333 -40 111 -72
l-32 -34c-30.667 30 -64.167 51.333 -100.5 64s-75.833 19 -118.5 19c-45.333 0 -87.333 -7.66699 -126 -23s-72.334 -37 -101.001 -65s-50.834 -60.667 -66.501 -98s-23.5 -78 -23.5 -122s7.83301 -84.667 23.5 -122s37.834 -70 66.501 -98s62.334 -49.667 101.001 -65
s80.667 -23 126 -23c41.333 0 80.5 6.33301 117.5 19s70.833 33.667 101.5 63l29 -39c-31.333 -30 -68.833 -52.5 -112.5 -67.5s-89.5 -22.5 -137.5 -22.5zM622.003 90v257h49v-262z" />
    <glyph glyph-name="H" unicode="H" horiz-adv-x="814" 
d="M641 700h51v-700h-51v700zM173 0h-51v700h51v-700zM647 333h-480v45h480v-45z" />
    <glyph glyph-name="I" unicode="I" horiz-adv-x="295" 
d="M122 0v700h51v-700h-51z" />
    <glyph glyph-name="J" unicode="J" horiz-adv-x="491" 
d="M185 -5c-38 0 -73.498 8.83301 -106.498 26.5s-59.5 42.167 -79.5 73.5l31 34c19.333 -28.667 42.166 -50.5 68.499 -65.5s55.166 -22.5 86.499 -22.5c92.667 0 139 55 139 165v448h-258v46h309v-494c0 -70 -16 -122.667 -48 -158s-79.333 -53 -142 -53z" />
    <glyph glyph-name="K" unicode="K" horiz-adv-x="703" 
d="M166 177l-2 64l446 459h62l-312 -323l-29 -31zM122 0v700h51v-700h-51zM631 0l-315 360l35 37l342 -397h-62z" />
    <glyph glyph-name="L" unicode="L" horiz-adv-x="585" 
d="M122 0v700h51v-654h403v-46h-454z" />
    <glyph glyph-name="M" unicode="M" horiz-adv-x="956" 
d="M122 0v700h43l325 -561h-23l324 561h42l1 -700h-50l-1 623h14l-307 -530h-25l-308 530h15v-623h-50z" />
    <glyph glyph-name="N" unicode="N" horiz-adv-x="814" 
d="M122 0v700h43l499 -637h-23v637h51v-700h-42l-500 637h23v-637h-51z" />
    <glyph glyph-name="O" unicode="O" horiz-adv-x="838" 
d="M419 -5c-52 0 -100.167 8.83301 -144.5 26.5s-83 42.667 -116 75s-58.5 70 -76.5 113s-27 89.833 -27 140.5s9 97.5 27 140.5s43.5 80.667 76.5 113s71.667 57.333 116 75s92.5 26.5 144.5 26.5s100.167 -8.83301 144.5 -26.5s82.833 -42.5 115.5 -74.5
s58.167 -69.5 76.5 -112.5s27.5 -90.167 27.5 -141.5s-9.16699 -98.5 -27.5 -141.5s-43.833 -80.5 -76.5 -112.5s-71.167 -56.833 -115.5 -74.5s-92.5 -26.5 -144.5 -26.5zM419 42c44.667 0 86 7.66699 124 23s71 37 99 65s49.833 60.667 65.5 98s23.5 78 23.5 122
c0 44.667 -7.83301 85.5 -23.5 122.5s-37.5 69.5 -65.5 97.5s-61 49.667 -99 65s-79.333 23 -124 23s-86 -7.66699 -124 -23s-71.167 -37 -99.5 -65s-50.333 -60.5 -66 -97.5s-23.5 -77.833 -23.5 -122.5c0 -44 7.83301 -84.667 23.5 -122s37.667 -70 66 -98
s61.5 -49.667 99.5 -65s79.333 -23 124 -23z" />
    <glyph glyph-name="P" unicode="P" horiz-adv-x="715" 
d="M122 0v700h251c58.667 0 109 -9.33301 151 -28s74.333 -45.5 97 -80.5s34 -77.5 34 -127.5c0 -48.667 -11.333 -90.667 -34 -126s-55 -62.333 -97 -81s-92.333 -28 -151 -28h-223l23 24v-253h-51zM173 250l-23 25h223c75.333 0 132.5 16.5 171.5 49.5
s58.5 79.5 58.5 139.5c0 60.667 -19.5 107.5 -58.5 140.5s-96.167 49.5 -171.5 49.5h-223l23 25v-429z" />
    <glyph glyph-name="Q" unicode="Q" horiz-adv-x="838" 
d="M419 -5c-52 0 -100.167 8.83301 -144.5 26.5s-83 42.667 -116 75s-58.5 70 -76.5 113s-27 89.833 -27 140.5s9 97.5 27 140.5s43.5 80.667 76.5 113s71.667 57.333 116 75s92.5 26.5 144.5 26.5s100.167 -8.83301 144.5 -26.5s82.833 -42.5 115.5 -74.5
s58.167 -69.5 76.5 -112.5s27.5 -90.167 27.5 -141.5s-9.16699 -98.5 -27.5 -141.5s-43.833 -80.5 -76.5 -112.5s-71.167 -56.833 -115.5 -74.5s-92.5 -26.5 -144.5 -26.5zM649 -133c-20 0 -39.501 2.66797 -58.501 8.00098s-38.333 13.5 -58 24.5s-39.667 25.333 -60 43
s-42.166 38.834 -65.499 63.501l58 14c21.333 -24.667 42.5 -45.334 63.5 -62.001s41.5 -28.834 61.5 -36.501s39.667 -11.5 59 -11.5c54.667 0 100.667 22.333 138 67l27 -31c-42.667 -52.667 -97.667 -79 -165 -79zM418.999 42.001c44.667 0 86 7.66699 124 23
s71 37 99 65s49.833 60.667 65.5 98s23.5 78 23.5 122s-7.83301 84.667 -23.5 122s-37.5 70 -65.5 98s-61 49.667 -99 65s-79.333 23 -124 23s-86 -7.66699 -124 -23s-71.167 -37 -99.5 -65s-50.333 -60.667 -66 -98s-23.5 -78 -23.5 -122s7.83301 -84.667 23.5 -122
s37.667 -70 66 -98s61.5 -49.667 99.5 -65s79.333 -23 124 -23z" />
    <glyph glyph-name="R" unicode="R" horiz-adv-x="720" 
d="M122 0v700h251c58.667 0 109 -9.33301 151 -28s74.333 -45.5 97 -80.5s34 -77.5 34 -127.5c0 -48.667 -11.333 -90.5 -34 -125.5s-55 -62 -97 -81s-92.333 -28.5 -151 -28.5h-223l23 24v-253h-51zM608 0l-182 254h58l182 -254h-58zM173 250l-23 24h223
c75.333 0 132.5 16.667 171.5 50s58.5 80 58.5 140c0 60.667 -19.5 107.5 -58.5 140.5s-96.167 49.5 -171.5 49.5h-223l23 25v-429z" />
    <glyph glyph-name="S" unicode="S" horiz-adv-x="609" 
d="M306 -5c-52 0 -101.172 8.83203 -147.505 26.499s-82.166 40.5 -107.499 68.5l23 38c24 -24.667 56.833 -45.5 98.5 -62.5s85.834 -25.5 132.501 -25.5s84.834 6.16699 114.501 18.5s51.667 28.833 66 49.5s21.5 43.667 21.5 69c0 30 -8 54 -24 72s-37 32.333 -63 43
s-54.333 19.667 -85 27s-61.667 15.166 -93 23.499s-60 19.166 -86 32.499s-46.833 31.5 -62.5 54.5s-23.5 52.833 -23.5 89.5c0 33.333 8.66699 64 26 92s44.333 50.667 81 68s83.667 26 141 26c38.667 0 76.834 -5.66699 114.501 -17s69.834 -26.666 96.501 -45.999
l-19 -41c-29.333 20 -60.833 34.833 -94.5 44.5s-66.167 14.5 -97.5 14.5c-44.667 0 -81.667 -6.33301 -111 -19s-51 -29.5 -65 -50.5s-21 -44.5 -21 -70.5c0 -30 7.83301 -54 23.5 -72s36.5 -32.333 62.5 -43s54.667 -19.667 86 -27s62.333 -15.166 93 -23.499
s59 -19.166 85 -32.499s47 -31.333 63 -54s24 -52 24 -88c0 -32.667 -9 -63.167 -27 -91.5s-45.5 -51 -82.5 -68s-84.5 -25.5 -142.5 -25.5z" />
    <glyph glyph-name="T" unicode="T" horiz-adv-x="563" 
d="M256 0v654h-252v46h555v-46h-252v-654h-51z" />
    <glyph glyph-name="U" unicode="U" horiz-adv-x="793" 
d="M396 -5c-86.667 0 -155 25.333 -205 76s-75 126 -75 226v403h51v-401c0 -87.333 20 -152 60 -194s96.667 -63 170 -63c72.667 0 129 21 169 63s60 106.667 60 194v401h51v-403c0 -100 -25 -175.333 -75 -226s-118.667 -76 -206 -76z" />
    <glyph glyph-name="V" unicode="V" horiz-adv-x="687" 
d="M318 0l-312 700h56l298 -669h-31l299 669h53l-312 -700h-51z" />
    <glyph glyph-name="W" unicode="W" horiz-adv-x="1098" 
d="M278 0l-238 700h54l226 -669h-27l233 669h49l231 -669h-26l228 669h50l-237 -700h-54l-224 647h13l-224 -647h-54z" />
    <glyph glyph-name="X" unicode="X" horiz-adv-x="642" 
d="M20 0l284 381v-40l-265 359h60l234 -316h-22l234 316h57l-263 -355v34l282 -379h-60l-252 338h21l-250 -338h-60z" />
    <glyph glyph-name="Y" unicode="Y" horiz-adv-x="625" 
d="M287 0v254l12 -33l-294 479h56l267 -435h-28l267 435h53l-294 -479l12 33v-254h-51z" />
    <glyph glyph-name="Z" unicode="Z" horiz-adv-x="646" 
d="M47 0v36l499 638l5 -20h-498v46h547v-36l-498 -638l-6 20h515v-46h-564z" />
    <glyph glyph-name="bracketleft" unicode="[" horiz-adv-x="306" 
d="M122 -194v936h161v-43h-111v-850h111v-43h-161z" />
    <glyph glyph-name="backslash" unicode="\" horiz-adv-x="320" 
d="M343 -100h-46l-330 942h46z" />
    <glyph glyph-name="bracketright" unicode="]" horiz-adv-x="306" 
d="M184 -194h-161v43h111v850h-111v43h161v-936z" />
    <glyph glyph-name="asciicircum" unicode="^" horiz-adv-x="570" 
d="M90 144l173 412h45l173 -412h-44l-162 392h21l-163 -392h-43z" />
    <glyph glyph-name="underscore" unicode="_" horiz-adv-x="500" 
d="M0 -36v36h500v-36h-500z" />
    <glyph glyph-name="grave" unicode="`" horiz-adv-x="600" 
d="M303 607l-157 118h72l139 -118h-54z" />
    <glyph glyph-name="a" unicode="a" horiz-adv-x="583" 
d="M435 0l-0.000976562 119l-2 18v196c0 48.667 -13.167 85.667 -39.5 111s-64.833 38 -115.5 38c-36 0 -69.5 -6.16699 -100.5 -18.5s-57.5 -28.166 -79.5 -47.499l-25 36c26 23.333 57.333 41.5 94 54.5s75 19.5 115 19.5c64.667 0 114.334 -16.333 149.001 -49
s52 -81.334 52 -146.001v-331h-48zM246.999 -4c-38.667 0 -72.167 6.16504 -100.5 18.498s-50 29.833 -65 52.5s-22.5 48.667 -22.5 78c0 26.667 6.16699 50.834 18.5 72.501s32.833 39.334 61.5 53.001s67 20.5 115 20.5h192v-39h-191c-54 0 -91.833 -10 -113.5 -30
s-32.5 -45 -32.5 -75c0 -33.333 12.667 -60 38 -80s61 -30 107 -30c44 0 81.167 10 111.5 30s52.833 49 67.5 87l14 -34c-14 -38 -37.833 -68.167 -71.5 -90.5s-76.5 -33.5 -128.5 -33.5z" />
    <glyph glyph-name="b" unicode="b" horiz-adv-x="675" 
d="M368 -4c-46 0 -87.5 10.6699 -124.5 32.0029s-66.333 52 -88 92s-32.5 87 -32.5 141c0 55.333 10.833 102.666 32.5 141.999s51 69.666 88 90.999s78.5 32 124.5 32c49.333 0 93.5 -11.167 132.5 -33.5s69.667 -53.333 92 -93s33.5 -85.834 33.5 -138.501
c0 -52 -11.167 -98 -33.5 -138s-53 -71.167 -92 -93.5s-83.167 -33.5 -132.5 -33.5zM106 0.00292969v742h50v-389l-10 -91l8 -91v-171h-48zM365 41.0029c40 0 76 9.16699 108 27.5s57.167 44.166 75.5 77.499s27.5 71.666 27.5 114.999c0 44 -9.16699 82.5 -27.5 115.5
s-43.5 58.667 -75.5 77s-68 27.5 -108 27.5s-75.833 -9.16699 -107.5 -27.5s-56.667 -44 -75 -77s-27.5 -71.5 -27.5 -115.5c0 -43.333 9.16699 -81.666 27.5 -114.999s43.333 -59.166 75 -77.499s67.5 -27.5 107.5 -27.5z" />
    <glyph glyph-name="c" unicode="c" horiz-adv-x="555" 
d="M313 -4c-50.667 0 -95.834 11.3311 -135.501 33.998s-71 54 -94 94s-34.5 85.667 -34.5 137c0 52 11.5 98 34.5 138s54.333 71.167 94 93.5s84.834 33.5 135.501 33.5c42 0 80.167 -8 114.5 -24s62.166 -40 83.499 -72l-37 -27c-18.667 26.667 -42 46.334 -70 59.001
s-58.333 19 -91 19c-40.667 0 -77.167 -9.16699 -109.5 -27.5s-57.666 -44 -75.999 -77s-27.5 -71.5 -27.5 -115.5s9.16699 -82.5 27.5 -115.5s43.666 -58.667 75.999 -77s68.833 -27.5 109.5 -27.5c32.667 0 63 6.33301 91 19s51.333 32.334 70 59.001l37 -27
c-21.333 -32 -49.166 -56 -83.499 -72s-72.5 -24 -114.5 -24z" />
    <glyph glyph-name="d" unicode="d" horiz-adv-x="675" 
d="M307 -4c-48.667 0 -92.5 11.1641 -131.5 33.4971s-69.833 53.5 -92.5 93.5s-34 86 -34 138c0 52.667 11.333 98.834 34 138.501s53.5 70.667 92.5 93s82.833 33.5 131.5 33.5c46 0 87.5 -10.667 124.5 -32s66.333 -51.666 88 -90.999s32.5 -86.666 32.5 -141.999
c0 -54 -10.667 -101 -32 -141s-50.5 -70.667 -87.5 -92s-78.833 -32 -125.5 -32zM310 40.9971c40 0 75.833 9.16699 107.5 27.5s56.667 44.166 75 77.499s27.5 71.666 27.5 114.999c0 44 -9.16699 82.5 -27.5 115.5s-43.333 58.667 -75 77s-67.5 27.5 -107.5 27.5
s-75.833 -9.16699 -107.5 -27.5s-56.667 -44 -75 -77s-27.5 -71.5 -27.5 -115.5c0 -43.333 9.16699 -81.666 27.5 -114.999s43.333 -59.166 75 -77.499s67.5 -27.5 107.5 -27.5zM521 -0.00292969v171l9 91l-10 91v389h50v-742h-49z" />
    <glyph glyph-name="e" unicode="e" horiz-adv-x="597" 
d="M318 -4c-52.667 0 -99.1689 11.3311 -139.502 33.998s-72 54 -95 94s-34.5 85.667 -34.5 137c0 52 10.833 97.833 32.5 137.5s51.5 70.834 89.5 93.501s80.667 34 128 34s89.833 -11 127.5 -33s67.334 -52.833 89.001 -92.5s32.5 -85.5 32.5 -137.5
c0 -2 -0.166992 -4.16699 -0.5 -6.5s-0.5 -4.83301 -0.5 -7.5h-461v39h434l-20 -19c0.666992 40.667 -7.83301 77.167 -25.5 109.5s-41.5 57.666 -71.5 75.999s-64.667 27.5 -104 27.5c-38.667 0 -73.167 -9.16699 -103.5 -27.5s-54.166 -43.666 -71.499 -75.999
s-26 -69.166 -26 -110.499v-9c0 -42.667 9.5 -80.5 28.5 -113.5s45.167 -58.667 78.5 -77s71.333 -27.5 114 -27.5c33.333 0 64.5 6 93.5 18s53.5 30.333 73.5 55l29 -33c-22.667 -28 -51.167 -49.167 -85.5 -63.5s-71.5 -21.5 -111.5 -21.5z" />
    <glyph glyph-name="f" unicode="f" horiz-adv-x="328" 
d="M116 0v602.002c0 43.333 12.5 78.166 37.5 104.499s60.833 39.5 107.5 39.5c19.333 0 38.333 -2.83301 57 -8.5s34 -14.167 46 -25.5l-20 -38c-10 10 -22 17.333 -36 22s-29 7 -45 7c-32 0 -56.333 -8.83301 -73 -26.5s-25 -43.834 -25 -78.501v-88l1 -24v-486h-50z
M20 479.002v43h312v-43h-312z" />
    <glyph glyph-name="g" unicode="g" horiz-adv-x="682" 
d="M323 -198c-47.333 0 -92.332 7.33301 -134.999 22s-77.334 35 -104.001 61l27 38c26 -24 57.167 -42.667 93.5 -56s75.5 -20 117.5 -20c70 0 121.5 16.333 154.5 49s49.5 84 49.5 154v145l10 78l-8 78v171h48v-466c0 -87.333 -21.167 -151.5 -63.5 -192.5
s-105.5 -61.5 -189.5 -61.5zM309.001 19c-49.333 0 -93.5 10.835 -132.5 32.502s-70 51.667 -93 90s-34.5 82.166 -34.5 131.499c0 50 11.5 94 34.5 132s54 67.667 93 89s83.167 32 132.5 32c47.333 0 89.833 -10.167 127.5 -30.5s67.5 -49.333 89.5 -87
s33 -82.834 33 -135.501c0 -52 -11 -97 -33 -135s-51.833 -67.333 -89.5 -88s-80.167 -31 -127.5 -31zM313.001 64.002c42 0 79 8.83301 111 26.5s57.167 42.334 75.5 74.001s27.5 67.834 27.5 108.501c0 41.333 -9.16699 77.666 -27.5 108.999s-43.5 55.666 -75.5 72.999
s-69 26 -111 26c-40.667 0 -77.167 -8.66699 -109.5 -26s-57.666 -41.666 -75.999 -72.999s-27.5 -67.666 -27.5 -108.999c0 -40.667 9.16699 -76.834 27.5 -108.501s43.666 -56.334 75.999 -74.001s68.833 -26.5 109.5 -26.5z" />
    <glyph glyph-name="h" unicode="h" horiz-adv-x="673" 
d="M361 526c42.667 0 79.832 -8.16797 111.499 -24.501s56.334 -41 74.001 -74s26.5 -73.833 26.5 -122.5v-305h-50v301c0 58.667 -14.833 103.334 -44.5 134.001s-71.167 46 -124.5 46c-40.667 0 -76 -8.33301 -106 -25s-52.833 -40 -68.5 -70s-23.5 -66 -23.5 -108v-278
h-50v742h50v-365l-9 16c16 41.333 42.333 73.833 79 97.5s81.667 35.5 135 35.5z" />
    <glyph glyph-name="i" unicode="i" horiz-adv-x="261" 
d="M106 0v522h50v-522h-50zM131 649c-11.333 0 -21 4 -29 12s-12 17.333 -12 28c0 11.333 4 21 12 29s17.667 12 29 12c12 0 21.833 -3.83301 29.5 -11.5s11.5 -17.167 11.5 -28.5s-3.83301 -21 -11.5 -29s-17.5 -12 -29.5 -12z" />
    <glyph glyph-name="j" unicode="j" horiz-adv-x="266" 
d="M20 -198c-20.667 0 -40.668 2.83301 -60.001 8.5s-35.333 14.5 -48 26.5l20 37c22 -19.333 50.333 -29 85 -29c30 0 53.167 9 69.5 27s24.5 44 24.5 78v572h50v-574c0 -44 -12.167 -79.333 -36.5 -106s-59.166 -40 -104.499 -40zM135.999 649c-11.333 0 -21 4 -29 12
s-12 17.333 -12 28c0 11.333 4 21 12 29s17.667 12 29 12c12 0 21.833 -3.83301 29.5 -11.5s11.5 -17.167 11.5 -28.5s-3.83301 -21 -11.5 -29s-17.5 -12 -29.5 -12z" />
    <glyph glyph-name="k" unicode="k" horiz-adv-x="588" 
d="M144 144l1 63l345 315h64l-229 -215l-30 -25zM106 0v742h50v-742h-50zM514 0l-228 286l34 37l256 -323h-62z" />
    <glyph glyph-name="l" unicode="l" horiz-adv-x="261" 
d="M106 0v742h50v-742h-50z" />
    <glyph glyph-name="m" unicode="m" horiz-adv-x="1064" 
d="M756 526c42 0 78.5 -8.1709 109.5 -24.5039s55.167 -41 72.5 -74s26 -73.833 26 -122.5v-305h-50v301c0 58.667 -14.333 103.334 -43 134.001s-68.667 46 -120 46c-39.333 0 -73.333 -8.33301 -102 -25s-50.667 -40 -66 -70s-23 -66 -23 -108v-278h-50v301
c0 58.667 -14.333 103.334 -43 134.001s-68.667 46 -120 46c-39.333 0 -73.333 -8.33301 -102 -25s-50.667 -40 -66 -70s-23 -66 -23 -108v-278h-50v522h48v-144l-7 16c15.333 40.667 41 72.834 77 96.501s79.333 35.5 130 35.5c52 0 95.833 -13.167 131.5 -39.5
s58.167 -65.5 67.5 -117.5l-17 7c14 44.667 40.333 80.834 79 108.501s85.667 41.5 141 41.5z" />
    <glyph glyph-name="n" unicode="n" horiz-adv-x="673" 
d="M361 526c42.667 0 79.832 -8.16797 111.499 -24.501s56.334 -41 74.001 -74s26.5 -73.833 26.5 -122.5v-305h-50v301c0 58.667 -14.833 103.334 -44.5 134.001s-71.167 46 -124.5 46c-40.667 0 -76 -8.33301 -106 -25s-52.833 -40 -68.5 -70s-23.5 -66 -23.5 -108v-278
h-50v522h48v-145l-7 16c16 41.333 42.333 73.833 79 97.5s81.667 35.5 135 35.5z" />
    <glyph glyph-name="o" unicode="o" horiz-adv-x="620" 
d="M310 -4c-50 0 -94.5 11.333 -133.5 34s-70 54 -93 94s-34.5 85.667 -34.5 137c0 52 11.5 97.833 34.5 137.5s54 70.834 93 93.501s83.5 34 133.5 34s94.667 -11.333 134 -34s70.333 -53.834 93 -93.501s34 -85.5 34 -137.5c0 -51.333 -11.333 -97 -34 -137
s-53.667 -71.333 -93 -94s-84 -34 -134 -34zM310 41c40 0 76 9.16699 108 27.5s57 44.166 75 77.499s27 71.666 27 114.999c0 44 -9 82.5 -27 115.5s-43 58.667 -75 77s-68 27.5 -108 27.5s-75.833 -9.16699 -107.5 -27.5s-56.667 -44 -75 -77s-27.5 -71.5 -27.5 -115.5
c0 -43.333 9.16699 -81.666 27.5 -114.999s43.333 -59.166 75 -77.499s67.5 -27.5 107.5 -27.5z" />
    <glyph glyph-name="p" unicode="p" horiz-adv-x="675" 
d="M368 -4c-46 0 -87.5 10.665 -124.5 31.998s-66.333 51.833 -88 91.5s-32.5 86.834 -32.5 141.501s10.833 101.834 32.5 141.501s51 70.167 88 91.5s78.5 32 124.5 32c49.333 0 93.5 -11.167 132.5 -33.5s69.667 -53.5 92 -93.5s33.5 -86 33.5 -138
s-11.167 -98 -33.5 -138s-53 -71.167 -92 -93.5s-83.167 -33.5 -132.5 -33.5zM106 -194.002v716h48v-171l-8 -91l10 -91v-363h-50zM365 40.998c40 0 76 9.16699 108 27.5s57.167 44.166 75.5 77.499s27.5 71.666 27.5 114.999c0 44 -9.16699 82.5 -27.5 115.5
s-43.5 58.667 -75.5 77s-68 27.5 -108 27.5s-75.833 -9.16699 -107.5 -27.5s-56.667 -44 -75 -77s-27.5 -71.5 -27.5 -115.5c0 -43.333 9.16699 -81.666 27.5 -114.999s43.333 -59.166 75 -77.499s67.5 -27.5 107.5 -27.5z" />
    <glyph glyph-name="q" unicode="q" horiz-adv-x="675" 
d="M307 -4c-48.667 0 -92.5 11.1689 -131.5 33.502s-69.833 53.5 -92.5 93.5s-34 86 -34 138s11.333 98 34 138s53.5 71.167 92.5 93.5s82.833 33.5 131.5 33.5c46.667 0 88.5 -10.667 125.5 -32s66.167 -51.833 87.5 -91.5s32 -86.834 32 -141.501
s-10.833 -101.834 -32.5 -141.501s-51 -70.167 -88 -91.5s-78.5 -32 -124.5 -32zM310 41.002c40 0 75.833 9.16699 107.5 27.5s56.667 44.166 75 77.499s27.5 71.666 27.5 114.999c0 44 -9.16699 82.5 -27.5 115.5s-43.333 58.667 -75 77s-67.5 27.5 -107.5 27.5
s-75.833 -9.16699 -107.5 -27.5s-56.667 -44 -75 -77s-27.5 -71.5 -27.5 -115.5c0 -43.333 9.16699 -81.666 27.5 -114.999s43.333 -59.166 75 -77.499s67.5 -27.5 107.5 -27.5zM520 -193.998v363l10 91l-9 91v171h49v-716h-50z" />
    <glyph glyph-name="r" unicode="r" horiz-adv-x="394" 
d="M106 0l-0.000976562 522h48v-143l-5 16c14.667 42 39.334 74.333 74.001 97s78 34 130 34v-49c-2 0 -4 0.166992 -6 0.5s-4 0.5 -6 0.5c-58 0 -103.333 -18.167 -136 -54.5s-49 -86.833 -49 -151.5v-272h-50z" />
    <glyph glyph-name="s" unicode="s" horiz-adv-x="478" 
d="M238 -4c-43.333 0 -83.8291 6.33203 -121.496 18.999s-66.834 28.667 -87.501 48l23 40c20 -17.333 46.667 -32.166 80 -44.499s69.333 -18.5 108 -18.5c54.667 0 94 9 118 27s36 41.667 36 71c0 21.333 -6.16699 38.166 -18.5 50.499s-28.833 21.833 -49.5 28.5
s-43.334 12.167 -68.001 16.5s-49.334 9.16602 -74.001 14.499s-47.334 13 -68.001 23s-37.167 23.833 -49.5 41.5s-18.5 41.167 -18.5 70.5c0 26.667 7.33301 50.667 22 72s36.667 38.5 66 51.5s66 19.5 110 19.5c32.667 0 65.5 -4.66699 98.5 -14
s59.833 -21.666 80.5 -36.999l-23 -40c-22 16.667 -46.667 28.667 -74 36s-55 11 -83 11c-50.667 0 -87.834 -9.33301 -111.501 -28s-35.5 -42 -35.5 -70c0 -22 6.16699 -39.5 18.5 -52.5s28.833 -23 49.5 -30s43.334 -12.667 68.001 -17s49.334 -9.16602 74.001 -14.499
s47.334 -12.833 68.001 -22.5s37.167 -23 49.5 -40s18.5 -39.833 18.5 -68.5s-7.83301 -53.667 -23.5 -75s-38.834 -38 -69.501 -50s-68.334 -18 -113.001 -18z" />
    <glyph glyph-name="t" unicode="t" horiz-adv-x="398" 
d="M258 -4c-46 0 -81.167 12.667 -105.5 38s-36.5 60 -36.5 104v498h50v-493c0 -33.333 8.33301 -59 25 -77s40.667 -27 72 -27c32.667 0 59.667 9.66699 81 29l21 -35c-13.333 -12.667 -29.5 -22 -48.5 -28s-38.5 -9 -58.5 -9zM20 479v43h312v-43h-312z" />
    <glyph glyph-name="u" unicode="u" horiz-adv-x="669" 
d="M318 -4c-44.667 0 -83.332 8.16992 -115.999 24.5029s-57.834 41 -75.501 74s-26.5 73.833 -26.5 122.5v305h50v-301c0 -58.667 15 -103.334 45 -134.001s72.333 -46 127 -46c39.333 0 73.333 8.33301 102 25s50.667 40.167 66 70.5s23 66.166 23 107.499v278h50v-522
h-48v145l7 -17c-15.333 -40.667 -40.833 -72.834 -76.5 -96.501s-78.167 -35.5 -127.5 -35.5z" />
    <glyph glyph-name="v" unicode="v" horiz-adv-x="528" 
d="M238 0l-235 522h53l220 -494h-24l222 494h51l-236 -522h-51z" />
    <glyph glyph-name="w" unicode="w" horiz-adv-x="862" 
d="M208 0l-198 522h48l184 -494h-21l189 494h43l188 -494h-22l187 494h46l-198 -522h-47l-184 474h16l-185 -474h-46z" />
    <glyph glyph-name="x" unicode="x" horiz-adv-x="519" 
d="M23 0l217 282l-1 -24l-205 264h57l179 -231h-21l178 231h56l-207 -267l1 27l220 -282h-59l-189 246l19 -2l-188 -244h-57z" />
    <glyph glyph-name="y" unicode="y" horiz-adv-x="528" 
d="M94 -198c-24 0 -46.502 4.00098 -67.502 12.001s-38.833 19.667 -53.5 35l25 38c13.333 -14 27.833 -24.333 43.5 -31s33.5 -10 53.5 -10c24 0 45.167 6.66699 63.5 20s35.5 37.666 51.5 72.999l36 80l7 9l221 494h51l-268 -593c-14 -32 -29.167 -57.167 -45.5 -75.5
s-34.166 -31.5 -53.499 -39.5s-40.666 -12 -63.999 -12zM244.998 -12.999l-242 535h53l220 -491z" />
    <glyph glyph-name="z" unicode="z" horiz-adv-x="503" 
d="M44 0v34l357 462l13 -17h-365v43h404v-34l-358 -462l-15 17h379v-43h-415z" />
    <glyph glyph-name="braceleft" unicode="{" horiz-adv-x="320" 
d="M265 -194c-40.667 0 -71.334 9.99609 -92.001 29.9961s-31 50 -31 90v275c0 18 -4 31.167 -12 39.5s-19 12.5 -33 12.5h-35v43h35c14 0 25 4 33 12s12 21 12 39v275c0 40.667 10.333 70.834 31 90.501s51.334 29.5 92.001 29.5h32v-43h-29c-26 0 -45.167 -7 -57.5 -21
s-18.5 -34 -18.5 -60v-270c0 -17.333 -2 -31.166 -6 -41.499s-10 -18.166 -18 -23.499s-18.333 -9.66602 -31 -12.999v8c12.667 -2.66699 23 -6.83398 31 -12.501s14 -13.667 18 -24s6 -24.166 6 -41.499v-270c0 -26 6.16699 -46 18.5 -60s31.5 -21 57.5 -21h29v-43h-32z
" />
    <glyph glyph-name="bar" unicode="|" horiz-adv-x="291" 
d="M122 -194v936h47v-936h-47z" />
    <glyph glyph-name="braceright" unicode="}" horiz-adv-x="320" 
d="M55 -194l-32 0.00390625v43h29c26.667 0 46.167 7 58.5 21s18.5 34 18.5 60v270c0 17.333 1.83301 31.166 5.5 41.499s9.66699 18.333 18 24s18.5 9.83398 30.5 12.501v-8c-12 3.33301 -22.167 7.66602 -30.5 12.999s-14.333 13.166 -18 23.499s-5.5 24.166 -5.5 41.499
v270c0 26 -6.16699 46 -18.5 60s-31.833 21 -58.5 21h-29v43h32c40.667 0 71.5 -9.83301 92.5 -29.5s31.5 -49.834 31.5 -90.501v-275c0 -18 3.83301 -31 11.5 -39s18.5 -12 32.5 -12h35v-43h-35c-14 0 -24.833 -4.16699 -32.5 -12.5s-11.5 -21.5 -11.5 -39.5v-275
c0 -40 -10.5 -70 -31.5 -90s-51.833 -30 -92.5 -30z" />
    <glyph glyph-name="asciitilde" unicode="~" horiz-adv-x="569" 
d="M386 278c-24 0 -44.6709 5.16699 -62.0039 15.5s-33.166 22.5 -47.499 36.5s-28.666 26.333 -42.999 37s-30.833 16 -49.5 16c-25.333 0 -45.333 -9.16699 -60 -27.5s-22.667 -42.833 -24 -73.5h-35c1.33301 46 13 81 35 105s49.667 36 83 36
c24 0 44.5 -5.33301 61.5 -16s32.667 -23 47 -37s28.833 -26.167 43.5 -36.5s31.334 -15.5 50.001 -15.5c25.333 0 45.333 9 60 27s22.334 42.333 23.001 73h36c-2 -45.333 -13.667 -80 -35 -104s-49 -36 -83 -36z" />
    <glyph glyph-name="uni00A0" unicode="&#xa0;" horiz-adv-x="257" 
 />
    <glyph glyph-name="exclamdown" unicode="&#xa1;" horiz-adv-x="252" 
d="M145 321l10 -475h-58l10 475h38zM126 526c12 0 22 -4 30 -12s12 -17.667 12 -29s-4 -21 -12 -29s-18 -12 -30 -12c-11.333 0 -21 4 -29 12s-12 17.667 -12 29s4 21 12 29s17.667 12 29 12z" />
    <glyph glyph-name="cent" unicode="&#xa2;" horiz-adv-x="555" 
d="M289 -120v762h36v-762h-36zM313 -4c-50.667 0 -95.834 11.3311 -135.501 33.998s-71 54 -94 94s-34.5 85.667 -34.5 137c0 52 11.5 98 34.5 138s54.333 71.167 94 93.5s84.834 33.5 135.501 33.5c42 0 80.167 -8 114.5 -24s62.166 -40 83.499 -72l-37 -27
c-18.667 26.667 -42 46.334 -70 59.001s-58.333 19 -91 19c-40.667 0 -77.167 -9.16699 -109.5 -27.5s-57.666 -44 -75.999 -77s-27.5 -71.5 -27.5 -115.5s9.16699 -82.5 27.5 -115.5s43.666 -58.667 75.999 -77s68.833 -27.5 109.5 -27.5c32.667 0 63 6.33301 91 19
s51.333 32.334 70 59.001l37 -27c-21.333 -32 -49.166 -56 -83.499 -72s-72.5 -24 -114.5 -24z" />
    <glyph glyph-name="sterling" unicode="&#xa3;" horiz-adv-x="629" 
d="M146 12l-0.00292969 457.001c0 47.333 9.83301 88.666 29.5 123.999s49.167 62.833 88.5 82.5s88 29.5 146 29.5c40.667 0 77.834 -4.5 111.501 -13.5s63.834 -23.5 90.501 -43.5l-21 -42c-24.667 18.667 -52.5 32 -83.5 40s-64.5 12 -100.5 12
c-71.333 0 -124.166 -16.667 -158.499 -50s-51.5 -80.333 -51.5 -141v-455h-51zM29.9971 0.000976562v46h570v-46h-570zM29.9971 332.001v36h453v-36h-453z" />
    <glyph glyph-name="currency" unicode="&#xa4;" horiz-adv-x="700" 
d="M154 482l-118 118l30 32l119 -118zM66 3l-30 32l118 118l31 -32zM634 3l-119 118l31 32l118 -118zM546 482l-31 32l119 118l30 -32zM350 50c-38 0 -73.667 6.83301 -107 20.5s-62.666 32.834 -87.999 57.501s-45.166 53.167 -59.499 85.5s-21.5 66.833 -21.5 103.5
c0 37.333 7.16699 72.166 21.5 104.499s34.166 61 59.499 86s54.666 44.5 87.999 58.5s69 21 107 21c38.667 0 74.834 -7 108.501 -21s63.167 -33.5 88.5 -58.5s45.333 -53.667 60 -86s22 -67.166 22 -104.499c0 -36.667 -7.33301 -71.167 -22 -103.5
s-34.667 -60.833 -60 -85.5s-54.833 -43.834 -88.5 -57.501s-69.834 -20.5 -108.501 -20.5zM350 93c43.333 0 82.833 10.167 118.5 30.5s64.167 47.333 85.5 81s32 71.167 32 112.5c0 42 -10.667 80 -32 114s-49.833 61.333 -85.5 82s-75.167 31 -118.5 31
c-42.667 0 -81.667 -10.333 -117 -31s-63.5 -48 -84.5 -82s-31.5 -72 -31.5 -114c0 -41.333 10.5 -78.833 31.5 -112.5s49.167 -60.667 84.5 -81s74.333 -30.5 117 -30.5z" />
    <glyph glyph-name="yen" unicode="&#xa5;" horiz-adv-x="685" 
d="M317 0v304l12 -36l-324 432h55l297 -393h-28l297 393h54l-324 -432l12 36v-304h-51zM88 141v34h508v-34h-508zM88 279v34h508v-34h-508z" />
    <glyph glyph-name="brokenbar" unicode="&#xa6;" horiz-adv-x="291" 
d="M122 392v350h47v-350h-47zM122 -194v350h47v-350h-47z" />
    <glyph glyph-name="section" unicode="&#xa7;" horiz-adv-x="482" 
d="M330 148l-41 26.9971c30.667 4.66699 56.667 16.334 78 35.001s32 44 32 76c0 23.333 -6 42.166 -18 56.499s-28 25.666 -48 33.999s-41.833 15.5 -65.5 21.5s-47.334 12.333 -71.001 19s-45.334 15.167 -65.001 25.5s-35.667 24.5 -48 42.5s-18.5 41 -18.5 69
c0 32 8.33301 59 25 81s40.334 39 71.001 51s67.667 18 111 18c21.333 0 43 -2 65 -6s42.833 -10 62.5 -18s36.167 -17.333 49.5 -28l-19 -38c-22 16.667 -46.833 28.834 -74.5 36.501s-56.167 11.5 -85.5 11.5c-51.333 0 -90.666 -8.83301 -117.999 -26.5
s-41 -44.167 -41 -79.5c0 -23.333 6 -41.833 18 -55.5s27.833 -24.5 47.5 -32.5s41.5 -15 65.5 -21l71.5 -18.5c23.667 -6.33301 45.334 -15.166 65.001 -26.499s35.5 -26.166 47.5 -44.499s18 -42.166 18 -71.499c0 -34.667 -10.833 -64.167 -32.5 -88.5
s-48.834 -40.833 -81.501 -49.5zM227 -104.003c-24.667 0 -49.832 2.83203 -75.499 8.49902s-49 13.834 -70 24.501s-38.167 22.334 -51.5 35.001l19 39c19.333 -18 45.166 -33.333 77.499 -46s66.5 -19 102.5 -19c46 0 81.833 9 107.5 27s38.5 44.333 38.5 79
c0 23.333 -6 41.833 -18 55.5s-27.833 24.667 -47.5 33s-41.334 15.333 -65.001 21s-47.5 11.834 -71.5 18.501s-45.833 15.334 -65.5 26.001s-35.5 25.167 -47.5 43.5s-18 42.166 -18 71.499c0 36 10.833 65.833 32.5 89.5s48.5 40.167 80.5 49.5l40 -28
c-30 -4.66699 -55.5 -16.167 -76.5 -34.5s-31.5 -43.166 -31.5 -74.499c0 -24 6 -43.167 18 -57.5s28 -25.833 48 -34.5s41.833 -15.834 65.5 -21.501s47.334 -11.834 71.001 -18.501s45.5 -15.334 65.5 -26.001s36 -25 48 -43s18 -41.333 18 -70
c0 -30.667 -8 -57.167 -24 -79.5s-38.5 -39.333 -67.5 -51s-63.167 -17.5 -102.5 -17.5z" />
    <glyph glyph-name="dieresis" unicode="&#xa8;" horiz-adv-x="600" 
d="M386 634c-9.33301 0 -17.666 3.5 -24.999 10.5s-11 15.5 -11 25.5c0 10.667 3.66699 19.334 11 26.001s15.666 10 24.999 10c10 0 18.5 -3.33301 25.5 -10s10.5 -15.334 10.5 -26.001c0 -10 -3.5 -18.5 -10.5 -25.5s-15.5 -10.5 -25.5 -10.5zM214 634
c-10 0 -18.5 3.5 -25.5 10.5s-10.5 15.5 -10.5 25.5c0 10.667 3.5 19.334 10.5 26.001s15.5 10 25.5 10s18.5 -3.33301 25.5 -10s10.5 -15.334 10.5 -26.001c0 -10 -3.5 -18.5 -10.5 -25.5s-15.5 -10.5 -25.5 -10.5z" />
    <glyph glyph-name="copyright" unicode="&#xa9;" horiz-adv-x="815" 
d="M407 -3c-50 0 -96.334 9 -139.001 27s-80 43.167 -112 75.5s-56.833 69.833 -74.5 112.5s-26.5 88.667 -26.5 138s9 95.333 27 138s43 80.167 75 112.5s69.5 57.5 112.5 75.5s89.5 27 139.5 27s96.5 -8.83301 139.5 -26.5s80.333 -42.5 112 -74.5
s56.334 -69.167 74.001 -111.5s26.5 -88.5 26.5 -138.5s-9 -96.5 -27 -139.5s-43.167 -80.667 -75.5 -113s-69.833 -57.5 -112.5 -75.5s-89 -27 -139 -27zM406.999 26c45.333 0 87.6689 8.50293 127.002 25.5029s73.666 40.167 102.999 69.5s52.333 63.833 69 103.5
s25 82.167 25 127.5c0 46 -8.16699 88.333 -24.5 127s-39 72.667 -68 102s-63 52.166 -102 68.499s-81.5 24.5 -127.5 24.5s-88.833 -8.33301 -128.5 -25s-74 -39.834 -103 -69.501s-51.667 -64 -68 -103s-24.5 -81.167 -24.5 -126.5s8.16699 -87.5 24.5 -126.5
s39 -73.333 68 -103s63.167 -52.834 102.5 -69.501s81.666 -25 126.999 -25zM416.002 141.003c-40 0 -75.667 8.8291 -107 26.4961s-55.833 42.334 -73.5 74.001s-26.5 67.834 -26.5 108.501s8.83301 76.834 26.5 108.501s42.167 56.334 73.5 74.001s67 26.5 107 26.5
c32 0 61.5 -6.33301 88.5 -19s49.167 -30.667 66.5 -54l-31 -25c-14.667 20 -33 35 -55 45s-45.333 15 -70 15c-31.333 0 -59.333 -7.16699 -84 -21.5s-44.167 -34.333 -58.5 -60s-21.5 -55.5 -21.5 -89.5s7.16699 -63.833 21.5 -89.5s33.833 -45.667 58.5 -60
s52.667 -21.5 84 -21.5c24.667 0 48 5 70 15s40.333 25 55 45l31 -24c-17.333 -24 -39.5 -42.333 -66.5 -55s-56.5 -19 -88.5 -19z" />
    <glyph glyph-name="ordfeminine" unicode="&#xaa;" horiz-adv-x="398" 
d="M286 432v69l-3 11v116c0 28.667 -8 50 -24 64s-40 21 -72 21c-23.333 0 -45 -3.33301 -65 -10s-37 -16 -51 -28l-17 26c16.667 13.333 37.167 24 61.5 32s48.833 12 73.5 12c43.333 0 76.5 -9.83301 99.5 -29.5s34.5 -49.167 34.5 -88.5v-195h-37zM165 429
c-38.667 0 -68.501 8.33203 -89.501 24.999s-31.5 38.334 -31.5 65.001c0 24 9.66699 44.333 29 61s52 25 98 25h121v-26h-117c-33.333 0 -57.166 -5.5 -71.499 -16.5s-21.5 -25.167 -21.5 -42.5c0 -19.333 7.83301 -34.5 23.5 -45.5s38.167 -16.5 67.5 -16.5
c28 0 51 5.5 69 16.5s31.667 26.833 41 47.5l9 -23c-8 -20.667 -22.833 -37.5 -44.5 -50.5s-49.167 -19.5 -82.5 -19.5z" />
    <glyph glyph-name="guillemotleft" unicode="&#xab;" horiz-adv-x="455" 
d="M199 74l-146 187l146 188h49l-144 -188l144 -187h-49zM366 74l-146 187l146 188h49l-144 -188l144 -187h-49z" />
    <glyph glyph-name="logicalnot" unicode="&#xac;" horiz-adv-x="569" 
d="M497 371v-222h-46v180h-379v42h425z" />
    <glyph glyph-name="uni00AD" unicode="&#xad;" horiz-adv-x="381" 
d="M62 246v45h257v-45h-257z" />
    <glyph glyph-name="registered" unicode="&#xae;" horiz-adv-x="815" 
d="M407 -3c-50 0 -96.334 9 -139.001 27s-80 43.167 -112 75.5s-56.833 69.833 -74.5 112.5s-26.5 88.667 -26.5 138s9 95.333 27 138s43 80.167 75 112.5s69.5 57.5 112.5 75.5s89.5 27 139.5 27s96.5 -8.83301 139.5 -26.5s80.333 -42.5 112 -74.5
s56.334 -69.167 74.001 -111.5s26.5 -88.5 26.5 -138.5s-9 -96.5 -27 -139.5s-43.167 -80.667 -75.5 -113s-69.833 -57.5 -112.5 -75.5s-89 -27 -139 -27zM544.999 145l-103 159h42l103 -159h-42zM406.999 26c45.333 0 87.6689 8.50293 127.002 25.5029
s73.666 40.167 102.999 69.5s52.333 63.833 69 103.5s25 82.167 25 127.5c0 46 -8.16699 88.333 -24.5 127s-39 72.667 -68 102s-63 52.166 -102 68.499s-81.5 24.5 -127.5 24.5s-88.833 -8.33301 -128.5 -25s-74 -39.834 -103 -69.501s-51.667 -64 -68 -103
s-24.5 -81.167 -24.5 -126.5s8.16699 -87.5 24.5 -126.5s39 -73.333 68 -103s63.167 -52.834 102.5 -69.501s81.666 -25 126.999 -25zM273.002 145.003v410h154c48.667 0 87 -12.167 115 -36.5s42 -56.833 42 -97.5c0 -42 -14 -75 -42 -99s-66.333 -36 -115 -36h-115v-141
h-39zM311.002 320.003h113c38.667 0 68.667 8.83301 90 26.5s32 42.5 32 74.5c0 31.333 -10.667 55.833 -32 73.5s-51.333 26.5 -90 26.5h-113v-201z" />
    <glyph glyph-name="macron" unicode="&#xaf;" horiz-adv-x="600" 
d="M153 648v36h294v-36h-294z" />
    <glyph glyph-name="degree" unicode="&#xb0;" horiz-adv-x="420" 
d="M210 394c-28.667 0 -55 7 -79 21s-42.833 32.667 -56.5 56s-20.5 49.333 -20.5 78c0 29.333 6.83301 55.666 20.5 78.999s32.5 41.833 56.5 55.5s50.333 20.5 79 20.5s54.834 -6.83301 78.501 -20.5s42.334 -32.167 56.001 -55.5s20.5 -49.666 20.5 -78.999
c0 -28.667 -6.83301 -54.667 -20.5 -78s-32.334 -42 -56.001 -56s-49.834 -21 -78.501 -21zM210 426c22.667 0 43.167 5.66895 61.5 17.002s33 26.166 44 44.499s16.5 38.833 16.5 61.5c0 23.333 -5.5 44.166 -16.5 62.499s-25.667 33 -44 44s-38.833 16.5 -61.5 16.5
c-23.333 0 -44.166 -5.5 -62.499 -16.5s-32.833 -25.667 -43.5 -44s-16 -39.166 -16 -62.499c0 -22.667 5.33301 -43.334 16 -62.001s25.167 -33.5 43.5 -44.5s39.166 -16.5 62.499 -16.5z" />
    <glyph glyph-name="plusminus" unicode="&#xb1;" horiz-adv-x="569" 
d="M72 0v43h425v-43h-425zM262 164v410h45v-410h-45zM72 347v43h425v-43h-425z" />
    <glyph glyph-name="uni00B2" unicode="&#xb2;" horiz-adv-x="430" 
d="M50 327l-0.00195312 26l194 173c27.333 24.667 45.5 44.667 54.5 60s13.5 30.666 13.5 45.999c0 22 -9.5 40.667 -28.5 56s-49.833 23 -92.5 23c-26.667 0 -51.167 -3.83301 -73.5 -11.5s-40.5 -19.5 -54.5 -35.5l-28 22c17.333 19.333 39.333 34 66 44
s57.334 15 92.001 15c53.333 0 93 -10.667 119 -32s39 -47.666 39 -78.999c0 -20 -5.16699 -39.333 -15.5 -58s-31.166 -42 -62.499 -70l-179 -160l-15 15h294v-34h-323z" />
    <glyph glyph-name="uni00B3" unicode="&#xb3;" horiz-adv-x="430" 
d="M202 324c-36 0 -69.165 4.99902 -99.498 14.999s-52.833 23 -67.5 39l18 30c14 -14 34.167 -25.833 60.5 -35.5s55.833 -14.5 88.5 -14.5c43.333 0 75.5 8 96.5 24s31.5 37 31.5 63c0 26.667 -10.333 47.834 -31 63.501s-52.667 23.5 -96 23.5h-38v27l148 164l5 -15h-275
v34h308v-26l-148 -164l-15 11h21c52.667 0 92.5 -10.833 119.5 -32.5s40.5 -50.167 40.5 -85.5c0 -22.667 -6.33301 -43.167 -19 -61.5s-31.334 -32.833 -56.001 -43.5s-55.334 -16 -92.001 -16z" />
    <glyph glyph-name="acute" unicode="&#xb4;" horiz-adv-x="600" 
d="M243 607l139 118h72l-157 -118h-54z" />
    <glyph glyph-name="uni00B5" unicode="&#xb5;" horiz-adv-x="675" 
d="M106 -194l0.000976562 716.001h50v-301c0 -58.667 15 -103.334 45 -134.001s72.333 -46 127 -46c39.333 0 73.333 8.33301 102 25s50.667 40.167 66 70.5s23 66.166 23 107.499v278h50v-522h-48v149l9 -12c-10 -30.667 -24.833 -56.667 -44.5 -78
s-42.834 -37.166 -69.501 -47.499s-55.667 -15.5 -87 -15.5c-44 0 -81.667 9 -113 27s-54.333 44.667 -69 80l9 27v-324h-50z" />
    <glyph glyph-name="paragraph" unicode="&#xb6;" horiz-adv-x="619" 
d="M226 -100l0.00195312 505c-40.667 0 -76.167 7 -106.5 21s-54 33.667 -71 59s-25.5 55 -25.5 89c0 34.667 8.66699 64.5 26 89.5s41.666 44.333 72.999 58s67.666 20.5 108.999 20.5h266v-842h-44v801h-184v-801h-43z" />
    <glyph glyph-name="periodcentered" unicode="&#xb7;" horiz-adv-x="240" 
d="M120 225c-11.333 0 -21.166 4.16699 -29.499 12.5s-12.5 18.5 -12.5 30.5c0 12.667 4.16699 23 12.5 31s18.166 12 29.499 12c12 0 22 -4 30 -12s12 -18.333 12 -31c0 -12 -4 -22.167 -12 -30.5s-18 -12.5 -30 -12.5z" />
    <glyph glyph-name="cedilla" unicode="&#xb8;" horiz-adv-x="600" 
d="M280 -217c-15.333 0 -29.5 2.00098 -42.5 6.00098s-25.167 10.333 -36.5 19l14 28c9.33301 -6.66699 19.5 -11.834 30.5 -15.501s22.5 -5.5 34.5 -5.5c20 0 36 4.66699 48 14s18 22.333 18 39c0 14.667 -5.66699 26.834 -17 36.501s-27.666 14.5 -48.999 14.5h-20l23 87
h33l-16 -60c26.667 -1.33301 47.5 -9.33301 62.5 -24s22.5 -33.334 22.5 -56.001c0 -25.333 -9.83301 -45.5 -29.5 -60.5s-44.834 -22.5 -75.501 -22.5z" />
    <glyph glyph-name="uni00B9" unicode="&#xb9;" horiz-adv-x="430" 
d="M252 337l-23 24h136v-34h-279v34h150l-23 -24v389l17 -18h-136v34h158v-405z" />
    <glyph glyph-name="ordmasculine" unicode="&#xba;" horiz-adv-x="411" 
d="M206 429c-32.667 0 -61.834 6.83301 -87.501 20.5s-45.667 32.5 -60 56.5s-21.5 51 -21.5 81c0 31.333 7.16699 58.833 21.5 82.5s34.333 42.167 60 55.5s54.5 20 86.5 20c32.667 0 61.834 -6.66699 87.501 -20s45.667 -31.833 60 -55.5s21.5 -51.167 21.5 -82.5
c0 -30 -7.16699 -57 -21.5 -81s-34.333 -42.833 -60 -56.5s-54.5 -20.5 -86.5 -20.5zM205 463c38 0 69.333 11.5 94 34.5s37 52.833 37 89.5c0 37.333 -12.333 67.5 -37 90.5s-56 34.5 -94 34.5c-37.333 0 -68.333 -11.5 -93 -34.5s-37 -53.167 -37 -90.5
c0 -36.667 12.333 -66.5 37 -89.5s55.667 -34.5 93 -34.5z" />
    <glyph glyph-name="guillemotright" unicode="&#xbb;" horiz-adv-x="455" 
d="M89 74h-48l144 187l-144 188h48l146 -188zM256 74h-48l144 187l-144 188h48l146 -188z" />
    <glyph glyph-name="onequarter" unicode="&#xbc;" horiz-adv-x="1025" 
d="M252 295l-23 24h136v-34h-279v34h150l-23 -24v389l17 -18h-136v34h158v-405zM252 0l478 700h43l-478 -700h-43zM626 112v27l210 276h44l-211 -276l-20 6h344v-33h-367zM861 0v112l2 33v97h36v-242h-38z" />
    <glyph glyph-name="onehalf" unicode="&#xbd;" horiz-adv-x="1025" 
d="M252 295l-23 24h136v-34h-279v34h150l-23 -24v389l17 -18h-136v34h158v-405zM252 0l478 700h43l-478 -700h-43zM645 0l-0.00195312 26l194 173c27.333 24.667 45.5 44.667 54.5 60s13.5 30.666 13.5 45.999c0 22 -9.5 40.667 -28.5 56s-49.833 23 -92.5 23
c-26.667 0 -51.167 -3.83301 -73.5 -11.5s-40.5 -19.5 -54.5 -35.5l-28 22c17.333 19.333 39.333 34 66 44s57.334 15 92.001 15c53.333 0 93 -10.667 119 -32s39 -47.666 39 -78.999c0 -20 -5.16699 -39.333 -15.5 -58s-31.166 -42 -62.499 -70l-179 -160l-15 15h294v-34
h-323z" />
    <glyph glyph-name="threequarters" unicode="&#xbe;" horiz-adv-x="1025" 
d="M202 282c-36 0 -69.165 4.99902 -99.498 14.999s-52.833 23 -67.5 39l18 30c14 -14 34.167 -25.833 60.5 -35.5s55.833 -14.5 88.5 -14.5c43.333 0 75.5 8 96.5 24s31.5 37 31.5 63c0 26.667 -10.333 47.834 -31 63.501s-52.667 23.5 -96 23.5h-38v27l148 164l5 -15h-275
v34h308v-26l-148 -164l-15 11h21c52.667 0 92.5 -10.833 119.5 -32.5s40.5 -50.167 40.5 -85.5c0 -22.667 -6.33301 -43.167 -19 -61.5s-31.334 -32.833 -56.001 -43.5s-55.334 -16 -92.001 -16zM252.002 -0.000976562l478 700h43l-478 -700h-43zM626.002 111.999v27
l210 276h44l-211 -276l-20 6h344v-33h-367zM861.002 -0.000976562v112l2 33v97h36v-242h-38z" />
    <glyph glyph-name="questiondown" unicode="&#xbf;" horiz-adv-x="562" 
d="M305 -159c-46 0 -85.6689 6.99707 -119.002 20.9971s-59.166 33.333 -77.499 58s-27.5 53 -27.5 85c0 27.333 4.5 51 13.5 71s20.667 37.5 35 52.5s29.333 29 45 42s30.834 26.5 45.501 40.5s26.5 29.667 35.5 47s13.5 38.333 13.5 63h51
c0 -27.333 -4.5 -50.666 -13.5 -69.999s-20.667 -36.666 -35 -51.999s-29.333 -29.5 -45 -42.5s-30.667 -26.333 -45 -40s-26 -29 -35 -46s-13.5 -37.167 -13.5 -60.5c0 -34 15 -63.167 45 -87.5s73 -36.5 129 -36.5c45.333 0 84.5 7 117.5 21s61.167 34.667 84.5 62l37 -29
c-26.667 -31.333 -60 -55.666 -100 -72.999s-87 -26 -141 -26zM293.998 443.997c-11.333 0 -21 4 -29 12s-12 17.667 -12 29s4 21 12 29s17.667 12 29 12c12 0 22 -4 30 -12s12 -17.667 12 -29s-4 -21 -12 -29s-18 -12 -30 -12z" />
    <glyph glyph-name="Agrave" unicode="&#xc0;" horiz-adv-x="705" 
d="M5 0l322 700h51l322 -700h-55l-304 668h22l-303 -668h-55zM123 197l17 43h419l17 -43h-453zM356 757l-157 118h72l139 -118h-54z" />
    <glyph glyph-name="Aacute" unicode="&#xc1;" horiz-adv-x="705" 
d="M5 0l322 700h51l322 -700h-55l-304 668h22l-303 -668h-55zM123 197l17 43h419l17 -43h-453zM296 757l139 118h72l-157 -118h-54z" />
    <glyph glyph-name="Acircumflex" unicode="&#xc2;" horiz-adv-x="705" 
d="M5 0l322 700h51l322 -700h-55l-304 668h22l-303 -668h-55zM123 197l17 43h419l17 -43h-453zM199 757l126 118h56l126 -118h-50l-122 102h36l-122 -102h-50z" />
    <glyph glyph-name="Atilde" unicode="&#xc3;" horiz-adv-x="705" 
d="M5 0l322 700h51l322 -700h-55l-304 668h22l-303 -668h-55zM123 197l17 43h419l17 -43h-453zM419 765c-14.667 0 -27.8389 3.49902 -39.5059 10.499s-22.167 15 -31.5 24s-18.666 17 -27.999 24s-19.333 10.5 -30 10.5c-15.333 0 -27.666 -5.83301 -36.999 -17.5
s-14.666 -27.5 -15.999 -47.5h-33c1.33301 30 9.5 54.167 24.5 72.5s34.5 27.5 58.5 27.5c14.667 0 27.834 -3.5 39.501 -10.5s22.334 -15 32.001 -24s19 -17 28 -24s18.833 -10.5 29.5 -10.5c15.333 0 27.833 5.83301 37.5 17.5s14.834 26.834 15.501 45.501h33
c-0.666992 -28.667 -8.66699 -52.167 -24 -70.5s-35 -27.5 -59 -27.5z" />
    <glyph glyph-name="Adieresis" unicode="&#xc4;" horiz-adv-x="705" 
d="M5 0l322 700h51l322 -700h-55l-304 668h22l-303 -668h-55zM123 197l17 43h419l17 -43h-453zM439 784c-9.33301 0 -17.666 3.5 -24.999 10.5s-11 15.5 -11 25.5c0 10.667 3.66699 19.334 11 26.001s15.666 10 24.999 10c10 0 18.5 -3.33301 25.5 -10
s10.5 -15.334 10.5 -26.001c0 -10 -3.5 -18.5 -10.5 -25.5s-15.5 -10.5 -25.5 -10.5zM267 784c-10 0 -18.5 3.5 -25.5 10.5s-10.5 15.5 -10.5 25.5c0 10.667 3.5 19.334 10.5 26.001s15.5 10 25.5 10s18.5 -3.33301 25.5 -10s10.5 -15.334 10.5 -26.001
c0 -10 -3.5 -18.5 -10.5 -25.5s-15.5 -10.5 -25.5 -10.5z" />
    <glyph glyph-name="Aring" unicode="&#xc5;" horiz-adv-x="705" 
d="M5 0l322 700h51l322 -700h-55l-304 668h22l-303 -668h-55zM123 197l17 43h419l17 -43h-453zM352 774c-19.333 0 -36.332 4.5 -50.999 13.5s-26.334 20.833 -35.001 35.5s-13 30.667 -13 48c0 18 4.33301 34.5 13 49.5s20.5 27.167 35.5 36.5s31.833 14 50.5 14
c19.333 0 36.5 -4.66699 51.5 -14s26.833 -21.5 35.5 -36.5s13 -31.5 13 -49.5c0 -17.333 -4.33301 -33.333 -13 -48s-20.5 -26.5 -35.5 -35.5s-32.167 -13.5 -51.5 -13.5zM352.001 802c20.667 0 37.499 6.66699 50.499 20s19.5 29.666 19.5 48.999s-6.5 36 -19.5 50
s-29.833 21 -50.5 21c-20 0 -36.5 -6.83301 -49.5 -20.5s-19.5 -30.5 -19.5 -50.5c0 -19.333 6.33301 -35.666 19 -48.999s29.334 -20 50.001 -20z" />
    <glyph glyph-name="AE" unicode="&#xc6;" horiz-adv-x="1022" 
d="M5 0l434 700h52v-46h-48l33 20l-416 -674h-55zM163 197l8 43h320v-43h-328zM520 378h379v-45h-379v45zM526 46h432v-46h-483v700h468v-46h-417v-608z" />
    <glyph glyph-name="Ccedilla" unicode="&#xc7;" horiz-adv-x="716" 
d="M418 -5c-52 0 -100.167 8.83301 -144.5 26.5s-82.833 42.5 -115.5 74.5s-58 69.5 -76 112.5s-27 90.167 -27 141.5s9 98.5 27 141.5s43.5 80.5 76.5 112.5s71.5 56.833 115.5 74.5s92 26.5 144 26.5c49.333 0 95.5 -8 138.5 -24s79.833 -40.333 110.5 -73l-32 -33
c-30 29.333 -63.167 50.5 -99.5 63.5s-74.833 19.5 -115.5 19.5c-44.667 0 -86.167 -7.66699 -124.5 -23s-71.666 -37 -99.999 -65s-50.333 -60.667 -66 -98s-23.5 -78 -23.5 -122s7.83301 -84.667 23.5 -122s37.667 -70 66 -98s61.666 -49.667 99.999 -65
s79.833 -23 124.5 -23c40.667 0 79.167 6.5 115.5 19.5s69.5 34.5 99.5 64.5l32 -33c-30.667 -32.667 -67.5 -57.167 -110.5 -73.5s-89.167 -24.5 -138.5 -24.5zM386 -217c-15.333 0 -29.5 2.00098 -42.5 6.00098s-25.167 10.333 -36.5 19l14 28
c9.33301 -6.66699 19.5 -11.834 30.5 -15.501s22.5 -5.5 34.5 -5.5c20 0 36 4.66699 48 14s18 22.333 18 39c0 14.667 -5.66699 26.834 -17 36.501s-27.666 14.5 -48.999 14.5h-20l23 87h33l-16 -60c26.667 -1.33301 47.5 -9.33301 62.5 -24s22.5 -33.334 22.5 -56.001
c0 -25.333 -9.83301 -45.5 -29.5 -60.5s-44.834 -22.5 -75.501 -22.5z" />
    <glyph glyph-name="Egrave" unicode="&#xc8;" horiz-adv-x="669" 
d="M167 378h379v-45h-379v45zM173 46h432v-46h-483v700h468v-46h-417v-608zM360 757l-157 118h72l139 -118h-54z" />
    <glyph glyph-name="Eacute" unicode="&#xc9;" horiz-adv-x="669" 
d="M167 378h379v-45h-379v45zM173 46h432v-46h-483v700h468v-46h-417v-608zM300 757l139 118h72l-157 -118h-54z" />
    <glyph glyph-name="Ecircumflex" unicode="&#xca;" horiz-adv-x="669" 
d="M167 378h379v-45h-379v45zM173 46h432v-46h-483v700h468v-46h-417v-608zM203 757l126 118h56l126 -118h-50l-122 102h36l-122 -102h-50z" />
    <glyph glyph-name="Edieresis" unicode="&#xcb;" horiz-adv-x="669" 
d="M167 378h379v-45h-379v45zM173 46h432v-46h-483v700h468v-46h-417v-608zM443 784c-9.33301 0 -17.666 3.5 -24.999 10.5s-11 15.5 -11 25.5c0 10.667 3.66699 19.334 11 26.001s15.666 10 24.999 10c10 0 18.5 -3.33301 25.5 -10s10.5 -15.334 10.5 -26.001
c0 -10 -3.5 -18.5 -10.5 -25.5s-15.5 -10.5 -25.5 -10.5zM271 784c-10 0 -18.5 3.5 -25.5 10.5s-10.5 15.5 -10.5 25.5c0 10.667 3.5 19.334 10.5 26.001s15.5 10 25.5 10s18.5 -3.33301 25.5 -10s10.5 -15.334 10.5 -26.001c0 -10 -3.5 -18.5 -10.5 -25.5
s-15.5 -10.5 -25.5 -10.5z" />
    <glyph glyph-name="Igrave" unicode="&#xcc;" horiz-adv-x="295" 
d="M122 0v700h51v-700h-51zM151 757l-157 118h72l139 -118h-54z" />
    <glyph glyph-name="Iacute" unicode="&#xcd;" horiz-adv-x="295" 
d="M122 0v700h51v-700h-51zM91 757l139 118h72l-157 -118h-54z" />
    <glyph glyph-name="Icircumflex" unicode="&#xce;" horiz-adv-x="295" 
d="M122 0v700h51v-700h-51zM-6 757l126 118h56l126 -118h-50l-122 102h36l-122 -102h-50z" />
    <glyph glyph-name="Idieresis" unicode="&#xcf;" horiz-adv-x="295" 
d="M122 0v700h51v-700h-51zM234 784c-9.33301 0 -17.666 3.5 -24.999 10.5s-11 15.5 -11 25.5c0 10.667 3.66699 19.334 11 26.001s15.666 10 24.999 10c10 0 18.5 -3.33301 25.5 -10s10.5 -15.334 10.5 -26.001c0 -10 -3.5 -18.5 -10.5 -25.5s-15.5 -10.5 -25.5 -10.5z
M62 784c-10 0 -18.5 3.5 -25.5 10.5s-10.5 15.5 -10.5 25.5c0 10.667 3.5 19.334 10.5 26.001s15.5 10 25.5 10s18.5 -3.33301 25.5 -10s10.5 -15.334 10.5 -26.001c0 -10 -3.5 -18.5 -10.5 -25.5s-15.5 -10.5 -25.5 -10.5z" />
    <glyph glyph-name="Eth" unicode="&#xd0;" horiz-adv-x="829" 
d="M125 0v700h277c74 0 139 -15 195 -45s99.5 -71.333 130.5 -124s46.5 -113 46.5 -181s-15.5 -128.333 -46.5 -181s-74.5 -94 -130.5 -124s-121 -45 -195 -45h-277zM176 46h222c66 0 123.333 13 172 39s86.334 61.833 113.001 107.5s40 98.167 40 157.5
s-13.333 111.833 -40 157.5s-64.334 81.5 -113.001 107.5s-106 39 -172 39h-222v-608zM16 334v43h376v-43h-376z" />
    <glyph glyph-name="Ntilde" unicode="&#xd1;" horiz-adv-x="814" 
d="M122 0v700h43l499 -637h-23v637h51v-700h-42l-500 637h23v-637h-51zM473 765c-14.667 0 -27.8389 3.49902 -39.5059 10.499s-22.167 15 -31.5 24s-18.666 17 -27.999 24s-19.333 10.5 -30 10.5c-15.333 0 -27.666 -5.83301 -36.999 -17.5s-14.666 -27.5 -15.999 -47.5
h-33c1.33301 30 9.5 54.167 24.5 72.5s34.5 27.5 58.5 27.5c14.667 0 27.834 -3.5 39.501 -10.5s22.334 -15 32.001 -24s19 -17 28 -24s18.833 -10.5 29.5 -10.5c15.333 0 27.833 5.83301 37.5 17.5s14.834 26.834 15.501 45.501h33
c-0.666992 -28.667 -8.66699 -52.167 -24 -70.5s-35 -27.5 -59 -27.5z" />
    <glyph glyph-name="Ograve" unicode="&#xd2;" horiz-adv-x="838" 
d="M419 -5c-52 0 -100.167 8.83301 -144.5 26.5s-83 42.667 -116 75s-58.5 70 -76.5 113s-27 89.833 -27 140.5s9 97.5 27 140.5s43.5 80.667 76.5 113s71.667 57.333 116 75s92.5 26.5 144.5 26.5s100.167 -8.83301 144.5 -26.5s82.833 -42.5 115.5 -74.5
s58.167 -69.5 76.5 -112.5s27.5 -90.167 27.5 -141.5s-9.16699 -98.5 -27.5 -141.5s-43.833 -80.5 -76.5 -112.5s-71.167 -56.833 -115.5 -74.5s-92.5 -26.5 -144.5 -26.5zM419 42c44.667 0 86 7.66699 124 23s71 37 99 65s49.833 60.667 65.5 98s23.5 78 23.5 122
c0 44.667 -7.83301 85.5 -23.5 122.5s-37.5 69.5 -65.5 97.5s-61 49.667 -99 65s-79.333 23 -124 23s-86 -7.66699 -124 -23s-71.167 -37 -99.5 -65s-50.333 -60.5 -66 -97.5s-23.5 -77.833 -23.5 -122.5c0 -44 7.83301 -84.667 23.5 -122s37.667 -70 66 -98
s61.5 -49.667 99.5 -65s79.333 -23 124 -23zM422 757l-157 118h72l139 -118h-54z" />
    <glyph glyph-name="Oacute" unicode="&#xd3;" horiz-adv-x="838" 
d="M419 -5c-52 0 -100.167 8.83301 -144.5 26.5s-83 42.667 -116 75s-58.5 70 -76.5 113s-27 89.833 -27 140.5s9 97.5 27 140.5s43.5 80.667 76.5 113s71.667 57.333 116 75s92.5 26.5 144.5 26.5s100.167 -8.83301 144.5 -26.5s82.833 -42.5 115.5 -74.5
s58.167 -69.5 76.5 -112.5s27.5 -90.167 27.5 -141.5s-9.16699 -98.5 -27.5 -141.5s-43.833 -80.5 -76.5 -112.5s-71.167 -56.833 -115.5 -74.5s-92.5 -26.5 -144.5 -26.5zM419 42c44.667 0 86 7.66699 124 23s71 37 99 65s49.833 60.667 65.5 98s23.5 78 23.5 122
c0 44.667 -7.83301 85.5 -23.5 122.5s-37.5 69.5 -65.5 97.5s-61 49.667 -99 65s-79.333 23 -124 23s-86 -7.66699 -124 -23s-71.167 -37 -99.5 -65s-50.333 -60.5 -66 -97.5s-23.5 -77.833 -23.5 -122.5c0 -44 7.83301 -84.667 23.5 -122s37.667 -70 66 -98
s61.5 -49.667 99.5 -65s79.333 -23 124 -23zM362 757l139 118h72l-157 -118h-54z" />
    <glyph glyph-name="Ocircumflex" unicode="&#xd4;" horiz-adv-x="838" 
d="M419 -5c-52 0 -100.167 8.83301 -144.5 26.5s-83 42.667 -116 75s-58.5 70 -76.5 113s-27 89.833 -27 140.5s9 97.5 27 140.5s43.5 80.667 76.5 113s71.667 57.333 116 75s92.5 26.5 144.5 26.5s100.167 -8.83301 144.5 -26.5s82.833 -42.5 115.5 -74.5
s58.167 -69.5 76.5 -112.5s27.5 -90.167 27.5 -141.5s-9.16699 -98.5 -27.5 -141.5s-43.833 -80.5 -76.5 -112.5s-71.167 -56.833 -115.5 -74.5s-92.5 -26.5 -144.5 -26.5zM419 42c44.667 0 86 7.66699 124 23s71 37 99 65s49.833 60.667 65.5 98s23.5 78 23.5 122
c0 44.667 -7.83301 85.5 -23.5 122.5s-37.5 69.5 -65.5 97.5s-61 49.667 -99 65s-79.333 23 -124 23s-86 -7.66699 -124 -23s-71.167 -37 -99.5 -65s-50.333 -60.5 -66 -97.5s-23.5 -77.833 -23.5 -122.5c0 -44 7.83301 -84.667 23.5 -122s37.667 -70 66 -98
s61.5 -49.667 99.5 -65s79.333 -23 124 -23zM265 757l126 118h56l126 -118h-50l-122 102h36l-122 -102h-50z" />
    <glyph glyph-name="Otilde" unicode="&#xd5;" horiz-adv-x="838" 
d="M419 -5c-52 0 -100.167 8.83301 -144.5 26.5s-83 42.667 -116 75s-58.5 70 -76.5 113s-27 89.833 -27 140.5s9 97.5 27 140.5s43.5 80.667 76.5 113s71.667 57.333 116 75s92.5 26.5 144.5 26.5s100.167 -8.83301 144.5 -26.5s82.833 -42.5 115.5 -74.5
s58.167 -69.5 76.5 -112.5s27.5 -90.167 27.5 -141.5s-9.16699 -98.5 -27.5 -141.5s-43.833 -80.5 -76.5 -112.5s-71.167 -56.833 -115.5 -74.5s-92.5 -26.5 -144.5 -26.5zM419 42c44.667 0 86 7.66699 124 23s71 37 99 65s49.833 60.667 65.5 98s23.5 78 23.5 122
c0 44.667 -7.83301 85.5 -23.5 122.5s-37.5 69.5 -65.5 97.5s-61 49.667 -99 65s-79.333 23 -124 23s-86 -7.66699 -124 -23s-71.167 -37 -99.5 -65s-50.333 -60.5 -66 -97.5s-23.5 -77.833 -23.5 -122.5c0 -44 7.83301 -84.667 23.5 -122s37.667 -70 66 -98
s61.5 -49.667 99.5 -65s79.333 -23 124 -23zM485 765c-14.667 0 -27.8389 3.49902 -39.5059 10.499s-22.167 15 -31.5 24s-18.666 17 -27.999 24s-19.333 10.5 -30 10.5c-15.333 0 -27.666 -5.83301 -36.999 -17.5s-14.666 -27.5 -15.999 -47.5h-33
c1.33301 30 9.5 54.167 24.5 72.5s34.5 27.5 58.5 27.5c14.667 0 27.834 -3.5 39.501 -10.5s22.334 -15 32.001 -24s19 -17 28 -24s18.833 -10.5 29.5 -10.5c15.333 0 27.833 5.83301 37.5 17.5s14.834 26.834 15.501 45.501h33
c-0.666992 -28.667 -8.66699 -52.167 -24 -70.5s-35 -27.5 -59 -27.5z" />
    <glyph glyph-name="Odieresis" unicode="&#xd6;" horiz-adv-x="838" 
d="M419 -5c-52 0 -100.167 8.83301 -144.5 26.5s-83 42.667 -116 75s-58.5 70 -76.5 113s-27 89.833 -27 140.5s9 97.5 27 140.5s43.5 80.667 76.5 113s71.667 57.333 116 75s92.5 26.5 144.5 26.5s100.167 -8.83301 144.5 -26.5s82.833 -42.5 115.5 -74.5
s58.167 -69.5 76.5 -112.5s27.5 -90.167 27.5 -141.5s-9.16699 -98.5 -27.5 -141.5s-43.833 -80.5 -76.5 -112.5s-71.167 -56.833 -115.5 -74.5s-92.5 -26.5 -144.5 -26.5zM419 42c44.667 0 86 7.66699 124 23s71 37 99 65s49.833 60.667 65.5 98s23.5 78 23.5 122
c0 44.667 -7.83301 85.5 -23.5 122.5s-37.5 69.5 -65.5 97.5s-61 49.667 -99 65s-79.333 23 -124 23s-86 -7.66699 -124 -23s-71.167 -37 -99.5 -65s-50.333 -60.5 -66 -97.5s-23.5 -77.833 -23.5 -122.5c0 -44 7.83301 -84.667 23.5 -122s37.667 -70 66 -98
s61.5 -49.667 99.5 -65s79.333 -23 124 -23zM505 784c-9.33301 0 -17.666 3.5 -24.999 10.5s-11 15.5 -11 25.5c0 10.667 3.66699 19.334 11 26.001s15.666 10 24.999 10c10 0 18.5 -3.33301 25.5 -10s10.5 -15.334 10.5 -26.001c0 -10 -3.5 -18.5 -10.5 -25.5
s-15.5 -10.5 -25.5 -10.5zM333 784c-10 0 -18.5 3.5 -25.5 10.5s-10.5 15.5 -10.5 25.5c0 10.667 3.5 19.334 10.5 26.001s15.5 10 25.5 10s18.5 -3.33301 25.5 -10s10.5 -15.334 10.5 -26.001c0 -10 -3.5 -18.5 -10.5 -25.5s-15.5 -10.5 -25.5 -10.5z" />
    <glyph glyph-name="multiply" unicode="&#xd7;" horiz-adv-x="569" 
d="M120 215l300 301l29 -31l-300 -301zM120 485l29 31l300 -301l-29 -31z" />
    <glyph glyph-name="Oslash" unicode="&#xd8;" horiz-adv-x="838" 
d="M419 -5c-52 0 -100.167 8.83301 -144.5 26.5s-83 42.667 -116 75s-58.5 70 -76.5 113s-27 89.833 -27 140.5s9 97.5 27 140.5s43.5 80.667 76.5 113s71.667 57.333 116 75s92.5 26.5 144.5 26.5s100.167 -8.83301 144.5 -26.5s82.833 -42.5 115.5 -74.5
s58.167 -69.5 76.5 -112.5s27.5 -90.167 27.5 -141.5s-9.16699 -98.5 -27.5 -141.5s-43.833 -80.5 -76.5 -112.5s-71.167 -56.833 -115.5 -74.5s-92.5 -26.5 -144.5 -26.5zM419 42c44.667 0 86 7.66699 124 23s71 37 99 65s49.833 60.667 65.5 98s23.5 78 23.5 122
c0 44.667 -7.83301 85.5 -23.5 122.5s-37.5 69.5 -65.5 97.5s-61 49.667 -99 65s-79.333 23 -124 23s-86 -7.66699 -124 -23s-71.167 -37 -99.5 -65s-50.333 -60.5 -66 -97.5s-23.5 -77.833 -23.5 -122.5c0 -44 7.83301 -84.667 23.5 -122s37.667 -70 66 -98
s61.5 -49.667 99.5 -65s79.333 -23 124 -23zM92 -70l610 840h45l-610 -840h-45z" />
    <glyph glyph-name="Ugrave" unicode="&#xd9;" horiz-adv-x="793" 
d="M396 -5c-86.667 0 -155 25.333 -205 76s-75 126 -75 226v403h51v-401c0 -87.333 20 -152 60 -194s96.667 -63 170 -63c72.667 0 129 21 169 63s60 106.667 60 194v401h51v-403c0 -100 -25 -175.333 -75 -226s-118.667 -76 -206 -76zM400 757l-157 118h72l139 -118h-54z
" />
    <glyph glyph-name="Uacute" unicode="&#xda;" horiz-adv-x="793" 
d="M396 -5c-86.667 0 -155 25.333 -205 76s-75 126 -75 226v403h51v-401c0 -87.333 20 -152 60 -194s96.667 -63 170 -63c72.667 0 129 21 169 63s60 106.667 60 194v401h51v-403c0 -100 -25 -175.333 -75 -226s-118.667 -76 -206 -76zM340 757l139 118h72l-157 -118h-54z
" />
    <glyph glyph-name="Ucircumflex" unicode="&#xdb;" horiz-adv-x="793" 
d="M396 -5c-86.667 0 -155 25.333 -205 76s-75 126 -75 226v403h51v-401c0 -87.333 20 -152 60 -194s96.667 -63 170 -63c72.667 0 129 21 169 63s60 106.667 60 194v401h51v-403c0 -100 -25 -175.333 -75 -226s-118.667 -76 -206 -76zM243 757l126 118h56l126 -118h-50
l-122 102h36l-122 -102h-50z" />
    <glyph glyph-name="Udieresis" unicode="&#xdc;" horiz-adv-x="793" 
d="M396 -5c-86.667 0 -155 25.333 -205 76s-75 126 -75 226v403h51v-401c0 -87.333 20 -152 60 -194s96.667 -63 170 -63c72.667 0 129 21 169 63s60 106.667 60 194v401h51v-403c0 -100 -25 -175.333 -75 -226s-118.667 -76 -206 -76zM483 784
c-9.33301 0 -17.666 3.5 -24.999 10.5s-11 15.5 -11 25.5c0 10.667 3.66699 19.334 11 26.001s15.666 10 24.999 10c10 0 18.5 -3.33301 25.5 -10s10.5 -15.334 10.5 -26.001c0 -10 -3.5 -18.5 -10.5 -25.5s-15.5 -10.5 -25.5 -10.5zM311 784c-10 0 -18.5 3.5 -25.5 10.5
s-10.5 15.5 -10.5 25.5c0 10.667 3.5 19.334 10.5 26.001s15.5 10 25.5 10s18.5 -3.33301 25.5 -10s10.5 -15.334 10.5 -26.001c0 -10 -3.5 -18.5 -10.5 -25.5s-15.5 -10.5 -25.5 -10.5z" />
    <glyph glyph-name="Yacute" unicode="&#xdd;" horiz-adv-x="625" 
d="M287 0v254l12 -33l-294 479h56l267 -435h-28l267 435h53l-294 -479l12 33v-254h-51zM255 757l139 118h72l-157 -118h-54z" />
    <glyph glyph-name="Thorn" unicode="&#xde;" horiz-adv-x="715" 
d="M159 133v45.999h214c75.333 0 132.5 16.667 171.5 50s58.5 80.333 58.5 141s-19.5 107.5 -58.5 140.5s-96.167 49.5 -171.5 49.5h-214v45h214c58.667 0 109 -9.33301 151 -28s74.333 -45.5 97 -80.5s34 -77.167 34 -126.5s-11.333 -91.666 -34 -126.999
s-55 -62.5 -97 -81.5s-92.333 -28.5 -151 -28.5h-214zM122 -0.000976562v700h51v-700h-51z" />
    <glyph glyph-name="germandbls" unicode="&#xdf;" horiz-adv-x="661" 
d="M379 -4c-19.333 0 -38.667 1.33301 -58 4s-36.666 6.33398 -51.999 11.001l10 44c14.667 -4.66699 29.834 -8.33398 45.501 -11.001s33.167 -4 52.5 -4c36 0 67.833 6.16699 95.5 18.5s49.5 30.333 65.5 54s24 52.167 24 85.5c0 50 -17.5 88.667 -52.5 116
s-80.5 41 -136.5 41h-58v43c59.333 0.666992 105.833 15.5 139.5 44.5s50.5 67.833 50.5 116.5c0 42 -14.667 76.333 -44 103s-70.333 40 -123 40c-54.667 0 -98.667 -16.5 -132 -49.5s-50 -82.167 -50 -147.5v-505h-50v502c0 54 9.83301 99 29.5 135s47 63.167 82 81.5
s75.167 27.5 120.5 27.5c44.667 0 83.167 -8 115.5 -24s57.166 -38 74.499 -66s26 -59.667 26 -95c0 -30 -5.66699 -56.833 -17 -80.5s-26.333 -43.667 -45 -60s-39.667 -28.833 -63 -37.5s-47 -13 -71 -13l27 22c44 0 83.167 -7.66699 117.5 -23s61.166 -37.5 80.499 -66.5
s29 -64.167 29 -105.5c0 -42 -10.333 -78 -31 -108s-48.5 -53 -83.5 -69s-74.5 -24 -118.5 -24z" />
    <glyph glyph-name="agrave" unicode="&#xe0;" horiz-adv-x="583" 
d="M435 0l-0.000976562 119l-2 18v196c0 48.667 -13.167 85.667 -39.5 111s-64.833 38 -115.5 38c-36 0 -69.5 -6.16699 -100.5 -18.5s-57.5 -28.166 -79.5 -47.499l-25 36c26 23.333 57.333 41.5 94 54.5s75 19.5 115 19.5c64.667 0 114.334 -16.333 149.001 -49
s52 -81.334 52 -146.001v-331h-48zM246.999 -4c-38.667 0 -72.167 6.16504 -100.5 18.498s-50 29.833 -65 52.5s-22.5 48.667 -22.5 78c0 26.667 6.16699 50.834 18.5 72.501s32.833 39.334 61.5 53.001s67 20.5 115 20.5h192v-39h-191c-54 0 -91.833 -10 -113.5 -30
s-32.5 -45 -32.5 -75c0 -33.333 12.667 -60 38 -80s61 -30 107 -30c44 0 81.167 10 111.5 30s52.833 49 67.5 87l14 -34c-14 -38 -37.833 -68.167 -71.5 -90.5s-76.5 -33.5 -128.5 -33.5zM282.999 606.998l-157 118h72l139 -118h-54z" />
    <glyph glyph-name="aacute" unicode="&#xe1;" horiz-adv-x="583" 
d="M435 0l-0.000976562 119l-2 18v196c0 48.667 -13.167 85.667 -39.5 111s-64.833 38 -115.5 38c-36 0 -69.5 -6.16699 -100.5 -18.5s-57.5 -28.166 -79.5 -47.499l-25 36c26 23.333 57.333 41.5 94 54.5s75 19.5 115 19.5c64.667 0 114.334 -16.333 149.001 -49
s52 -81.334 52 -146.001v-331h-48zM246.999 -4c-38.667 0 -72.167 6.16504 -100.5 18.498s-50 29.833 -65 52.5s-22.5 48.667 -22.5 78c0 26.667 6.16699 50.834 18.5 72.501s32.833 39.334 61.5 53.001s67 20.5 115 20.5h192v-39h-191c-54 0 -91.833 -10 -113.5 -30
s-32.5 -45 -32.5 -75c0 -33.333 12.667 -60 38 -80s61 -30 107 -30c44 0 81.167 10 111.5 30s52.833 49 67.5 87l14 -34c-14 -38 -37.833 -68.167 -71.5 -90.5s-76.5 -33.5 -128.5 -33.5zM222.999 606.998l139 118h72l-157 -118h-54z" />
    <glyph glyph-name="acircumflex" unicode="&#xe2;" horiz-adv-x="583" 
d="M435 0l-0.000976562 119l-2 18v196c0 48.667 -13.167 85.667 -39.5 111s-64.833 38 -115.5 38c-36 0 -69.5 -6.16699 -100.5 -18.5s-57.5 -28.166 -79.5 -47.499l-25 36c26 23.333 57.333 41.5 94 54.5s75 19.5 115 19.5c64.667 0 114.334 -16.333 149.001 -49
s52 -81.334 52 -146.001v-331h-48zM246.999 -4c-38.667 0 -72.167 6.16504 -100.5 18.498s-50 29.833 -65 52.5s-22.5 48.667 -22.5 78c0 26.667 6.16699 50.834 18.5 72.501s32.833 39.334 61.5 53.001s67 20.5 115 20.5h192v-39h-191c-54 0 -91.833 -10 -113.5 -30
s-32.5 -45 -32.5 -75c0 -33.333 12.667 -60 38 -80s61 -30 107 -30c44 0 81.167 10 111.5 30s52.833 49 67.5 87l14 -34c-14 -38 -37.833 -68.167 -71.5 -90.5s-76.5 -33.5 -128.5 -33.5zM125.999 606.998l126 118h56l126 -118h-50l-122 102h36l-122 -102h-50z" />
    <glyph glyph-name="atilde" unicode="&#xe3;" horiz-adv-x="583" 
d="M435 0l-0.000976562 119l-2 18v196c0 48.667 -13.167 85.667 -39.5 111s-64.833 38 -115.5 38c-36 0 -69.5 -6.16699 -100.5 -18.5s-57.5 -28.166 -79.5 -47.499l-25 36c26 23.333 57.333 41.5 94 54.5s75 19.5 115 19.5c64.667 0 114.334 -16.333 149.001 -49
s52 -81.334 52 -146.001v-331h-48zM246.999 -4c-38.667 0 -72.167 6.16504 -100.5 18.498s-50 29.833 -65 52.5s-22.5 48.667 -22.5 78c0 26.667 6.16699 50.834 18.5 72.501s32.833 39.334 61.5 53.001s67 20.5 115 20.5h192v-39h-191c-54 0 -91.833 -10 -113.5 -30
s-32.5 -45 -32.5 -75c0 -33.333 12.667 -60 38 -80s61 -30 107 -30c44 0 81.167 10 111.5 30s52.833 49 67.5 87l14 -34c-14 -38 -37.833 -68.167 -71.5 -90.5s-76.5 -33.5 -128.5 -33.5zM345.999 614.998c-14.667 0 -27.8389 3.49902 -39.5059 10.499s-22.167 15 -31.5 24
s-18.666 17 -27.999 24s-19.333 10.5 -30 10.5c-15.333 0 -27.666 -5.83301 -36.999 -17.5s-14.666 -27.5 -15.999 -47.5h-33c1.33301 30 9.5 54.167 24.5 72.5s34.5 27.5 58.5 27.5c14.667 0 27.834 -3.5 39.501 -10.5s22.334 -15 32.001 -24s19 -17 28 -24
s18.833 -10.5 29.5 -10.5c15.333 0 27.833 5.83301 37.5 17.5s14.834 26.834 15.501 45.501h33c-0.666992 -28.667 -8.66699 -52.167 -24 -70.5s-35 -27.5 -59 -27.5z" />
    <glyph glyph-name="adieresis" unicode="&#xe4;" horiz-adv-x="583" 
d="M435 0l-0.000976562 119l-2 18v196c0 48.667 -13.167 85.667 -39.5 111s-64.833 38 -115.5 38c-36 0 -69.5 -6.16699 -100.5 -18.5s-57.5 -28.166 -79.5 -47.499l-25 36c26 23.333 57.333 41.5 94 54.5s75 19.5 115 19.5c64.667 0 114.334 -16.333 149.001 -49
s52 -81.334 52 -146.001v-331h-48zM246.999 -4c-38.667 0 -72.167 6.16504 -100.5 18.498s-50 29.833 -65 52.5s-22.5 48.667 -22.5 78c0 26.667 6.16699 50.834 18.5 72.501s32.833 39.334 61.5 53.001s67 20.5 115 20.5h192v-39h-191c-54 0 -91.833 -10 -113.5 -30
s-32.5 -45 -32.5 -75c0 -33.333 12.667 -60 38 -80s61 -30 107 -30c44 0 81.167 10 111.5 30s52.833 49 67.5 87l14 -34c-14 -38 -37.833 -68.167 -71.5 -90.5s-76.5 -33.5 -128.5 -33.5zM365.999 633.998c-9.33301 0 -17.666 3.5 -24.999 10.5s-11 15.5 -11 25.5
c0 10.667 3.66699 19.334 11 26.001s15.666 10 24.999 10c10 0 18.5 -3.33301 25.5 -10s10.5 -15.334 10.5 -26.001c0 -10 -3.5 -18.5 -10.5 -25.5s-15.5 -10.5 -25.5 -10.5zM193.999 633.998c-10 0 -18.5 3.5 -25.5 10.5s-10.5 15.5 -10.5 25.5
c0 10.667 3.5 19.334 10.5 26.001s15.5 10 25.5 10s18.5 -3.33301 25.5 -10s10.5 -15.334 10.5 -26.001c0 -10 -3.5 -18.5 -10.5 -25.5s-15.5 -10.5 -25.5 -10.5z" />
    <glyph glyph-name="aring" unicode="&#xe5;" horiz-adv-x="583" 
d="M435 0l-0.000976562 119l-2 18v196c0 48.667 -13.167 85.667 -39.5 111s-64.833 38 -115.5 38c-36 0 -69.5 -6.16699 -100.5 -18.5s-57.5 -28.166 -79.5 -47.499l-25 36c26 23.333 57.333 41.5 94 54.5s75 19.5 115 19.5c64.667 0 114.334 -16.333 149.001 -49
s52 -81.334 52 -146.001v-331h-48zM246.999 -4c-38.667 0 -72.167 6.16504 -100.5 18.498s-50 29.833 -65 52.5s-22.5 48.667 -22.5 78c0 26.667 6.16699 50.834 18.5 72.501s32.833 39.334 61.5 53.001s67 20.5 115 20.5h192v-39h-191c-54 0 -91.833 -10 -113.5 -30
s-32.5 -45 -32.5 -75c0 -33.333 12.667 -60 38 -80s61 -30 107 -30c44 0 81.167 10 111.5 30s52.833 49 67.5 87l14 -34c-14 -38 -37.833 -68.167 -71.5 -90.5s-76.5 -33.5 -128.5 -33.5zM278.999 595.998c-19.333 0 -36.332 4.5 -50.999 13.5s-26.334 20.833 -35.001 35.5
s-13 30.667 -13 48c0 18 4.33301 34.5 13 49.5s20.5 27.167 35.5 36.5s31.833 14 50.5 14c19.333 0 36.5 -4.66699 51.5 -14s26.833 -21.5 35.5 -36.5s13 -31.5 13 -49.5c0 -17.333 -4.33301 -33.333 -13 -48s-20.5 -26.5 -35.5 -35.5s-32.167 -13.5 -51.5 -13.5z
M279 623.998c20.667 0 37.499 6.66699 50.499 20s19.5 29.666 19.5 48.999s-6.5 36 -19.5 50s-29.833 21 -50.5 21c-20 0 -36.5 -6.83301 -49.5 -20.5s-19.5 -30.5 -19.5 -50.5c0 -19.333 6.33301 -35.666 19 -48.999s29.334 -20 50.001 -20z" />
    <glyph glyph-name="ae" unicode="&#xe6;" horiz-adv-x="983" 
d="M251 -4c-60.667 0 -107.84 13.8291 -141.507 41.4961s-50.5 64.167 -50.5 109.5c0 25.333 6.16699 48.666 18.5 69.999s32.833 38.833 61.5 52.5s67 20.5 115 20.5h189v-39h-188c-54 0 -91.833 -9.83301 -113.5 -29.5s-32.5 -44.167 -32.5 -73.5
c0 -34 12.833 -61 38.5 -81s61.167 -30 106.5 -30c54 0 97.333 14.333 130 43s49 69.334 49 122.001v131c0 48.667 -13.167 85.667 -39.5 111s-64.833 38 -115.5 38c-36 0 -69.5 -6.16699 -100.5 -18.5s-57.5 -28.166 -79.5 -47.499l-25 36c26 23.333 57.333 41.5 94 54.5
s74.667 19.5 114 19.5c59.333 0 105.5 -13.333 138.5 -40s52.5 -66.667 58.5 -120l-20 8c18.667 46 47.834 82.833 87.501 110.5s85.834 41.5 138.501 41.5c36 0 69 -6.33301 99 -19s56.333 -30.667 79 -54s40.334 -50.666 53.001 -81.999s19 -66 19 -104
c0 -3.33301 -0.166992 -6.16602 -0.5 -8.49902s-0.5 -4.83301 -0.5 -7.5h-460v39h433l-21 -21c0.666992 42.667 -8.16602 80 -26.499 112s-42.666 56.833 -72.999 74.5s-64.166 26.5 -101.499 26.5s-71.166 -8.83301 -101.499 -26.5s-54.5 -42.667 -72.5 -75
s-27 -69.833 -27 -112.5v-9c0 -42.667 9.5 -80.5 28.5 -113.5s45 -58.667 78 -77s71.167 -27.5 114.5 -27.5c33.333 0 64.333 6 93 18s53.334 30.333 74.001 55l30 -33c-23.333 -28 -52.166 -49.167 -86.499 -63.5s-71.5 -21.5 -111.5 -21.5
c-38.667 0 -75.334 6.83301 -110.001 20.5s-64.834 34.334 -90.501 62.001s-45.167 62.5 -58.5 104.5l32 -1c-4.66699 -45.333 -18.167 -81.5 -40.5 -108.5s-49.5 -46.667 -81.5 -59s-66.333 -18.5 -103 -18.5z" />
    <glyph glyph-name="ccedilla" unicode="&#xe7;" horiz-adv-x="555" 
d="M313 -4c-50.667 0 -95.834 11.3311 -135.501 33.998s-71 54 -94 94s-34.5 85.667 -34.5 137c0 52 11.5 98 34.5 138s54.333 71.167 94 93.5s84.834 33.5 135.501 33.5c42 0 80.167 -8 114.5 -24s62.166 -40 83.499 -72l-37 -27c-18.667 26.667 -42 46.334 -70 59.001
s-58.333 19 -91 19c-40.667 0 -77.167 -9.16699 -109.5 -27.5s-57.666 -44 -75.999 -77s-27.5 -71.5 -27.5 -115.5s9.16699 -82.5 27.5 -115.5s43.666 -58.667 75.999 -77s68.833 -27.5 109.5 -27.5c32.667 0 63 6.33301 91 19s51.333 32.334 70 59.001l37 -27
c-21.333 -32 -49.166 -56 -83.499 -72s-72.5 -24 -114.5 -24zM275 -217.002c-15.333 0 -29.5 2.00098 -42.5 6.00098s-25.167 10.333 -36.5 19l14 28c9.33301 -6.66699 19.5 -11.834 30.5 -15.501s22.5 -5.5 34.5 -5.5c20 0 36 4.66699 48 14s18 22.333 18 39
c0 14.667 -5.66699 26.834 -17 36.501s-27.666 14.5 -48.999 14.5h-20l23 87h33l-16 -60c26.667 -1.33301 47.5 -9.33301 62.5 -24s22.5 -33.334 22.5 -56.001c0 -25.333 -9.83301 -45.5 -29.5 -60.5s-44.834 -22.5 -75.501 -22.5z" />
    <glyph glyph-name="egrave" unicode="&#xe8;" horiz-adv-x="597" 
d="M318 -4c-52.667 0 -99.1689 11.3311 -139.502 33.998s-72 54 -95 94s-34.5 85.667 -34.5 137c0 52 10.833 97.833 32.5 137.5s51.5 70.834 89.5 93.501s80.667 34 128 34s89.833 -11 127.5 -33s67.334 -52.833 89.001 -92.5s32.5 -85.5 32.5 -137.5
c0 -2 -0.166992 -4.16699 -0.5 -6.5s-0.5 -4.83301 -0.5 -7.5h-461v39h434l-20 -19c0.666992 40.667 -7.83301 77.167 -25.5 109.5s-41.5 57.666 -71.5 75.999s-64.667 27.5 -104 27.5c-38.667 0 -73.167 -9.16699 -103.5 -27.5s-54.166 -43.666 -71.499 -75.999
s-26 -69.166 -26 -110.499v-9c0 -42.667 9.5 -80.5 28.5 -113.5s45.167 -58.667 78.5 -77s71.333 -27.5 114 -27.5c33.333 0 64.5 6 93.5 18s53.5 30.333 73.5 55l29 -33c-22.667 -28 -51.167 -49.167 -85.5 -63.5s-71.5 -21.5 -111.5 -21.5zM301.998 606.998l-157 118h72
l139 -118h-54z" />
    <glyph glyph-name="eacute" unicode="&#xe9;" horiz-adv-x="597" 
d="M318 -4c-52.667 0 -99.1689 11.3311 -139.502 33.998s-72 54 -95 94s-34.5 85.667 -34.5 137c0 52 10.833 97.833 32.5 137.5s51.5 70.834 89.5 93.501s80.667 34 128 34s89.833 -11 127.5 -33s67.334 -52.833 89.001 -92.5s32.5 -85.5 32.5 -137.5
c0 -2 -0.166992 -4.16699 -0.5 -6.5s-0.5 -4.83301 -0.5 -7.5h-461v39h434l-20 -19c0.666992 40.667 -7.83301 77.167 -25.5 109.5s-41.5 57.666 -71.5 75.999s-64.667 27.5 -104 27.5c-38.667 0 -73.167 -9.16699 -103.5 -27.5s-54.166 -43.666 -71.499 -75.999
s-26 -69.166 -26 -110.499v-9c0 -42.667 9.5 -80.5 28.5 -113.5s45.167 -58.667 78.5 -77s71.333 -27.5 114 -27.5c33.333 0 64.5 6 93.5 18s53.5 30.333 73.5 55l29 -33c-22.667 -28 -51.167 -49.167 -85.5 -63.5s-71.5 -21.5 -111.5 -21.5zM241.998 606.998l139 118h72
l-157 -118h-54z" />
    <glyph glyph-name="ecircumflex" unicode="&#xea;" horiz-adv-x="597" 
d="M318 -4c-52.667 0 -99.1689 11.3311 -139.502 33.998s-72 54 -95 94s-34.5 85.667 -34.5 137c0 52 10.833 97.833 32.5 137.5s51.5 70.834 89.5 93.501s80.667 34 128 34s89.833 -11 127.5 -33s67.334 -52.833 89.001 -92.5s32.5 -85.5 32.5 -137.5
c0 -2 -0.166992 -4.16699 -0.5 -6.5s-0.5 -4.83301 -0.5 -7.5h-461v39h434l-20 -19c0.666992 40.667 -7.83301 77.167 -25.5 109.5s-41.5 57.666 -71.5 75.999s-64.667 27.5 -104 27.5c-38.667 0 -73.167 -9.16699 -103.5 -27.5s-54.166 -43.666 -71.499 -75.999
s-26 -69.166 -26 -110.499v-9c0 -42.667 9.5 -80.5 28.5 -113.5s45.167 -58.667 78.5 -77s71.333 -27.5 114 -27.5c33.333 0 64.5 6 93.5 18s53.5 30.333 73.5 55l29 -33c-22.667 -28 -51.167 -49.167 -85.5 -63.5s-71.5 -21.5 -111.5 -21.5zM144.998 606.998l126 118h56
l126 -118h-50l-122 102h36l-122 -102h-50z" />
    <glyph glyph-name="edieresis" unicode="&#xeb;" horiz-adv-x="597" 
d="M318 -4c-52.667 0 -99.1689 11.3311 -139.502 33.998s-72 54 -95 94s-34.5 85.667 -34.5 137c0 52 10.833 97.833 32.5 137.5s51.5 70.834 89.5 93.501s80.667 34 128 34s89.833 -11 127.5 -33s67.334 -52.833 89.001 -92.5s32.5 -85.5 32.5 -137.5
c0 -2 -0.166992 -4.16699 -0.5 -6.5s-0.5 -4.83301 -0.5 -7.5h-461v39h434l-20 -19c0.666992 40.667 -7.83301 77.167 -25.5 109.5s-41.5 57.666 -71.5 75.999s-64.667 27.5 -104 27.5c-38.667 0 -73.167 -9.16699 -103.5 -27.5s-54.166 -43.666 -71.499 -75.999
s-26 -69.166 -26 -110.499v-9c0 -42.667 9.5 -80.5 28.5 -113.5s45.167 -58.667 78.5 -77s71.333 -27.5 114 -27.5c33.333 0 64.5 6 93.5 18s53.5 30.333 73.5 55l29 -33c-22.667 -28 -51.167 -49.167 -85.5 -63.5s-71.5 -21.5 -111.5 -21.5zM384.998 633.998
c-9.33301 0 -17.666 3.5 -24.999 10.5s-11 15.5 -11 25.5c0 10.667 3.66699 19.334 11 26.001s15.666 10 24.999 10c10 0 18.5 -3.33301 25.5 -10s10.5 -15.334 10.5 -26.001c0 -10 -3.5 -18.5 -10.5 -25.5s-15.5 -10.5 -25.5 -10.5zM212.998 633.998
c-10 0 -18.5 3.5 -25.5 10.5s-10.5 15.5 -10.5 25.5c0 10.667 3.5 19.334 10.5 26.001s15.5 10 25.5 10s18.5 -3.33301 25.5 -10s10.5 -15.334 10.5 -26.001c0 -10 -3.5 -18.5 -10.5 -25.5s-15.5 -10.5 -25.5 -10.5z" />
    <glyph glyph-name="igrave" unicode="&#xec;" horiz-adv-x="261" 
d="M106 0v522h50v-522h-50zM134 607l-157 118h72l139 -118h-54z" />
    <glyph glyph-name="iacute" unicode="&#xed;" horiz-adv-x="261" 
d="M106 0v522h50v-522h-50zM74 607l139 118h72l-157 -118h-54z" />
    <glyph glyph-name="icircumflex" unicode="&#xee;" horiz-adv-x="261" 
d="M106 0v522h50v-522h-50zM2 607l102 118h54l102 -118h-49l-95 102h30l-95 -102h-49z" />
    <glyph glyph-name="idieresis" unicode="&#xef;" horiz-adv-x="261" 
d="M106 0v522h50v-522h-50zM193 635c-9.33301 0 -17.5 3.50098 -24.5 10.501s-10.5 15.167 -10.5 24.5c0 10 3.5 18.5 10.5 25.5s15.167 10.5 24.5 10.5c10 0 18.333 -3.33301 25 -10s10 -15.334 10 -26.001c0 -9.33301 -3.33301 -17.5 -10 -24.5s-15 -10.5 -25 -10.5z
M69 635.001c-9.33301 0 -17.5 3.50098 -24.5 10.501s-10.5 15.167 -10.5 24.5c0 10 3.5 18.5 10.5 25.5s15.167 10.5 24.5 10.5c10 0 18.333 -3.33301 25 -10s10 -15.334 10 -26.001c0 -9.33301 -3.33301 -17.5 -10 -24.5s-15 -10.5 -25 -10.5z" />
    <glyph glyph-name="eth" unicode="&#xf0;" horiz-adv-x="627" 
d="M289 -5c-46 0 -87.167 9.00098 -123.5 27.001s-64.833 43.5 -85.5 76.5s-31 71.833 -31 116.5c0 44 10.333 82.333 31 115s49.5 58.167 86.5 76.5s79.833 27.5 128.5 27.5c41.333 0 79 -8 113 -24s61.833 -39 83.5 -69s34.5 -66.667 38.5 -110l-19 -5
c6.66699 22.667 11 46 13 70s3 44.667 3 62c0 68 -11.167 125 -33.5 171s-53.833 80.833 -94.5 104.5s-88.667 35.5 -144 35.5c-28.667 0 -55.5 -2.16699 -80.5 -6.5s-47.5 -9.5 -67.5 -15.5l-10 44c20 5.33301 43.667 10.166 71 14.499s56.333 6.5 87 6.5
c64.667 0 121.167 -13.667 169.5 -41s85.833 -68 112.5 -122s40 -121 40 -201c0 -71.333 -10.833 -133.5 -32.5 -186.5s-54 -94 -97 -123s-95.833 -43.5 -158.5 -43.5zM292 39.001c44 0 81.3311 8.50195 111.998 25.502s53.834 39 69.501 66s23.5 55.167 23.5 84.5
c0 32.667 -8.5 62.167 -25.5 88.5s-40.167 47.333 -69.5 63s-63.666 23.5 -102.999 23.5c-62 0 -110.667 -16.167 -146 -48.5s-53 -74.5 -53 -126.5c0 -34.667 8 -65.334 24 -92.001s38.5 -47.334 67.5 -62.001s62.5 -22 100.5 -22zM149.998 505.003l-15 36l383 164l15 -36z
" />
    <glyph glyph-name="ntilde" unicode="&#xf1;" horiz-adv-x="673" 
d="M361 526c42.667 0 79.832 -8.16797 111.499 -24.501s56.334 -41 74.001 -74s26.5 -73.833 26.5 -122.5v-305h-50v301c0 58.667 -14.833 103.334 -44.5 134.001s-71.167 46 -124.5 46c-40.667 0 -76 -8.33301 -106 -25s-52.833 -40 -68.5 -70s-23.5 -66 -23.5 -108v-278
h-50v522h48v-145l-7 16c16 41.333 42.333 73.833 79 97.5s81.667 35.5 135 35.5zM403.998 614.999c-14.667 0 -27.8389 3.49902 -39.5059 10.499s-22.167 15 -31.5 24s-18.666 17 -27.999 24s-19.333 10.5 -30 10.5c-15.333 0 -27.666 -5.83301 -36.999 -17.5
s-14.666 -27.5 -15.999 -47.5h-33c1.33301 30 9.5 54.167 24.5 72.5s34.5 27.5 58.5 27.5c14.667 0 27.834 -3.5 39.501 -10.5s22.334 -15 32.001 -24s19 -17 28 -24s18.833 -10.5 29.5 -10.5c15.333 0 27.833 5.83301 37.5 17.5s14.834 26.834 15.501 45.501h33
c-0.666992 -28.667 -8.66699 -52.167 -24 -70.5s-35 -27.5 -59 -27.5z" />
    <glyph glyph-name="ograve" unicode="&#xf2;" horiz-adv-x="620" 
d="M310 -4c-50 0 -94.5 11.333 -133.5 34s-70 54 -93 94s-34.5 85.667 -34.5 137c0 52 11.5 97.833 34.5 137.5s54 70.834 93 93.501s83.5 34 133.5 34s94.667 -11.333 134 -34s70.333 -53.834 93 -93.501s34 -85.5 34 -137.5c0 -51.333 -11.333 -97 -34 -137
s-53.667 -71.333 -93 -94s-84 -34 -134 -34zM310 41c40 0 76 9.16699 108 27.5s57 44.166 75 77.499s27 71.666 27 114.999c0 44 -9 82.5 -27 115.5s-43 58.667 -75 77s-68 27.5 -108 27.5s-75.833 -9.16699 -107.5 -27.5s-56.667 -44 -75 -77s-27.5 -71.5 -27.5 -115.5
c0 -43.333 9.16699 -81.666 27.5 -114.999s43.333 -59.166 75 -77.499s67.5 -27.5 107.5 -27.5zM313 607l-157 118h72l139 -118h-54z" />
    <glyph glyph-name="oacute" unicode="&#xf3;" horiz-adv-x="620" 
d="M310 -4c-50 0 -94.5 11.333 -133.5 34s-70 54 -93 94s-34.5 85.667 -34.5 137c0 52 11.5 97.833 34.5 137.5s54 70.834 93 93.501s83.5 34 133.5 34s94.667 -11.333 134 -34s70.333 -53.834 93 -93.501s34 -85.5 34 -137.5c0 -51.333 -11.333 -97 -34 -137
s-53.667 -71.333 -93 -94s-84 -34 -134 -34zM310 41c40 0 76 9.16699 108 27.5s57 44.166 75 77.499s27 71.666 27 114.999c0 44 -9 82.5 -27 115.5s-43 58.667 -75 77s-68 27.5 -108 27.5s-75.833 -9.16699 -107.5 -27.5s-56.667 -44 -75 -77s-27.5 -71.5 -27.5 -115.5
c0 -43.333 9.16699 -81.666 27.5 -114.999s43.333 -59.166 75 -77.499s67.5 -27.5 107.5 -27.5zM253 607l139 118h72l-157 -118h-54z" />
    <glyph glyph-name="ocircumflex" unicode="&#xf4;" horiz-adv-x="620" 
d="M310 -4c-50 0 -94.5 11.333 -133.5 34s-70 54 -93 94s-34.5 85.667 -34.5 137c0 52 11.5 97.833 34.5 137.5s54 70.834 93 93.501s83.5 34 133.5 34s94.667 -11.333 134 -34s70.333 -53.834 93 -93.501s34 -85.5 34 -137.5c0 -51.333 -11.333 -97 -34 -137
s-53.667 -71.333 -93 -94s-84 -34 -134 -34zM310 41c40 0 76 9.16699 108 27.5s57 44.166 75 77.499s27 71.666 27 114.999c0 44 -9 82.5 -27 115.5s-43 58.667 -75 77s-68 27.5 -108 27.5s-75.833 -9.16699 -107.5 -27.5s-56.667 -44 -75 -77s-27.5 -71.5 -27.5 -115.5
c0 -43.333 9.16699 -81.666 27.5 -114.999s43.333 -59.166 75 -77.499s67.5 -27.5 107.5 -27.5zM156 607l126 118h56l126 -118h-50l-122 102h36l-122 -102h-50z" />
    <glyph glyph-name="otilde" unicode="&#xf5;" horiz-adv-x="620" 
d="M310 -4c-50 0 -94.5 11.333 -133.5 34s-70 54 -93 94s-34.5 85.667 -34.5 137c0 52 11.5 97.833 34.5 137.5s54 70.834 93 93.501s83.5 34 133.5 34s94.667 -11.333 134 -34s70.333 -53.834 93 -93.501s34 -85.5 34 -137.5c0 -51.333 -11.333 -97 -34 -137
s-53.667 -71.333 -93 -94s-84 -34 -134 -34zM310 41c40 0 76 9.16699 108 27.5s57 44.166 75 77.499s27 71.666 27 114.999c0 44 -9 82.5 -27 115.5s-43 58.667 -75 77s-68 27.5 -108 27.5s-75.833 -9.16699 -107.5 -27.5s-56.667 -44 -75 -77s-27.5 -71.5 -27.5 -115.5
c0 -43.333 9.16699 -81.666 27.5 -114.999s43.333 -59.166 75 -77.499s67.5 -27.5 107.5 -27.5zM376 615c-14.667 0 -27.8389 3.49902 -39.5059 10.499s-22.167 15 -31.5 24s-18.666 17 -27.999 24s-19.333 10.5 -30 10.5c-15.333 0 -27.666 -5.83301 -36.999 -17.5
s-14.666 -27.5 -15.999 -47.5h-33c1.33301 30 9.5 54.167 24.5 72.5s34.5 27.5 58.5 27.5c14.667 0 27.834 -3.5 39.501 -10.5s22.334 -15 32.001 -24s19 -17 28 -24s18.833 -10.5 29.5 -10.5c15.333 0 27.833 5.83301 37.5 17.5s14.834 26.834 15.501 45.501h33
c-0.666992 -28.667 -8.66699 -52.167 -24 -70.5s-35 -27.5 -59 -27.5z" />
    <glyph glyph-name="odieresis" unicode="&#xf6;" horiz-adv-x="620" 
d="M310 -4c-50 0 -94.5 11.333 -133.5 34s-70 54 -93 94s-34.5 85.667 -34.5 137c0 52 11.5 97.833 34.5 137.5s54 70.834 93 93.501s83.5 34 133.5 34s94.667 -11.333 134 -34s70.333 -53.834 93 -93.501s34 -85.5 34 -137.5c0 -51.333 -11.333 -97 -34 -137
s-53.667 -71.333 -93 -94s-84 -34 -134 -34zM310 41c40 0 76 9.16699 108 27.5s57 44.166 75 77.499s27 71.666 27 114.999c0 44 -9 82.5 -27 115.5s-43 58.667 -75 77s-68 27.5 -108 27.5s-75.833 -9.16699 -107.5 -27.5s-56.667 -44 -75 -77s-27.5 -71.5 -27.5 -115.5
c0 -43.333 9.16699 -81.666 27.5 -114.999s43.333 -59.166 75 -77.499s67.5 -27.5 107.5 -27.5zM396 634c-9.33301 0 -17.666 3.5 -24.999 10.5s-11 15.5 -11 25.5c0 10.667 3.66699 19.334 11 26.001s15.666 10 24.999 10c10 0 18.5 -3.33301 25.5 -10
s10.5 -15.334 10.5 -26.001c0 -10 -3.5 -18.5 -10.5 -25.5s-15.5 -10.5 -25.5 -10.5zM224 634c-10 0 -18.5 3.5 -25.5 10.5s-10.5 15.5 -10.5 25.5c0 10.667 3.5 19.334 10.5 26.001s15.5 10 25.5 10s18.5 -3.33301 25.5 -10s10.5 -15.334 10.5 -26.001
c0 -10 -3.5 -18.5 -10.5 -25.5s-15.5 -10.5 -25.5 -10.5z" />
    <glyph glyph-name="divide" unicode="&#xf7;" horiz-adv-x="569" 
d="M72 328v43h425v-43h-425zM284 124c-10 0 -18.833 3.83301 -26.5 11.5s-11.5 17.167 -11.5 28.5s3.83301 20.666 11.5 27.999s16.5 11 26.5 11c11.333 0 20.666 -3.66699 27.999 -11s11 -16.666 11 -27.999s-3.66699 -20.833 -11 -28.5s-16.666 -11.5 -27.999 -11.5z
M284 497c-10 0 -18.833 4 -26.5 12s-11.5 17.333 -11.5 28c0 11.333 3.83301 20.666 11.5 27.999s16.5 11 26.5 11c11.333 0 20.666 -3.66699 27.999 -11s11 -16.666 11 -27.999c0 -10.667 -3.66699 -20 -11 -28s-16.666 -12 -27.999 -12z" />
    <glyph glyph-name="oslash" unicode="&#xf8;" horiz-adv-x="620" 
d="M310 -4c-50 0 -94.5 11.333 -133.5 34s-70 54 -93 94s-34.5 85.667 -34.5 137c0 52 11.5 97.833 34.5 137.5s54 70.834 93 93.501s83.5 34 133.5 34s94.667 -11.333 134 -34s70.333 -53.834 93 -93.501s34 -85.5 34 -137.5c0 -51.333 -11.333 -97 -34 -137
s-53.667 -71.333 -93 -94s-84 -34 -134 -34zM310 41c40 0 76 9.16699 108 27.5s57 44.166 75 77.499s27 71.666 27 114.999c0 44 -9 82.5 -27 115.5s-43 58.667 -75 77s-68 27.5 -108 27.5s-75.833 -9.16699 -107.5 -27.5s-56.667 -44 -75 -77s-27.5 -71.5 -27.5 -115.5
c0 -43.333 9.16699 -81.666 27.5 -114.999s43.333 -59.166 75 -77.499s67.5 -27.5 107.5 -27.5zM68 -70l444 662h38l-444 -662h-38z" />
    <glyph glyph-name="ugrave" unicode="&#xf9;" horiz-adv-x="669" 
d="M318 -4c-44.667 0 -83.332 8.16992 -115.999 24.5029s-57.834 41 -75.501 74s-26.5 73.833 -26.5 122.5v305h50v-301c0 -58.667 15 -103.334 45 -134.001s72.333 -46 127 -46c39.333 0 73.333 8.33301 102 25s50.667 40.167 66 70.5s23 66.166 23 107.499v278h50v-522
h-48v145l7 -17c-15.333 -40.667 -40.833 -72.834 -76.5 -96.501s-78.167 -35.5 -127.5 -35.5zM335.002 607.003l-157 118h72l139 -118h-54z" />
    <glyph glyph-name="uacute" unicode="&#xfa;" horiz-adv-x="669" 
d="M318 -4c-44.667 0 -83.332 8.16992 -115.999 24.5029s-57.834 41 -75.501 74s-26.5 73.833 -26.5 122.5v305h50v-301c0 -58.667 15 -103.334 45 -134.001s72.333 -46 127 -46c39.333 0 73.333 8.33301 102 25s50.667 40.167 66 70.5s23 66.166 23 107.499v278h50v-522
h-48v145l7 -17c-15.333 -40.667 -40.833 -72.834 -76.5 -96.501s-78.167 -35.5 -127.5 -35.5zM275.002 607.003l139 118h72l-157 -118h-54z" />
    <glyph glyph-name="ucircumflex" unicode="&#xfb;" horiz-adv-x="669" 
d="M318 -4c-44.667 0 -83.332 8.16992 -115.999 24.5029s-57.834 41 -75.501 74s-26.5 73.833 -26.5 122.5v305h50v-301c0 -58.667 15 -103.334 45 -134.001s72.333 -46 127 -46c39.333 0 73.333 8.33301 102 25s50.667 40.167 66 70.5s23 66.166 23 107.499v278h50v-522
h-48v145l7 -17c-15.333 -40.667 -40.833 -72.834 -76.5 -96.501s-78.167 -35.5 -127.5 -35.5zM178.002 607.003l126 118h56l126 -118h-50l-122 102h36l-122 -102h-50z" />
    <glyph glyph-name="udieresis" unicode="&#xfc;" horiz-adv-x="669" 
d="M318 -4c-44.667 0 -83.332 8.16992 -115.999 24.5029s-57.834 41 -75.501 74s-26.5 73.833 -26.5 122.5v305h50v-301c0 -58.667 15 -103.334 45 -134.001s72.333 -46 127 -46c39.333 0 73.333 8.33301 102 25s50.667 40.167 66 70.5s23 66.166 23 107.499v278h50v-522
h-48v145l7 -17c-15.333 -40.667 -40.833 -72.834 -76.5 -96.501s-78.167 -35.5 -127.5 -35.5zM418.002 634.003c-9.33301 0 -17.666 3.5 -24.999 10.5s-11 15.5 -11 25.5c0 10.667 3.66699 19.334 11 26.001s15.666 10 24.999 10c10 0 18.5 -3.33301 25.5 -10
s10.5 -15.334 10.5 -26.001c0 -10 -3.5 -18.5 -10.5 -25.5s-15.5 -10.5 -25.5 -10.5zM246.002 634.003c-10 0 -18.5 3.5 -25.5 10.5s-10.5 15.5 -10.5 25.5c0 10.667 3.5 19.334 10.5 26.001s15.5 10 25.5 10s18.5 -3.33301 25.5 -10s10.5 -15.334 10.5 -26.001
c0 -10 -3.5 -18.5 -10.5 -25.5s-15.5 -10.5 -25.5 -10.5z" />
    <glyph glyph-name="yacute" unicode="&#xfd;" horiz-adv-x="528" 
d="M94 -198c-24 0 -46.502 4.00098 -67.502 12.001s-38.833 19.667 -53.5 35l25 38c13.333 -14 27.833 -24.333 43.5 -31s33.5 -10 53.5 -10c24 0 45.167 6.66699 63.5 20s35.5 37.666 51.5 72.999l36 80l7 9l221 494h51l-268 -593c-14 -32 -29.167 -57.167 -45.5 -75.5
s-34.166 -31.5 -53.499 -39.5s-40.666 -12 -63.999 -12zM244.998 -12.999l-242 535h53l220 -491zM192.998 607.001l139 118h72l-157 -118h-54z" />
    <glyph glyph-name="thorn" unicode="&#xfe;" horiz-adv-x="675" 
d="M368 -4c-46 0 -87.5 10.665 -124.5 31.998s-66.333 51.833 -88 91.5s-32.5 86.834 -32.5 141.501s10.833 101.834 32.5 141.501s51 70.167 88 91.5s78.5 32 124.5 32c49.333 0 93.5 -11.167 132.5 -33.5s69.667 -53.5 92 -93.5s33.5 -86 33.5 -138
s-11.167 -98 -33.5 -138s-53 -71.167 -92 -93.5s-83.167 -33.5 -132.5 -33.5zM106 -194.002v936h50v-391l-10 -91l10 -91v-363h-50zM365 40.998c40 0 76 9.16699 108 27.5s57.167 44.166 75.5 77.499s27.5 71.666 27.5 114.999c0 44 -9.16699 82.5 -27.5 115.5
s-43.5 58.667 -75.5 77s-68 27.5 -108 27.5s-75.833 -9.16699 -107.5 -27.5s-56.667 -44 -75 -77s-27.5 -71.5 -27.5 -115.5c0 -43.333 9.16699 -81.666 27.5 -114.999s43.333 -59.166 75 -77.499s67.5 -27.5 107.5 -27.5z" />
    <glyph glyph-name="ydieresis" unicode="&#xff;" horiz-adv-x="528" 
d="M94 -198c-24 0 -46.502 4.00098 -67.502 12.001s-38.833 19.667 -53.5 35l25 38c13.333 -14 27.833 -24.333 43.5 -31s33.5 -10 53.5 -10c24 0 45.167 6.66699 63.5 20s35.5 37.666 51.5 72.999l36 80l7 9l221 494h51l-268 -593c-14 -32 -29.167 -57.167 -45.5 -75.5
s-34.166 -31.5 -53.499 -39.5s-40.666 -12 -63.999 -12zM244.998 -12.999l-242 535h53l220 -491zM335.998 634.001c-9.33301 0 -17.666 3.5 -24.999 10.5s-11 15.5 -11 25.5c0 10.667 3.66699 19.334 11 26.001s15.666 10 24.999 10c10 0 18.5 -3.33301 25.5 -10
s10.5 -15.334 10.5 -26.001c0 -10 -3.5 -18.5 -10.5 -25.5s-15.5 -10.5 -25.5 -10.5zM163.998 634.001c-10 0 -18.5 3.5 -25.5 10.5s-10.5 15.5 -10.5 25.5c0 10.667 3.5 19.334 10.5 26.001s15.5 10 25.5 10s18.5 -3.33301 25.5 -10s10.5 -15.334 10.5 -26.001
c0 -10 -3.5 -18.5 -10.5 -25.5s-15.5 -10.5 -25.5 -10.5z" />
    <glyph glyph-name="Amacron" unicode="&#x100;" horiz-adv-x="705" 
d="M5 0l322 700h51l322 -700h-55l-304 668h22l-303 -668h-55zM123 197l17 43h419l17 -43h-453zM206 798v36h294v-36h-294z" />
    <glyph glyph-name="amacron" unicode="&#x101;" horiz-adv-x="583" 
d="M435 0l-0.000976562 119l-2 18v196c0 48.667 -13.167 85.667 -39.5 111s-64.833 38 -115.5 38c-36 0 -69.5 -6.16699 -100.5 -18.5s-57.5 -28.166 -79.5 -47.499l-25 36c26 23.333 57.333 41.5 94 54.5s75 19.5 115 19.5c64.667 0 114.334 -16.333 149.001 -49
s52 -81.334 52 -146.001v-331h-48zM246.999 -4c-38.667 0 -72.167 6.16504 -100.5 18.498s-50 29.833 -65 52.5s-22.5 48.667 -22.5 78c0 26.667 6.16699 50.834 18.5 72.501s32.833 39.334 61.5 53.001s67 20.5 115 20.5h192v-39h-191c-54 0 -91.833 -10 -113.5 -30
s-32.5 -45 -32.5 -75c0 -33.333 12.667 -60 38 -80s61 -30 107 -30c44 0 81.167 10 111.5 30s52.833 49 67.5 87l14 -34c-14 -38 -37.833 -68.167 -71.5 -90.5s-76.5 -33.5 -128.5 -33.5zM132.999 647.998v36h294v-36h-294z" />
    <glyph glyph-name="Abreve" unicode="&#x102;" horiz-adv-x="705" 
d="M5 0l322 700h51l322 -700h-55l-304 668h22l-303 -668h-55zM123 197l17 43h419l17 -43h-453zM353 753c-39.333 0 -72.835 11 -100.502 33s-42.167 51.667 -43.5 89h37c1.33301 -27.333 12.333 -49 33 -65s45.334 -24 74.001 -24c29.333 0 54.333 8 75 24
s31.334 37.667 32.001 65h37c-1.33301 -37.333 -15.833 -67 -43.5 -89s-61.167 -33 -100.5 -33z" />
    <glyph glyph-name="abreve" unicode="&#x103;" horiz-adv-x="583" 
d="M435 0l-0.000976562 119l-2 18v196c0 48.667 -13.167 85.667 -39.5 111s-64.833 38 -115.5 38c-36 0 -69.5 -6.16699 -100.5 -18.5s-57.5 -28.166 -79.5 -47.499l-25 36c26 23.333 57.333 41.5 94 54.5s75 19.5 115 19.5c64.667 0 114.334 -16.333 149.001 -49
s52 -81.334 52 -146.001v-331h-48zM246.999 -4c-38.667 0 -72.167 6.16504 -100.5 18.498s-50 29.833 -65 52.5s-22.5 48.667 -22.5 78c0 26.667 6.16699 50.834 18.5 72.501s32.833 39.334 61.5 53.001s67 20.5 115 20.5h192v-39h-191c-54 0 -91.833 -10 -113.5 -30
s-32.5 -45 -32.5 -75c0 -33.333 12.667 -60 38 -80s61 -30 107 -30c44 0 81.167 10 111.5 30s52.833 49 67.5 87l14 -34c-14 -38 -37.833 -68.167 -71.5 -90.5s-76.5 -33.5 -128.5 -33.5zM279.999 602.998c-39.333 0 -72.835 11 -100.502 33s-42.167 51.667 -43.5 89h37
c1.33301 -27.333 12.333 -49 33 -65s45.334 -24 74.001 -24c29.333 0 54.333 8 75 24s31.334 37.667 32.001 65h37c-1.33301 -37.333 -15.833 -67 -43.5 -89s-61.167 -33 -100.5 -33z" />
    <glyph glyph-name="Aogonek" unicode="&#x104;" horiz-adv-x="705" 
d="M5 0l322 700h51l322 -700h-55l-304 668h22l-303 -668h-55zM123 197l17 43h419l17 -43h-453zM639 -217c-30 0 -54.499 8 -73.499 24s-28.5 38 -28.5 66c0 15.333 3.83301 31.5 11.5 48.5s21.667 34.167 42 51.5s48.833 33.666 85.5 48.999l24 -22
c-34 -14.667 -59.833 -29.167 -77.5 -43.5s-29.834 -28.333 -36.501 -42s-10 -26.5 -10 -38.5c0 -20 6.5 -35 19.5 -45s29.167 -15 48.5 -15c11.333 0 22.5 1.83301 33.5 5.5s20.5 8.83398 28.5 15.501l14 -29c-11.333 -8 -23.833 -14.167 -37.5 -18.5
s-28.167 -6.5 -43.5 -6.5z" />
    <glyph glyph-name="aogonek" unicode="&#x105;" horiz-adv-x="583" 
d="M435 0l-0.000976562 119l-2 18v196c0 48.667 -13.167 85.667 -39.5 111s-64.833 38 -115.5 38c-36 0 -69.5 -6.16699 -100.5 -18.5s-57.5 -28.166 -79.5 -47.499l-25 36c26 23.333 57.333 41.5 94 54.5s75 19.5 115 19.5c64.667 0 114.334 -16.333 149.001 -49
s52 -81.334 52 -146.001v-331h-48zM246.999 -4c-38.667 0 -72.167 6.16504 -100.5 18.498s-50 29.833 -65 52.5s-22.5 48.667 -22.5 78c0 26.667 6.16699 50.834 18.5 72.501s32.833 39.334 61.5 53.001s67 20.5 115 20.5h192v-39h-191c-54 0 -91.833 -10 -113.5 -30
s-32.5 -45 -32.5 -75c0 -33.333 12.667 -60 38 -80s61 -30 107 -30c44 0 81.167 10 111.5 30s52.833 49 67.5 87l14 -34c-14 -38 -37.833 -68.167 -71.5 -90.5s-76.5 -33.5 -128.5 -33.5zM421.999 -217.002c-30 0 -54.499 8 -73.499 24s-28.5 38 -28.5 66
c0 15.333 3.83301 31.5 11.5 48.5s21.667 34.167 42 51.5s48.833 33.666 85.5 48.999l24 -22c-34 -14.667 -59.833 -29.167 -77.5 -43.5s-29.834 -28.333 -36.501 -42s-10 -26.5 -10 -38.5c0 -20 6.5 -35 19.5 -45s29.167 -15 48.5 -15c11.333 0 22.5 1.83301 33.5 5.5
s20.5 8.83398 28.5 15.501l14 -29c-11.333 -8 -23.833 -14.167 -37.5 -18.5s-28.167 -6.5 -43.5 -6.5z" />
    <glyph glyph-name="Cacute" unicode="&#x106;" horiz-adv-x="716" 
d="M418 -5c-52 0 -100.167 8.83301 -144.5 26.5s-82.833 42.5 -115.5 74.5s-58 69.5 -76 112.5s-27 90.167 -27 141.5s9 98.5 27 141.5s43.5 80.5 76.5 112.5s71.5 56.833 115.5 74.5s92 26.5 144 26.5c49.333 0 95.5 -8 138.5 -24s79.833 -40.333 110.5 -73l-32 -33
c-30 29.333 -63.167 50.5 -99.5 63.5s-74.833 19.5 -115.5 19.5c-44.667 0 -86.167 -7.66699 -124.5 -23s-71.666 -37 -99.999 -65s-50.333 -60.667 -66 -98s-23.5 -78 -23.5 -122s7.83301 -84.667 23.5 -122s37.667 -70 66 -98s61.666 -49.667 99.999 -65
s79.833 -23 124.5 -23c40.667 0 79.167 6.5 115.5 19.5s69.5 34.5 99.5 64.5l32 -33c-30.667 -32.667 -67.5 -57.167 -110.5 -73.5s-89.167 -24.5 -138.5 -24.5zM352 757l139 118h72l-157 -118h-54z" />
    <glyph glyph-name="cacute" unicode="&#x107;" horiz-adv-x="555" 
d="M313 -4c-50.667 0 -95.834 11.3311 -135.501 33.998s-71 54 -94 94s-34.5 85.667 -34.5 137c0 52 11.5 98 34.5 138s54.333 71.167 94 93.5s84.834 33.5 135.501 33.5c42 0 80.167 -8 114.5 -24s62.166 -40 83.499 -72l-37 -27c-18.667 26.667 -42 46.334 -70 59.001
s-58.333 19 -91 19c-40.667 0 -77.167 -9.16699 -109.5 -27.5s-57.666 -44 -75.999 -77s-27.5 -71.5 -27.5 -115.5s9.16699 -82.5 27.5 -115.5s43.666 -58.667 75.999 -77s68.833 -27.5 109.5 -27.5c32.667 0 63 6.33301 91 19s51.333 32.334 70 59.001l37 -27
c-21.333 -32 -49.166 -56 -83.499 -72s-72.5 -24 -114.5 -24zM239 606.998l139 118h72l-157 -118h-54z" />
    <glyph glyph-name="Ccircumflex" unicode="&#x108;" horiz-adv-x="716" 
d="M418 -5c-52 0 -100.167 8.83301 -144.5 26.5s-82.833 42.5 -115.5 74.5s-58 69.5 -76 112.5s-27 90.167 -27 141.5s9 98.5 27 141.5s43.5 80.5 76.5 112.5s71.5 56.833 115.5 74.5s92 26.5 144 26.5c49.333 0 95.5 -8 138.5 -24s79.833 -40.333 110.5 -73l-32 -33
c-30 29.333 -63.167 50.5 -99.5 63.5s-74.833 19.5 -115.5 19.5c-44.667 0 -86.167 -7.66699 -124.5 -23s-71.666 -37 -99.999 -65s-50.333 -60.667 -66 -98s-23.5 -78 -23.5 -122s7.83301 -84.667 23.5 -122s37.667 -70 66 -98s61.666 -49.667 99.999 -65
s79.833 -23 124.5 -23c40.667 0 79.167 6.5 115.5 19.5s69.5 34.5 99.5 64.5l32 -33c-30.667 -32.667 -67.5 -57.167 -110.5 -73.5s-89.167 -24.5 -138.5 -24.5zM255 757l126 118h56l126 -118h-50l-122 102h36l-122 -102h-50z" />
    <glyph glyph-name="ccircumflex" unicode="&#x109;" horiz-adv-x="555" 
d="M313 -4c-50.667 0 -95.834 11.3311 -135.501 33.998s-71 54 -94 94s-34.5 85.667 -34.5 137c0 52 11.5 98 34.5 138s54.333 71.167 94 93.5s84.834 33.5 135.501 33.5c42 0 80.167 -8 114.5 -24s62.166 -40 83.499 -72l-37 -27c-18.667 26.667 -42 46.334 -70 59.001
s-58.333 19 -91 19c-40.667 0 -77.167 -9.16699 -109.5 -27.5s-57.666 -44 -75.999 -77s-27.5 -71.5 -27.5 -115.5s9.16699 -82.5 27.5 -115.5s43.666 -58.667 75.999 -77s68.833 -27.5 109.5 -27.5c32.667 0 63 6.33301 91 19s51.333 32.334 70 59.001l37 -27
c-21.333 -32 -49.166 -56 -83.499 -72s-72.5 -24 -114.5 -24zM142 606.998l126 118h56l126 -118h-50l-122 102h36l-122 -102h-50z" />
    <glyph glyph-name="Cdotaccent" unicode="&#x10a;" horiz-adv-x="716" 
d="M418 -5c-52 0 -100.167 8.83301 -144.5 26.5s-82.833 42.5 -115.5 74.5s-58 69.5 -76 112.5s-27 90.167 -27 141.5s9 98.5 27 141.5s43.5 80.5 76.5 112.5s71.5 56.833 115.5 74.5s92 26.5 144 26.5c49.333 0 95.5 -8 138.5 -24s79.833 -40.333 110.5 -73l-32 -33
c-30 29.333 -63.167 50.5 -99.5 63.5s-74.833 19.5 -115.5 19.5c-44.667 0 -86.167 -7.66699 -124.5 -23s-71.666 -37 -99.999 -65s-50.333 -60.667 -66 -98s-23.5 -78 -23.5 -122s7.83301 -84.667 23.5 -122s37.667 -70 66 -98s61.666 -49.667 99.999 -65
s79.833 -23 124.5 -23c40.667 0 79.167 6.5 115.5 19.5s69.5 34.5 99.5 64.5l32 -33c-30.667 -32.667 -67.5 -57.167 -110.5 -73.5s-89.167 -24.5 -138.5 -24.5zM409 785c-10.667 0 -19.834 3.83301 -27.501 11.5s-11.5 16.834 -11.5 27.501s3.83301 19.834 11.5 27.501
s16.834 11.5 27.501 11.5c11.333 0 20.666 -3.83301 27.999 -11.5s11 -16.834 11 -27.501s-3.66699 -19.834 -11 -27.501s-16.666 -11.5 -27.999 -11.5z" />
    <glyph glyph-name="cdotaccent" unicode="&#x10b;" horiz-adv-x="555" 
d="M313 -4c-50.667 0 -95.834 11.3311 -135.501 33.998s-71 54 -94 94s-34.5 85.667 -34.5 137c0 52 11.5 98 34.5 138s54.333 71.167 94 93.5s84.834 33.5 135.501 33.5c42 0 80.167 -8 114.5 -24s62.166 -40 83.499 -72l-37 -27c-18.667 26.667 -42 46.334 -70 59.001
s-58.333 19 -91 19c-40.667 0 -77.167 -9.16699 -109.5 -27.5s-57.666 -44 -75.999 -77s-27.5 -71.5 -27.5 -115.5s9.16699 -82.5 27.5 -115.5s43.666 -58.667 75.999 -77s68.833 -27.5 109.5 -27.5c32.667 0 63 6.33301 91 19s51.333 32.334 70 59.001l37 -27
c-21.333 -32 -49.166 -56 -83.499 -72s-72.5 -24 -114.5 -24zM296 634.998c-10.667 0 -19.834 3.83301 -27.501 11.5s-11.5 16.834 -11.5 27.501s3.83301 19.834 11.5 27.501s16.834 11.5 27.501 11.5c11.333 0 20.666 -3.83301 27.999 -11.5s11 -16.834 11 -27.501
s-3.66699 -19.834 -11 -27.501s-16.666 -11.5 -27.999 -11.5z" />
    <glyph glyph-name="Ccaron" unicode="&#x10c;" horiz-adv-x="716" 
d="M418 -5c-52 0 -100.167 8.83301 -144.5 26.5s-82.833 42.5 -115.5 74.5s-58 69.5 -76 112.5s-27 90.167 -27 141.5s9 98.5 27 141.5s43.5 80.5 76.5 112.5s71.5 56.833 115.5 74.5s92 26.5 144 26.5c49.333 0 95.5 -8 138.5 -24s79.833 -40.333 110.5 -73l-32 -33
c-30 29.333 -63.167 50.5 -99.5 63.5s-74.833 19.5 -115.5 19.5c-44.667 0 -86.167 -7.66699 -124.5 -23s-71.666 -37 -99.999 -65s-50.333 -60.667 -66 -98s-23.5 -78 -23.5 -122s7.83301 -84.667 23.5 -122s37.667 -70 66 -98s61.666 -49.667 99.999 -65
s79.833 -23 124.5 -23c40.667 0 79.167 6.5 115.5 19.5s69.5 34.5 99.5 64.5l32 -33c-30.667 -32.667 -67.5 -57.167 -110.5 -73.5s-89.167 -24.5 -138.5 -24.5zM381 757l-126 118h50l122 -101h-36l122 101h50l-126 -118h-56z" />
    <glyph glyph-name="ccaron" unicode="&#x10d;" horiz-adv-x="555" 
d="M313 -4c-50.667 0 -95.834 11.3311 -135.501 33.998s-71 54 -94 94s-34.5 85.667 -34.5 137c0 52 11.5 98 34.5 138s54.333 71.167 94 93.5s84.834 33.5 135.501 33.5c42 0 80.167 -8 114.5 -24s62.166 -40 83.499 -72l-37 -27c-18.667 26.667 -42 46.334 -70 59.001
s-58.333 19 -91 19c-40.667 0 -77.167 -9.16699 -109.5 -27.5s-57.666 -44 -75.999 -77s-27.5 -71.5 -27.5 -115.5s9.16699 -82.5 27.5 -115.5s43.666 -58.667 75.999 -77s68.833 -27.5 109.5 -27.5c32.667 0 63 6.33301 91 19s51.333 32.334 70 59.001l37 -27
c-21.333 -32 -49.166 -56 -83.499 -72s-72.5 -24 -114.5 -24zM268 606.998l-126 118h50l122 -101h-36l122 101h50l-126 -118h-56z" />
    <glyph glyph-name="Dcaron" unicode="&#x10e;" horiz-adv-x="826" 
d="M122 0v700h277c74 0 139 -15 195 -45s99.5 -71.333 130.5 -124s46.5 -113 46.5 -181s-15.5 -128.333 -46.5 -181s-74.5 -94 -130.5 -124s-121 -45 -195 -45h-277zM173 46h222c66 0 123.333 13 172 39s86.334 61.833 113.001 107.5s40 98.167 40 157.5
s-13.333 111.833 -40 157.5s-64.334 81.5 -113.001 107.5s-106 39 -172 39h-222v-608zM358 756l-126 118h50l122 -101h-36l122 101h50l-126 -118h-56z" />
    <glyph glyph-name="dcaron" unicode="&#x10f;" horiz-adv-x="675" 
d="M307 -4c-48.667 0 -92.5 11.1641 -131.5 33.4971s-69.833 53.5 -92.5 93.5s-34 86 -34 138c0 52.667 11.333 98.834 34 138.501s53.5 70.667 92.5 93s82.833 33.5 131.5 33.5c46 0 87.5 -10.667 124.5 -32s66.333 -51.666 88 -90.999s32.5 -86.666 32.5 -141.999
c0 -54 -10.667 -101 -32 -141s-50.5 -70.667 -87.5 -92s-78.833 -32 -125.5 -32zM310 40.9971c40 0 75.833 9.16699 107.5 27.5s56.667 44.166 75 77.499s27.5 71.666 27.5 114.999c0 44 -9.16699 82.5 -27.5 115.5s-43.333 58.667 -75 77s-67.5 27.5 -107.5 27.5
s-75.833 -9.16699 -107.5 -27.5s-56.667 -44 -75 -77s-27.5 -71.5 -27.5 -115.5c0 -43.333 9.16699 -81.666 27.5 -114.999s43.333 -59.166 75 -77.499s67.5 -27.5 107.5 -27.5zM521 -0.00292969v171l9 91l-10 91v389h50v-742h-49zM666 581.997v185h43l-6 -185h-37z" />
    <glyph glyph-name="Dcroat" unicode="&#x110;" horiz-adv-x="829" 
d="M125 0v700h277c74 0 139 -15 195 -45s99.5 -71.333 130.5 -124s46.5 -113 46.5 -181s-15.5 -128.333 -46.5 -181s-74.5 -94 -130.5 -124s-121 -45 -195 -45h-277zM176 46h222c66 0 123.333 13 172 39s86.334 61.833 113.001 107.5s40 98.167 40 157.5
s-13.333 111.833 -40 157.5s-64.334 81.5 -113.001 107.5s-106 39 -172 39h-222v-608zM16 334v43h376v-43h-376z" />
    <glyph glyph-name="dcroat" unicode="&#x111;" horiz-adv-x="675" 
d="M307 -4c-48.667 0 -92.5 11.1641 -131.5 33.4971s-69.833 53.5 -92.5 93.5s-34 86 -34 138c0 52.667 11.333 98.834 34 138.501s53.5 70.667 92.5 93s82.833 33.5 131.5 33.5c46 0 87.5 -10.667 124.5 -32s66.333 -51.666 88 -90.999s32.5 -86.666 32.5 -141.999
c0 -54 -10.667 -101 -32 -141s-50.5 -70.667 -87.5 -92s-78.833 -32 -125.5 -32zM310 40.9971c40 0 75.833 9.16699 107.5 27.5s56.667 44.166 75 77.499s27.5 71.666 27.5 114.999c0 44 -9.16699 82.5 -27.5 115.5s-43.333 58.667 -75 77s-67.5 27.5 -107.5 27.5
s-75.833 -9.16699 -107.5 -27.5s-56.667 -44 -75 -77s-27.5 -71.5 -27.5 -115.5c0 -43.333 9.16699 -81.666 27.5 -114.999s43.333 -59.166 75 -77.499s67.5 -27.5 107.5 -27.5zM521 -0.00292969v171l9 91l-10 91v389h50v-742h-49zM290 612.997v38h386v-38h-386z" />
    <glyph glyph-name="Emacron" unicode="&#x112;" horiz-adv-x="669" 
d="M167 378h379v-45h-379v45zM173 46h432v-46h-483v700h468v-46h-417v-608zM210 798v36h294v-36h-294z" />
    <glyph glyph-name="emacron" unicode="&#x113;" horiz-adv-x="597" 
d="M318 -4c-52.667 0 -99.1689 11.3311 -139.502 33.998s-72 54 -95 94s-34.5 85.667 -34.5 137c0 52 10.833 97.833 32.5 137.5s51.5 70.834 89.5 93.501s80.667 34 128 34s89.833 -11 127.5 -33s67.334 -52.833 89.001 -92.5s32.5 -85.5 32.5 -137.5
c0 -2 -0.166992 -4.16699 -0.5 -6.5s-0.5 -4.83301 -0.5 -7.5h-461v39h434l-20 -19c0.666992 40.667 -7.83301 77.167 -25.5 109.5s-41.5 57.666 -71.5 75.999s-64.667 27.5 -104 27.5c-38.667 0 -73.167 -9.16699 -103.5 -27.5s-54.166 -43.666 -71.499 -75.999
s-26 -69.166 -26 -110.499v-9c0 -42.667 9.5 -80.5 28.5 -113.5s45.167 -58.667 78.5 -77s71.333 -27.5 114 -27.5c33.333 0 64.5 6 93.5 18s53.5 30.333 73.5 55l29 -33c-22.667 -28 -51.167 -49.167 -85.5 -63.5s-71.5 -21.5 -111.5 -21.5zM151.998 647.998v36h294v-36
h-294z" />
    <glyph glyph-name="Ebreve" unicode="&#x114;" horiz-adv-x="669" 
d="M167 378h379v-45h-379v45zM173 46h432v-46h-483v700h468v-46h-417v-608zM357 753c-39.333 0 -72.835 11 -100.502 33s-42.167 51.667 -43.5 89h37c1.33301 -27.333 12.333 -49 33 -65s45.334 -24 74.001 -24c29.333 0 54.333 8 75 24s31.334 37.667 32.001 65h37
c-1.33301 -37.333 -15.833 -67 -43.5 -89s-61.167 -33 -100.5 -33z" />
    <glyph glyph-name="ebreve" unicode="&#x115;" horiz-adv-x="597" 
d="M318 -4c-52.667 0 -99.1689 11.3311 -139.502 33.998s-72 54 -95 94s-34.5 85.667 -34.5 137c0 52 10.833 97.833 32.5 137.5s51.5 70.834 89.5 93.501s80.667 34 128 34s89.833 -11 127.5 -33s67.334 -52.833 89.001 -92.5s32.5 -85.5 32.5 -137.5
c0 -2 -0.166992 -4.16699 -0.5 -6.5s-0.5 -4.83301 -0.5 -7.5h-461v39h434l-20 -19c0.666992 40.667 -7.83301 77.167 -25.5 109.5s-41.5 57.666 -71.5 75.999s-64.667 27.5 -104 27.5c-38.667 0 -73.167 -9.16699 -103.5 -27.5s-54.166 -43.666 -71.499 -75.999
s-26 -69.166 -26 -110.499v-9c0 -42.667 9.5 -80.5 28.5 -113.5s45.167 -58.667 78.5 -77s71.333 -27.5 114 -27.5c33.333 0 64.5 6 93.5 18s53.5 30.333 73.5 55l29 -33c-22.667 -28 -51.167 -49.167 -85.5 -63.5s-71.5 -21.5 -111.5 -21.5zM298.998 602.998
c-39.333 0 -72.835 11 -100.502 33s-42.167 51.667 -43.5 89h37c1.33301 -27.333 12.333 -49 33 -65s45.334 -24 74.001 -24c29.333 0 54.333 8 75 24s31.334 37.667 32.001 65h37c-1.33301 -37.333 -15.833 -67 -43.5 -89s-61.167 -33 -100.5 -33z" />
    <glyph glyph-name="Edotaccent" unicode="&#x116;" horiz-adv-x="669" 
d="M167 378h379v-45h-379v45zM173 46h432v-46h-483v700h468v-46h-417v-608zM357 785c-10.667 0 -19.834 3.83301 -27.501 11.5s-11.5 16.834 -11.5 27.501s3.83301 19.834 11.5 27.501s16.834 11.5 27.501 11.5c11.333 0 20.666 -3.83301 27.999 -11.5
s11 -16.834 11 -27.501s-3.66699 -19.834 -11 -27.501s-16.666 -11.5 -27.999 -11.5z" />
    <glyph glyph-name="edotaccent" unicode="&#x117;" horiz-adv-x="597" 
d="M318 -4c-52.667 0 -99.1689 11.3311 -139.502 33.998s-72 54 -95 94s-34.5 85.667 -34.5 137c0 52 10.833 97.833 32.5 137.5s51.5 70.834 89.5 93.501s80.667 34 128 34s89.833 -11 127.5 -33s67.334 -52.833 89.001 -92.5s32.5 -85.5 32.5 -137.5
c0 -2 -0.166992 -4.16699 -0.5 -6.5s-0.5 -4.83301 -0.5 -7.5h-461v39h434l-20 -19c0.666992 40.667 -7.83301 77.167 -25.5 109.5s-41.5 57.666 -71.5 75.999s-64.667 27.5 -104 27.5c-38.667 0 -73.167 -9.16699 -103.5 -27.5s-54.166 -43.666 -71.499 -75.999
s-26 -69.166 -26 -110.499v-9c0 -42.667 9.5 -80.5 28.5 -113.5s45.167 -58.667 78.5 -77s71.333 -27.5 114 -27.5c33.333 0 64.5 6 93.5 18s53.5 30.333 73.5 55l29 -33c-22.667 -28 -51.167 -49.167 -85.5 -63.5s-71.5 -21.5 -111.5 -21.5zM298.998 634.998
c-10.667 0 -19.834 3.83301 -27.501 11.5s-11.5 16.834 -11.5 27.501s3.83301 19.834 11.5 27.501s16.834 11.5 27.501 11.5c11.333 0 20.666 -3.83301 27.999 -11.5s11 -16.834 11 -27.501s-3.66699 -19.834 -11 -27.501s-16.666 -11.5 -27.999 -11.5z" />
    <glyph glyph-name="Eogonek" unicode="&#x118;" horiz-adv-x="669" 
d="M167 378h379v-45h-379v45zM173 46h432v-46h-483v700h468v-46h-417v-608zM544 -217c-30 0 -54.499 8 -73.499 24s-28.5 38 -28.5 66c0 15.333 3.83301 31.5 11.5 48.5s21.667 34.167 42 51.5s48.833 33.666 85.5 48.999l24 -22c-34 -14.667 -59.833 -29.167 -77.5 -43.5
s-29.834 -28.333 -36.501 -42s-10 -26.5 -10 -38.5c0 -20 6.5 -35 19.5 -45s29.167 -15 48.5 -15c11.333 0 22.5 1.83301 33.5 5.5s20.5 8.83398 28.5 15.501l14 -29c-11.333 -8 -23.833 -14.167 -37.5 -18.5s-28.167 -6.5 -43.5 -6.5z" />
    <glyph glyph-name="eogonek" unicode="&#x119;" horiz-adv-x="597" 
d="M426 -217c-30.667 0 -55.501 8.16406 -74.501 24.4971s-28.5 38.833 -28.5 67.5c0 20.667 6 43.667 18 69s35.667 52.333 71 81l13 -9c-16 -6 -33 -10.833 -51 -14.5s-36.667 -5.5 -56 -5.5c-52.667 0 -99.167 11.333 -139.5 34s-72 54 -95 94s-34.5 85.667 -34.5 137
c0 52 10.833 97.833 32.5 137.5s51.5 70.834 89.5 93.501s80.667 34 128 34s89.833 -11 127.5 -33s67.334 -52.833 89.001 -92.5s32.5 -85.5 32.5 -137.5c0 -2 -0.166992 -4.16699 -0.5 -6.5s-0.5 -4.83301 -0.5 -7.5h-461v39h434l-20 -19
c0.666992 40.667 -7.83301 77.167 -25.5 109.5s-41.5 57.666 -71.5 75.999s-64.667 27.5 -104 27.5c-38.667 0 -73.167 -9.16699 -103.5 -27.5s-54.166 -43.666 -71.499 -75.999s-26 -69.166 -26 -110.499v-9c0 -42.667 9.5 -80.5 28.5 -113.5s45.167 -58.667 78.5 -77
s71.333 -27.5 114 -27.5c33.333 0 64.5 6 93.5 18s53.5 30.333 73.5 55l29 -33c-4.66699 -6 -10.167 -11.667 -16.5 -17l-20.5 -18c-32.667 -29.333 -57.167 -54 -73.5 -74s-27.5 -37.333 -33.5 -52s-9 -29 -9 -43c0 -20.667 6.5 -36 19.5 -46s29.167 -15 48.5 -15
c11.333 0 22.5 1.83301 33.5 5.5s20.5 8.83398 28.5 15.501l14 -29c-11.333 -8 -23.833 -14.167 -37.5 -18.5s-27.834 -6.5 -42.501 -6.5z" />
    <glyph glyph-name="Ecaron" unicode="&#x11a;" horiz-adv-x="669" 
d="M167 378h379v-45h-379v45zM173 46h432v-46h-483v700h468v-46h-417v-608zM329 757l-126 118h50l122 -101h-36l122 101h50l-126 -118h-56z" />
    <glyph glyph-name="ecaron" unicode="&#x11b;" horiz-adv-x="597" 
d="M318 -4c-52.667 0 -99.1689 11.3311 -139.502 33.998s-72 54 -95 94s-34.5 85.667 -34.5 137c0 52 10.833 97.833 32.5 137.5s51.5 70.834 89.5 93.501s80.667 34 128 34s89.833 -11 127.5 -33s67.334 -52.833 89.001 -92.5s32.5 -85.5 32.5 -137.5
c0 -2 -0.166992 -4.16699 -0.5 -6.5s-0.5 -4.83301 -0.5 -7.5h-461v39h434l-20 -19c0.666992 40.667 -7.83301 77.167 -25.5 109.5s-41.5 57.666 -71.5 75.999s-64.667 27.5 -104 27.5c-38.667 0 -73.167 -9.16699 -103.5 -27.5s-54.166 -43.666 -71.499 -75.999
s-26 -69.166 -26 -110.499v-9c0 -42.667 9.5 -80.5 28.5 -113.5s45.167 -58.667 78.5 -77s71.333 -27.5 114 -27.5c33.333 0 64.5 6 93.5 18s53.5 30.333 73.5 55l29 -33c-22.667 -28 -51.167 -49.167 -85.5 -63.5s-71.5 -21.5 -111.5 -21.5zM270.998 606.998l-126 118h50
l122 -101h-36l122 101h50l-126 -118h-56z" />
    <glyph glyph-name="Gcircumflex" unicode="&#x11c;" horiz-adv-x="773" 
d="M421 -5c-52.667 0 -101.331 8.83301 -145.998 26.5s-83.5 42.5 -116.5 74.5s-58.5 69.5 -76.5 112.5s-27 90.167 -27 141.5s9 98.5 27 141.5s43.667 80.5 77 112.5s72.166 56.833 116.499 74.5s93.166 26.5 146.499 26.5c50.667 0 97.667 -8 141 -24s80.333 -40 111 -72
l-32 -34c-30.667 30 -64.167 51.333 -100.5 64s-75.833 19 -118.5 19c-45.333 0 -87.333 -7.66699 -126 -23s-72.334 -37 -101.001 -65s-50.834 -60.667 -66.501 -98s-23.5 -78 -23.5 -122s7.83301 -84.667 23.5 -122s37.834 -70 66.501 -98s62.334 -49.667 101.001 -65
s80.667 -23 126 -23c41.333 0 80.5 6.33301 117.5 19s70.833 33.667 101.5 63l29 -39c-31.333 -30 -68.833 -52.5 -112.5 -67.5s-89.5 -22.5 -137.5 -22.5zM622.003 90v257h49v-262zM251.003 756l126 118h56l126 -118h-50l-122 102h36l-122 -102h-50z" />
    <glyph glyph-name="gcircumflex" unicode="&#x11d;" horiz-adv-x="682" 
d="M323 -198c-47.333 0 -92.332 7.33301 -134.999 22s-77.334 35 -104.001 61l27 38c26 -24 57.167 -42.667 93.5 -56s75.5 -20 117.5 -20c70 0 121.5 16.333 154.5 49s49.5 84 49.5 154v145l10 78l-8 78v171h48v-466c0 -87.333 -21.167 -151.5 -63.5 -192.5
s-105.5 -61.5 -189.5 -61.5zM309.001 19c-49.333 0 -93.5 10.835 -132.5 32.502s-70 51.667 -93 90s-34.5 82.166 -34.5 131.499c0 50 11.5 94 34.5 132s54 67.667 93 89s83.167 32 132.5 32c47.333 0 89.833 -10.167 127.5 -30.5s67.5 -49.333 89.5 -87
s33 -82.834 33 -135.501c0 -52 -11 -97 -33 -135s-51.833 -67.333 -89.5 -88s-80.167 -31 -127.5 -31zM313.001 64.002c42 0 79 8.83301 111 26.5s57.167 42.334 75.5 74.001s27.5 67.834 27.5 108.501c0 41.333 -9.16699 77.666 -27.5 108.999s-43.5 55.666 -75.5 72.999
s-69 26 -111 26c-40.667 0 -77.167 -8.66699 -109.5 -26s-57.666 -41.666 -75.999 -72.999s-27.5 -67.666 -27.5 -108.999c0 -40.667 9.16699 -76.834 27.5 -108.501s43.666 -56.334 75.999 -74.001s68.833 -26.5 109.5 -26.5zM167.001 607.002l126 118h56l126 -118h-50
l-122 102h36l-122 -102h-50z" />
    <glyph glyph-name="Gbreve" unicode="&#x11e;" horiz-adv-x="773" 
d="M421 -5c-52.667 0 -101.331 8.83301 -145.998 26.5s-83.5 42.5 -116.5 74.5s-58.5 69.5 -76.5 112.5s-27 90.167 -27 141.5s9 98.5 27 141.5s43.667 80.5 77 112.5s72.166 56.833 116.499 74.5s93.166 26.5 146.499 26.5c50.667 0 97.667 -8 141 -24s80.333 -40 111 -72
l-32 -34c-30.667 30 -64.167 51.333 -100.5 64s-75.833 19 -118.5 19c-45.333 0 -87.333 -7.66699 -126 -23s-72.334 -37 -101.001 -65s-50.834 -60.667 -66.501 -98s-23.5 -78 -23.5 -122s7.83301 -84.667 23.5 -122s37.834 -70 66.501 -98s62.334 -49.667 101.001 -65
s80.667 -23 126 -23c41.333 0 80.5 6.33301 117.5 19s70.833 33.667 101.5 63l29 -39c-31.333 -30 -68.833 -52.5 -112.5 -67.5s-89.5 -22.5 -137.5 -22.5zM622.003 90v257h49v-262zM405.003 752c-39.333 0 -72.835 11 -100.502 33s-42.167 51.667 -43.5 89h37
c1.33301 -27.333 12.333 -49 33 -65s45.334 -24 74.001 -24c29.333 0 54.333 8 75 24s31.334 37.667 32.001 65h37c-1.33301 -37.333 -15.833 -67 -43.5 -89s-61.167 -33 -100.5 -33z" />
    <glyph glyph-name="gbreve" unicode="&#x11f;" horiz-adv-x="682" 
d="M323 -198c-47.333 0 -92.332 7.33301 -134.999 22s-77.334 35 -104.001 61l27 38c26 -24 57.167 -42.667 93.5 -56s75.5 -20 117.5 -20c70 0 121.5 16.333 154.5 49s49.5 84 49.5 154v145l10 78l-8 78v171h48v-466c0 -87.333 -21.167 -151.5 -63.5 -192.5
s-105.5 -61.5 -189.5 -61.5zM309.001 19c-49.333 0 -93.5 10.835 -132.5 32.502s-70 51.667 -93 90s-34.5 82.166 -34.5 131.499c0 50 11.5 94 34.5 132s54 67.667 93 89s83.167 32 132.5 32c47.333 0 89.833 -10.167 127.5 -30.5s67.5 -49.333 89.5 -87
s33 -82.834 33 -135.501c0 -52 -11 -97 -33 -135s-51.833 -67.333 -89.5 -88s-80.167 -31 -127.5 -31zM313.001 64.002c42 0 79 8.83301 111 26.5s57.167 42.334 75.5 74.001s27.5 67.834 27.5 108.501c0 41.333 -9.16699 77.666 -27.5 108.999s-43.5 55.666 -75.5 72.999
s-69 26 -111 26c-40.667 0 -77.167 -8.66699 -109.5 -26s-57.666 -41.666 -75.999 -72.999s-27.5 -67.666 -27.5 -108.999c0 -40.667 9.16699 -76.834 27.5 -108.501s43.666 -56.334 75.999 -74.001s68.833 -26.5 109.5 -26.5zM321.001 603.002
c-39.333 0 -72.835 11 -100.502 33s-42.167 51.667 -43.5 89h37c1.33301 -27.333 12.333 -49 33 -65s45.334 -24 74.001 -24c29.333 0 54.333 8 75 24s31.334 37.667 32.001 65h37c-1.33301 -37.333 -15.833 -67 -43.5 -89s-61.167 -33 -100.5 -33z" />
    <glyph glyph-name="Gdotaccent" unicode="&#x120;" horiz-adv-x="773" 
d="M421 -5c-52.667 0 -101.331 8.83301 -145.998 26.5s-83.5 42.5 -116.5 74.5s-58.5 69.5 -76.5 112.5s-27 90.167 -27 141.5s9 98.5 27 141.5s43.667 80.5 77 112.5s72.166 56.833 116.499 74.5s93.166 26.5 146.499 26.5c50.667 0 97.667 -8 141 -24s80.333 -40 111 -72
l-32 -34c-30.667 30 -64.167 51.333 -100.5 64s-75.833 19 -118.5 19c-45.333 0 -87.333 -7.66699 -126 -23s-72.334 -37 -101.001 -65s-50.834 -60.667 -66.501 -98s-23.5 -78 -23.5 -122s7.83301 -84.667 23.5 -122s37.834 -70 66.501 -98s62.334 -49.667 101.001 -65
s80.667 -23 126 -23c41.333 0 80.5 6.33301 117.5 19s70.833 33.667 101.5 63l29 -39c-31.333 -30 -68.833 -52.5 -112.5 -67.5s-89.5 -22.5 -137.5 -22.5zM622.003 90v257h49v-262zM405.003 784c-10.667 0 -19.834 3.83301 -27.501 11.5s-11.5 16.834 -11.5 27.501
s3.83301 19.834 11.5 27.501s16.834 11.5 27.501 11.5c11.333 0 20.666 -3.83301 27.999 -11.5s11 -16.834 11 -27.501s-3.66699 -19.834 -11 -27.501s-16.666 -11.5 -27.999 -11.5z" />
    <glyph glyph-name="gdotaccent" unicode="&#x121;" horiz-adv-x="682" 
d="M323 -198c-47.333 0 -92.332 7.33301 -134.999 22s-77.334 35 -104.001 61l27 38c26 -24 57.167 -42.667 93.5 -56s75.5 -20 117.5 -20c70 0 121.5 16.333 154.5 49s49.5 84 49.5 154v145l10 78l-8 78v171h48v-466c0 -87.333 -21.167 -151.5 -63.5 -192.5
s-105.5 -61.5 -189.5 -61.5zM309.001 19c-49.333 0 -93.5 10.835 -132.5 32.502s-70 51.667 -93 90s-34.5 82.166 -34.5 131.499c0 50 11.5 94 34.5 132s54 67.667 93 89s83.167 32 132.5 32c47.333 0 89.833 -10.167 127.5 -30.5s67.5 -49.333 89.5 -87
s33 -82.834 33 -135.501c0 -52 -11 -97 -33 -135s-51.833 -67.333 -89.5 -88s-80.167 -31 -127.5 -31zM313.001 64.002c42 0 79 8.83301 111 26.5s57.167 42.334 75.5 74.001s27.5 67.834 27.5 108.501c0 41.333 -9.16699 77.666 -27.5 108.999s-43.5 55.666 -75.5 72.999
s-69 26 -111 26c-40.667 0 -77.167 -8.66699 -109.5 -26s-57.666 -41.666 -75.999 -72.999s-27.5 -67.666 -27.5 -108.999c0 -40.667 9.16699 -76.834 27.5 -108.501s43.666 -56.334 75.999 -74.001s68.833 -26.5 109.5 -26.5zM321.001 635.002
c-10.667 0 -19.834 3.83301 -27.501 11.5s-11.5 16.834 -11.5 27.501s3.83301 19.834 11.5 27.501s16.834 11.5 27.501 11.5c11.333 0 20.666 -3.83301 27.999 -11.5s11 -16.834 11 -27.501s-3.66699 -19.834 -11 -27.501s-16.666 -11.5 -27.999 -11.5z" />
    <glyph glyph-name="uni0122" unicode="&#x122;" horiz-adv-x="773" 
d="M421 -5c-52.667 0 -101.331 8.83301 -145.998 26.5s-83.5 42.5 -116.5 74.5s-58.5 69.5 -76.5 112.5s-27 90.167 -27 141.5s9 98.5 27 141.5s43.667 80.5 77 112.5s72.166 56.833 116.499 74.5s93.166 26.5 146.499 26.5c50.667 0 97.667 -8 141 -24s80.333 -40 111 -72
l-32 -34c-30.667 30 -64.167 51.333 -100.5 64s-75.833 19 -118.5 19c-45.333 0 -87.333 -7.66699 -126 -23s-72.334 -37 -101.001 -65s-50.834 -60.667 -66.501 -98s-23.5 -78 -23.5 -122s7.83301 -84.667 23.5 -122s37.834 -70 66.501 -98s62.334 -49.667 101.001 -65
s80.667 -23 126 -23c41.333 0 80.5 6.33301 117.5 19s70.833 33.667 101.5 63l29 -39c-31.333 -30 -68.833 -52.5 -112.5 -67.5s-89.5 -22.5 -137.5 -22.5zM622.003 90v257h49v-262zM374.003 -261l25.001 102l4 -21c-10 0 -18.5 3.33301 -25.5 10s-10.5 14.667 -10.5 24
c0 10 3.33301 18.167 10 24.5s15.334 9.5 26.001 9.5c11.333 0 20.166 -3.5 26.499 -10.5s9.5 -14.833 9.5 -23.5c0 -6 -0.833008 -12.333 -2.5 -19s-3.83398 -13.667 -6.50098 -21l-26 -75h-30z" />
    <glyph glyph-name="uni0123" unicode="&#x123;" horiz-adv-x="682" 
d="M323 -198c-47.333 0 -92.332 7.33301 -134.999 22s-77.334 35 -104.001 61l27 38c26 -24 57.167 -42.667 93.5 -56s75.5 -20 117.5 -20c70 0 121.5 16.333 154.5 49s49.5 84 49.5 154v145l10 78l-8 78v171h48v-466c0 -87.333 -21.167 -151.5 -63.5 -192.5
s-105.5 -61.5 -189.5 -61.5zM309.001 19c-49.333 0 -93.5 10.835 -132.5 32.502s-70 51.667 -93 90s-34.5 82.166 -34.5 131.499c0 50 11.5 94 34.5 132s54 67.667 93 89s83.167 32 132.5 32c47.333 0 89.833 -10.167 127.5 -30.5s67.5 -49.333 89.5 -87
s33 -82.834 33 -135.501c0 -52 -11 -97 -33 -135s-51.833 -67.333 -89.5 -88s-80.167 -31 -127.5 -31zM313.001 64.002c42 0 79 8.83301 111 26.5s57.167 42.334 75.5 74.001s27.5 67.834 27.5 108.501c0 41.333 -9.16699 77.666 -27.5 108.999s-43.5 55.666 -75.5 72.999
s-69 26 -111 26c-40.667 0 -77.167 -8.66699 -109.5 -26s-57.666 -41.666 -75.999 -72.999s-27.5 -67.666 -27.5 -108.999c0 -40.667 9.16699 -76.834 27.5 -108.501s43.666 -56.334 75.999 -74.001s68.833 -26.5 109.5 -26.5zM321.001 603.002
c-12 0 -21.334 3.5 -28.001 10.5s-10 14.833 -10 23.5c0 6 0.833008 11.833 2.5 17.5s3.83398 12.167 6.50098 19.5l32 98h32l-30 -123l-5 21c11.333 0 20.5 -3 27.5 -9s10.5 -14 10.5 -24c0 -9.33301 -3.5 -17.333 -10.5 -24s-16.167 -10 -27.5 -10z" />
    <glyph glyph-name="Hcircumflex" unicode="&#x124;" horiz-adv-x="814" 
d="M641 700h51v-700h-51v700zM173 0h-51v700h51v-700zM647 333h-480v45h480v-45zM253 757l126 118h56l126 -118h-50l-122 102h36l-122 -102h-50z" />
    <glyph glyph-name="hcircumflex" unicode="&#x125;" horiz-adv-x="673" 
d="M361 526c42.667 0 79.832 -8.16797 111.499 -24.501s56.334 -41 74.001 -74s26.5 -73.833 26.5 -122.5v-305h-50v301c0 58.667 -14.833 103.334 -44.5 134.001s-71.167 46 -124.5 46c-40.667 0 -76 -8.33301 -106 -25s-52.833 -40 -68.5 -70s-23.5 -66 -23.5 -108v-278
h-50v742h50v-365l-9 16c16 41.333 42.333 73.833 79 97.5s81.667 35.5 135 35.5zM-23.002 798.999l126 118h56l126 -118h-50l-122 102h36l-122 -102h-50z" />
    <glyph glyph-name="Hbar" unicode="&#x126;" horiz-adv-x="820" 
d="M644 700h51v-700h-51v700zM176 0h-51v700h51v-700zM650 333h-480v45h480v-45zM15 523v42h789v-42h-789z" />
    <glyph glyph-name="hbar" unicode="&#x127;" horiz-adv-x="673" 
d="M361 526c42.667 0 79.832 -8.16797 111.499 -24.501s56.334 -41 74.001 -74s26.5 -73.833 26.5 -122.5v-305h-50v301c0 58.667 -14.833 103.334 -44.5 134.001s-71.167 46 -124.5 46c-40.667 0 -76 -8.33301 -106 -25s-52.833 -40 -68.5 -70s-23.5 -66 -23.5 -108v-278
h-50v742h50v-365l-9 16c16 41.333 42.333 73.833 79 97.5s81.667 35.5 135 35.5zM-0.00195312 612.999v38h386v-38h-386z" />
    <glyph glyph-name="Itilde" unicode="&#x128;" horiz-adv-x="295" 
d="M122 0v700h51v-700h-51zM214 765c-14.667 0 -27.8389 3.49902 -39.5059 10.499s-22.167 15 -31.5 24s-18.666 17 -27.999 24s-19.333 10.5 -30 10.5c-15.333 0 -27.666 -5.83301 -36.999 -17.5s-14.666 -27.5 -15.999 -47.5h-33c1.33301 30 9.5 54.167 24.5 72.5
s34.5 27.5 58.5 27.5c14.667 0 27.834 -3.5 39.501 -10.5s22.334 -15 32.001 -24s19 -17 28 -24s18.833 -10.5 29.5 -10.5c15.333 0 27.833 5.83301 37.5 17.5s14.834 26.834 15.501 45.501h33c-0.666992 -28.667 -8.66699 -52.167 -24 -70.5s-35 -27.5 -59 -27.5z" />
    <glyph glyph-name="itilde" unicode="&#x129;" horiz-adv-x="261" 
d="M106 0v522h50v-522h-50zM186 615c-14 0 -25.832 3.5 -35.499 10.5s-18.5 15 -26.5 24s-15.5 17 -22.5 24s-14.833 10.5 -23.5 10.5c-12 0 -21.333 -5.83301 -28 -17.5s-10 -27.5 -10 -47.5h-33c0 30.667 6.16699 55 18.5 73s29.166 27 50.499 27
c14 0 25.833 -3.5 35.5 -10.5s18.5 -15 26.5 -24s15.5 -16.833 22.5 -23.5s14.833 -10 23.5 -10c12 0 21.333 5.66699 28 17s10 26.333 10 45h33c0 -29.333 -6 -53 -18 -71s-29 -27 -51 -27z" />
    <glyph glyph-name="Imacron" unicode="&#x12a;" horiz-adv-x="295" 
d="M122 0v700h51v-700h-51zM28 799v36h240v-36h-240z" />
    <glyph glyph-name="imacron" unicode="&#x12b;" horiz-adv-x="261" 
d="M106 0v522h50v-522h-50zM11 648v36h240v-36h-240z" />
    <glyph glyph-name="Ibreve" unicode="&#x12c;" horiz-adv-x="295" 
d="M122 0v700h51v-700h-51zM148 753c-39.333 0 -72.835 11 -100.502 33s-42.167 51.667 -43.5 89h37c1.33301 -27.333 12.333 -49 33 -65s45.334 -24 74.001 -24c29.333 0 54.333 8 75 24s31.334 37.667 32.001 65h37c-1.33301 -37.333 -15.833 -67 -43.5 -89
s-61.167 -33 -100.5 -33z" />
    <glyph glyph-name="ibreve" unicode="&#x12d;" horiz-adv-x="261" 
d="M106 0v522h50v-522h-50zM131 603c-34 0 -62.333 11 -85 33s-34 51.667 -34 89h36c0 -27.333 7.66699 -49 23 -65s35.333 -24 60 -24s44.667 8 60 24s23 37.667 23 65h36c0 -37.333 -11.167 -67 -33.5 -89s-50.833 -33 -85.5 -33z" />
    <glyph glyph-name="Iogonek" unicode="&#x12e;" horiz-adv-x="295" 
d="M122 0v700h51v-700h-51zM157 -217c-23.333 0 -42.334 7.83398 -57.001 23.501s-22 36.167 -22 61.5c0 22 5.16699 46.333 15.5 73s30.5 54 60.5 82l19 -23c-25.333 -27.333 -41.166 -51.333 -47.499 -72s-9.5 -39 -9.5 -55c0 -18.667 4.66699 -32.834 14 -42.501
s20 -14.5 32 -14.5c8 0 15.167 1.5 21.5 4.5s11.833 6.83301 16.5 11.5l13 -27c-14 -14.667 -32.667 -22 -56 -22z" />
    <glyph glyph-name="iogonek" unicode="&#x12f;" horiz-adv-x="261" 
d="M106 0v522h50v-522h-50zM131 649c-11.333 0 -21 4 -29 12s-12 17.333 -12 28c0 11.333 4 21 12 29s17.667 12 29 12c12 0 21.833 -3.83301 29.5 -11.5s11.5 -17.167 11.5 -28.5s-3.83301 -21 -11.5 -29s-17.5 -12 -29.5 -12zM140 -217
c-23.333 0 -42.334 7.83398 -57.001 23.501s-22 36.167 -22 61.5c0 22 5.16699 46.333 15.5 73s30.5 54 60.5 82l19 -23c-25.333 -27.333 -41.166 -51.333 -47.499 -72s-9.5 -39 -9.5 -55c0 -18.667 4.66699 -32.834 14 -42.501s20 -14.5 32 -14.5c8 0 15.167 1.5 21.5 4.5
s11.833 6.83301 16.5 11.5l13 -27c-14 -14.667 -32.667 -22 -56 -22z" />
    <glyph glyph-name="Idotaccent" unicode="&#x130;" horiz-adv-x="295" 
d="M122 0v700h51v-700h-51zM148 785c-10.667 0 -19.834 3.83301 -27.501 11.5s-11.5 16.834 -11.5 27.501s3.83301 19.834 11.5 27.501s16.834 11.5 27.501 11.5c11.333 0 20.666 -3.83301 27.999 -11.5s11 -16.834 11 -27.501s-3.66699 -19.834 -11 -27.501
s-16.666 -11.5 -27.999 -11.5z" />
    <glyph glyph-name="dotlessi" unicode="&#x131;" horiz-adv-x="261" 
d="M106 0v522h50v-522h-50z" />
    <glyph glyph-name="IJ" unicode="&#x132;" horiz-adv-x="716" 
d="M327 -5c-42.667 0 -82.8311 6.33301 -120.498 19s-70.834 28.667 -99.501 48l23 42c27.333 -20 58 -35.333 92 -46s69.333 -16 106 -16c69.333 0 123.5 21 162.5 63s58.5 106 58.5 192v403h51v-402c0 -66.667 -11.333 -122.5 -34 -167.5s-54.334 -78.833 -95.001 -101.5
s-88.667 -34 -144 -34zM116.003 297v403h51v-403h-51z" />
    <glyph glyph-name="ij" unicode="&#x133;" horiz-adv-x="528" 
d="M106 0v522h50v-522h-50zM131 649c-11.333 0 -21 4 -29 12s-12 17.333 -12 28c0 11.333 4 21 12 29s17.667 12 29 12c12 0 21.833 -3.83301 29.5 -11.5s11.5 -17.167 11.5 -28.5s-3.83301 -21 -11.5 -29s-17.5 -12 -29.5 -12zM281 -198
c-20.667 0 -40.668 2.83301 -60.001 8.5s-35.333 14.5 -48 26.5l20 37c22 -19.333 50.333 -29 85 -29c30 0 53.167 9 69.5 27s24.5 44 24.5 78v572h50v-574c0 -44 -12.167 -79.333 -36.5 -106s-59.166 -40 -104.499 -40zM396.999 649c-11.333 0 -21 4 -29 12
s-12 17.333 -12 28c0 11.333 4 21 12 29s17.667 12 29 12c12 0 21.833 -3.83301 29.5 -11.5s11.5 -17.167 11.5 -28.5s-3.83301 -21 -11.5 -29s-17.5 -12 -29.5 -12z" />
    <glyph glyph-name="Jcircumflex" unicode="&#x134;" horiz-adv-x="491" 
d="M185 -5c-38 0 -73.498 8.83301 -106.498 26.5s-59.5 42.167 -79.5 73.5l31 34c19.333 -28.667 42.166 -50.5 68.499 -65.5s55.166 -22.5 86.499 -22.5c92.667 0 139 55 139 165v448h-258v46h309v-494c0 -70 -16 -122.667 -48 -158s-79.333 -53 -142 -53zM67.002 757
l126 118h56l126 -118h-50l-122 102h36l-122 -102h-50z" />
    <glyph glyph-name="jcircumflex" unicode="&#x135;" horiz-adv-x="266" 
d="M20 -198c-20.667 0 -40.668 2.83301 -60.001 8.5s-35.333 14.5 -48 26.5l20 37c22 -19.333 50.333 -29 85 -29c30 0 53.167 9 69.5 27s24.5 44 24.5 78v572h50v-574c0 -44 -12.167 -79.333 -36.5 -106s-59.166 -40 -104.499 -40zM6.99902 607l102 118h54l102 -118h-49
l-95 102h30l-95 -102h-49z" />
    <glyph glyph-name="uni0136" unicode="&#x136;" horiz-adv-x="703" 
d="M166 177l-2 64l446 459h62l-312 -323l-29 -31zM122 0v700h51v-700h-51zM631 0l-315 360l35 37l342 -397h-62zM343 -261l25.001 102l4 -21c-10 0 -18.5 3.33301 -25.5 10s-10.5 14.667 -10.5 24c0 10 3.33301 18.167 10 24.5s15.334 9.5 26.001 9.5
c11.333 0 20.166 -3.5 26.499 -10.5s9.5 -14.833 9.5 -23.5c0 -6 -0.833008 -12.333 -2.5 -19s-3.83398 -13.667 -6.50098 -21l-26 -75h-30z" />
    <glyph glyph-name="uni0137" unicode="&#x137;" horiz-adv-x="588" 
d="M144 144l1 63l345 315h64l-229 -215l-30 -25zM106 0v742h50v-742h-50zM514 0l-228 286l34 37l256 -323h-62zM280 -261l25.001 102l4 -21c-10 0 -18.5 3.33301 -25.5 10s-10.5 14.667 -10.5 24c0 10 3.33301 18.167 10 24.5s15.334 9.5 26.001 9.5
c11.333 0 20.166 -3.5 26.499 -10.5s9.5 -14.833 9.5 -23.5c0 -6 -0.833008 -12.333 -2.5 -19s-3.83398 -13.667 -6.50098 -21l-26 -75h-30z" />
    <glyph glyph-name="kgreenlandic" unicode="&#x138;" horiz-adv-x="576" 
d="M144 144l1 63l345 315h64l-229 -215l-30 -25zM106 0v522h50v-522h-50zM514 0l-228 286l34 37l256 -323h-62z" />
    <glyph glyph-name="Lacute" unicode="&#x139;" horiz-adv-x="585" 
d="M122 0v700h51v-654h403v-46h-454zM91 757l139 118h72l-157 -118h-54z" />
    <glyph glyph-name="lacute" unicode="&#x13a;" horiz-adv-x="261" 
d="M106 0v742h50v-742h-50zM74 827l139 118h72l-157 -118h-54z" />
    <glyph glyph-name="uni013B" unicode="&#x13b;" horiz-adv-x="585" 
d="M122 0v700h51v-654h403v-46h-454zM331 -261l25.001 102l4 -21c-10 0 -18.5 3.33301 -25.5 10s-10.5 14.667 -10.5 24c0 10 3.33301 18.167 10 24.5s15.334 9.5 26.001 9.5c11.333 0 20.166 -3.5 26.499 -10.5s9.5 -14.833 9.5 -23.5c0 -6 -0.833008 -12.333 -2.5 -19
s-3.83398 -13.667 -6.50098 -21l-26 -75h-30z" />
    <glyph glyph-name="uni013C" unicode="&#x13c;" horiz-adv-x="261" 
d="M106 0v742h50v-742h-50zM102 -261l25.001 102l4 -21c-10 0 -18.5 3.33301 -25.5 10s-10.5 14.667 -10.5 24c0 10 3.33301 18.167 10 24.5s15.334 9.5 26.001 9.5c11.333 0 20.166 -3.5 26.499 -10.5s9.5 -14.833 9.5 -23.5c0 -6 -0.833008 -12.333 -2.5 -19
s-3.83398 -13.667 -6.50098 -21l-26 -75h-30z" />
    <glyph glyph-name="Lcaron" unicode="&#x13d;" horiz-adv-x="585" 
d="M122 0v700h51v-654h403v-46h-454zM443 540v185h43l-6 -185h-37z" />
    <glyph glyph-name="lcaron" unicode="&#x13e;" horiz-adv-x="261" 
d="M106 0v742h50v-742h-50zM251 582v185h43l-6 -185h-37z" />
    <glyph glyph-name="Ldot" unicode="&#x13f;" horiz-adv-x="585" 
d="M122 0v700h51v-654h403v-46h-454zM440 333c-10.667 0 -19.834 4 -27.501 12s-11.5 17.333 -11.5 28c0 12 3.83301 21.833 11.5 29.5s16.834 11.5 27.501 11.5c11.333 0 20.833 -3.83301 28.5 -11.5s11.5 -17.5 11.5 -29.5c0 -10.667 -3.83301 -20 -11.5 -28
s-17.167 -12 -28.5 -12z" />
    <glyph glyph-name="ldot" unicode="&#x140;" horiz-adv-x="288" 
d="M106 0v742h50v-742h-50zM274 314c-10.667 0 -19.667 3.83301 -27 11.5s-11 16.834 -11 27.501s3.66699 19.667 11 27s16.333 11 27 11s19.667 -3.66699 27 -11s11 -16.333 11 -27s-3.66699 -19.834 -11 -27.501s-16.333 -11.5 -27 -11.5z" />
    <glyph glyph-name="Lslash" unicode="&#x141;" horiz-adv-x="588" 
d="M125 0v700h51v-654h403v-46h-454zM52 268l-24 31l272 203l24 -31z" />
    <glyph glyph-name="lslash" unicode="&#x142;" horiz-adv-x="267" 
d="M109 0v742h50v-742h-50zM34 255l-23 31l221 166l24 -31z" />
    <glyph glyph-name="Nacute" unicode="&#x143;" horiz-adv-x="814" 
d="M122 0v700h43l499 -637h-23v637h51v-700h-42l-500 637h23v-637h-51zM350 757l139 118h72l-157 -118h-54z" />
    <glyph glyph-name="nacute" unicode="&#x144;" horiz-adv-x="673" 
d="M361 526c42.667 0 79.832 -8.16797 111.499 -24.501s56.334 -41 74.001 -74s26.5 -73.833 26.5 -122.5v-305h-50v301c0 58.667 -14.833 103.334 -44.5 134.001s-71.167 46 -124.5 46c-40.667 0 -76 -8.33301 -106 -25s-52.833 -40 -68.5 -70s-23.5 -66 -23.5 -108v-278
h-50v522h48v-145l-7 16c16 41.333 42.333 73.833 79 97.5s81.667 35.5 135 35.5zM280.998 606.999l139 118h72l-157 -118h-54z" />
    <glyph glyph-name="uni0145" unicode="&#x145;" horiz-adv-x="814" 
d="M122 0v700h43l499 -637h-23v637h51v-700h-42l-500 637h23v-637h-51zM378 -261l25.001 102l4 -21c-10 0 -18.5 3.33301 -25.5 10s-10.5 14.667 -10.5 24c0 10 3.33301 18.167 10 24.5s15.334 9.5 26.001 9.5c11.333 0 20.166 -3.5 26.499 -10.5s9.5 -14.833 9.5 -23.5
c0 -6 -0.833008 -12.333 -2.5 -19s-3.83398 -13.667 -6.50098 -21l-26 -75h-30z" />
    <glyph glyph-name="uni0146" unicode="&#x146;" horiz-adv-x="673" 
d="M361 526c42.667 0 79.832 -8.16797 111.499 -24.501s56.334 -41 74.001 -74s26.5 -73.833 26.5 -122.5v-305h-50v301c0 58.667 -14.833 103.334 -44.5 134.001s-71.167 46 -124.5 46c-40.667 0 -76 -8.33301 -106 -25s-52.833 -40 -68.5 -70s-23.5 -66 -23.5 -108v-278
h-50v522h48v-145l-7 16c16 41.333 42.333 73.833 79 97.5s81.667 35.5 135 35.5zM308.998 -261.001l25.001 102l4 -21c-10 0 -18.5 3.33301 -25.5 10s-10.5 14.667 -10.5 24c0 10 3.33301 18.167 10 24.5s15.334 9.5 26.001 9.5c11.333 0 20.166 -3.5 26.499 -10.5
s9.5 -14.833 9.5 -23.5c0 -6 -0.833008 -12.333 -2.5 -19s-3.83398 -13.667 -6.50098 -21l-26 -75h-30z" />
    <glyph glyph-name="Ncaron" unicode="&#x147;" horiz-adv-x="814" 
d="M122 0v700h43l499 -637h-23v637h51v-700h-42l-500 637h23v-637h-51zM379 757l-126 118h50l122 -101h-36l122 101h50l-126 -118h-56z" />
    <glyph glyph-name="ncaron" unicode="&#x148;" horiz-adv-x="673" 
d="M361 526c42.667 0 79.832 -8.16797 111.499 -24.501s56.334 -41 74.001 -74s26.5 -73.833 26.5 -122.5v-305h-50v301c0 58.667 -14.833 103.334 -44.5 134.001s-71.167 46 -124.5 46c-40.667 0 -76 -8.33301 -106 -25s-52.833 -40 -68.5 -70s-23.5 -66 -23.5 -108v-278
h-50v522h48v-145l-7 16c16 41.333 42.333 73.833 79 97.5s81.667 35.5 135 35.5zM309.998 606.999l-126 118h50l122 -101h-36l122 101h50l-126 -118h-56z" />
    <glyph glyph-name="napostrophe" unicode="&#x149;" horiz-adv-x="715" 
d="M40 522l39 169.001l5 -29c-12.667 0 -23.167 4 -31.5 12s-12.5 18 -12.5 30s4.16699 22 12.5 30s18.166 12 29.499 12c12.667 0 22.834 -4.16699 30.501 -12.5s11.5 -18.166 11.5 -29.499c0 -4.66699 -0.333008 -9.33398 -1 -14.001s-1.66699 -9.33398 -3 -14.001l-5 -18
l-39 -136h-36zM403 526.001c42.667 0 79.832 -8.16797 111.499 -24.501s56.334 -41 74.001 -74s26.5 -73.833 26.5 -122.5v-305h-50v301c0 58.667 -14.833 103.334 -44.5 134.001s-71.167 46 -124.5 46c-40.667 0 -76 -8.33301 -106 -25s-52.833 -40 -68.5 -70
s-23.5 -66 -23.5 -108v-278h-50v522h48v-145l-7 16c16 41.333 42.333 73.833 79 97.5s81.667 35.5 135 35.5z" />
    <glyph glyph-name="Eng" unicode="&#x14a;" horiz-adv-x="814" 
d="M122 0v700h43l499 -637l-14 -63l-500 637h23v-637h-51zM503 -198c-35.333 0 -68.666 8 -99.999 24s-57 38.333 -77 67l28 36c18 -26 39.833 -46.167 65.5 -60.5s53.5 -21.5 83.5 -21.5c92 0 138 55.333 138 166v687h51v-683c0 -72 -15.833 -125.833 -47.5 -161.5
s-78.834 -53.5 -141.501 -53.5z" />
    <glyph glyph-name="eng" unicode="&#x14b;" horiz-adv-x="673" 
d="M361 526c42.667 0 79.8311 -8.16797 111.498 -24.501s56.334 -41 74.001 -74s26.5 -73.833 26.5 -122.5v-357c0 -44 -12.167 -79.333 -36.5 -106s-59.166 -40 -104.499 -40c-20.667 0 -40.667 2.83301 -60 8.5s-35.333 14.5 -48 26.5l21 37
c21.333 -19.333 49.333 -29 84 -29c30.667 0 54 9 70 27s24 44 24 78v351c0 58.667 -14.833 103.334 -44.5 134.001s-71.167 46 -124.5 46c-40.667 0 -76 -8.33301 -106 -25s-52.833 -40 -68.5 -70s-23.5 -66 -23.5 -108v-278h-50v522h48v-145l-7 16
c16 41.333 42.333 73.833 79 97.5s81.667 35.5 135 35.5z" />
    <glyph glyph-name="Omacron" unicode="&#x14c;" horiz-adv-x="838" 
d="M419 -5c-52 0 -100.167 8.83301 -144.5 26.5s-83 42.667 -116 75s-58.5 70 -76.5 113s-27 89.833 -27 140.5s9 97.5 27 140.5s43.5 80.667 76.5 113s71.667 57.333 116 75s92.5 26.5 144.5 26.5s100.167 -8.83301 144.5 -26.5s82.833 -42.5 115.5 -74.5
s58.167 -69.5 76.5 -112.5s27.5 -90.167 27.5 -141.5s-9.16699 -98.5 -27.5 -141.5s-43.833 -80.5 -76.5 -112.5s-71.167 -56.833 -115.5 -74.5s-92.5 -26.5 -144.5 -26.5zM419 42c44.667 0 86 7.66699 124 23s71 37 99 65s49.833 60.667 65.5 98s23.5 78 23.5 122
c0 44.667 -7.83301 85.5 -23.5 122.5s-37.5 69.5 -65.5 97.5s-61 49.667 -99 65s-79.333 23 -124 23s-86 -7.66699 -124 -23s-71.167 -37 -99.5 -65s-50.333 -60.5 -66 -97.5s-23.5 -77.833 -23.5 -122.5c0 -44 7.83301 -84.667 23.5 -122s37.667 -70 66 -98
s61.5 -49.667 99.5 -65s79.333 -23 124 -23zM272 798v36h294v-36h-294z" />
    <glyph glyph-name="omacron" unicode="&#x14d;" horiz-adv-x="620" 
d="M310 -4c-50 0 -94.5 11.333 -133.5 34s-70 54 -93 94s-34.5 85.667 -34.5 137c0 52 11.5 97.833 34.5 137.5s54 70.834 93 93.501s83.5 34 133.5 34s94.667 -11.333 134 -34s70.333 -53.834 93 -93.501s34 -85.5 34 -137.5c0 -51.333 -11.333 -97 -34 -137
s-53.667 -71.333 -93 -94s-84 -34 -134 -34zM310 41c40 0 76 9.16699 108 27.5s57 44.166 75 77.499s27 71.666 27 114.999c0 44 -9 82.5 -27 115.5s-43 58.667 -75 77s-68 27.5 -108 27.5s-75.833 -9.16699 -107.5 -27.5s-56.667 -44 -75 -77s-27.5 -71.5 -27.5 -115.5
c0 -43.333 9.16699 -81.666 27.5 -114.999s43.333 -59.166 75 -77.499s67.5 -27.5 107.5 -27.5zM163 648v36h294v-36h-294z" />
    <glyph glyph-name="Obreve" unicode="&#x14e;" horiz-adv-x="838" 
d="M419 -5c-52 0 -100.167 8.83301 -144.5 26.5s-83 42.667 -116 75s-58.5 70 -76.5 113s-27 89.833 -27 140.5s9 97.5 27 140.5s43.5 80.667 76.5 113s71.667 57.333 116 75s92.5 26.5 144.5 26.5s100.167 -8.83301 144.5 -26.5s82.833 -42.5 115.5 -74.5
s58.167 -69.5 76.5 -112.5s27.5 -90.167 27.5 -141.5s-9.16699 -98.5 -27.5 -141.5s-43.833 -80.5 -76.5 -112.5s-71.167 -56.833 -115.5 -74.5s-92.5 -26.5 -144.5 -26.5zM419 42c44.667 0 86 7.66699 124 23s71 37 99 65s49.833 60.667 65.5 98s23.5 78 23.5 122
c0 44.667 -7.83301 85.5 -23.5 122.5s-37.5 69.5 -65.5 97.5s-61 49.667 -99 65s-79.333 23 -124 23s-86 -7.66699 -124 -23s-71.167 -37 -99.5 -65s-50.333 -60.5 -66 -97.5s-23.5 -77.833 -23.5 -122.5c0 -44 7.83301 -84.667 23.5 -122s37.667 -70 66 -98
s61.5 -49.667 99.5 -65s79.333 -23 124 -23zM419 753c-39.333 0 -72.835 11 -100.502 33s-42.167 51.667 -43.5 89h37c1.33301 -27.333 12.333 -49 33 -65s45.334 -24 74.001 -24c29.333 0 54.333 8 75 24s31.334 37.667 32.001 65h37
c-1.33301 -37.333 -15.833 -67 -43.5 -89s-61.167 -33 -100.5 -33z" />
    <glyph glyph-name="obreve" unicode="&#x14f;" horiz-adv-x="620" 
d="M310 -4c-50 0 -94.5 11.333 -133.5 34s-70 54 -93 94s-34.5 85.667 -34.5 137c0 52 11.5 97.833 34.5 137.5s54 70.834 93 93.501s83.5 34 133.5 34s94.667 -11.333 134 -34s70.333 -53.834 93 -93.501s34 -85.5 34 -137.5c0 -51.333 -11.333 -97 -34 -137
s-53.667 -71.333 -93 -94s-84 -34 -134 -34zM310 41c40 0 76 9.16699 108 27.5s57 44.166 75 77.499s27 71.666 27 114.999c0 44 -9 82.5 -27 115.5s-43 58.667 -75 77s-68 27.5 -108 27.5s-75.833 -9.16699 -107.5 -27.5s-56.667 -44 -75 -77s-27.5 -71.5 -27.5 -115.5
c0 -43.333 9.16699 -81.666 27.5 -114.999s43.333 -59.166 75 -77.499s67.5 -27.5 107.5 -27.5zM310 603c-39.333 0 -72.835 11 -100.502 33s-42.167 51.667 -43.5 89h37c1.33301 -27.333 12.333 -49 33 -65s45.334 -24 74.001 -24c29.333 0 54.333 8 75 24
s31.334 37.667 32.001 65h37c-1.33301 -37.333 -15.833 -67 -43.5 -89s-61.167 -33 -100.5 -33z" />
    <glyph glyph-name="Ohungarumlaut" unicode="&#x150;" horiz-adv-x="838" 
d="M419 -5c-52 0 -100.167 8.83301 -144.5 26.5s-83 42.667 -116 75s-58.5 70 -76.5 113s-27 89.833 -27 140.5s9 97.5 27 140.5s43.5 80.667 76.5 113s71.667 57.333 116 75s92.5 26.5 144.5 26.5s100.167 -8.83301 144.5 -26.5s82.833 -42.5 115.5 -74.5
s58.167 -69.5 76.5 -112.5s27.5 -90.167 27.5 -141.5s-9.16699 -98.5 -27.5 -141.5s-43.833 -80.5 -76.5 -112.5s-71.167 -56.833 -115.5 -74.5s-92.5 -26.5 -144.5 -26.5zM419 42c44.667 0 86 7.66699 124 23s71 37 99 65s49.833 60.667 65.5 98s23.5 78 23.5 122
c0 44.667 -7.83301 85.5 -23.5 122.5s-37.5 69.5 -65.5 97.5s-61 49.667 -99 65s-79.333 23 -124 23s-86 -7.66699 -124 -23s-71.167 -37 -99.5 -65s-50.333 -60.5 -66 -97.5s-23.5 -77.833 -23.5 -122.5c0 -44 7.83301 -84.667 23.5 -122s37.667 -70 66 -98
s61.5 -49.667 99.5 -65s79.333 -23 124 -23zM471 757l103 118h60l-114 -118h-49zM318 757l103 118h61l-115 -118h-49z" />
    <glyph glyph-name="ohungarumlaut" unicode="&#x151;" horiz-adv-x="620" 
d="M310 -4c-50 0 -94.5 11.333 -133.5 34s-70 54 -93 94s-34.5 85.667 -34.5 137c0 52 11.5 97.833 34.5 137.5s54 70.834 93 93.501s83.5 34 133.5 34s94.667 -11.333 134 -34s70.333 -53.834 93 -93.501s34 -85.5 34 -137.5c0 -51.333 -11.333 -97 -34 -137
s-53.667 -71.333 -93 -94s-84 -34 -134 -34zM310 41c40 0 76 9.16699 108 27.5s57 44.166 75 77.499s27 71.666 27 114.999c0 44 -9 82.5 -27 115.5s-43 58.667 -75 77s-68 27.5 -108 27.5s-75.833 -9.16699 -107.5 -27.5s-56.667 -44 -75 -77s-27.5 -71.5 -27.5 -115.5
c0 -43.333 9.16699 -81.666 27.5 -114.999s43.333 -59.166 75 -77.499s67.5 -27.5 107.5 -27.5zM362 607l103 118h60l-114 -118h-49zM209 607l103 118h61l-115 -118h-49z" />
    <glyph glyph-name="OE" unicode="&#x152;" horiz-adv-x="1117" 
d="M427 0c-74 0 -138.833 14.833 -194.5 44.5s-99.167 70.834 -130.5 123.501s-47 113 -47 181s15.667 128.5 47 181.5s74.833 94.5 130.5 124.5s120.5 45 194.5 45h157v-46h-155c-64.667 0 -121.167 -13 -169.5 -39s-86 -62 -113 -108s-40.5 -98.667 -40.5 -158
s13.5 -111.833 40.5 -157.5s64.667 -81.334 113 -107.001s104.833 -38.5 169.5 -38.5h155v-46h-157zM616 378h378v-45h-378v45zM622 46h431v-46h-482v700h468v-46h-417v-608z" />
    <glyph glyph-name="oe" unicode="&#x153;" horiz-adv-x="1069" 
d="M310 -4c-50 0 -94.5 11.333 -133.5 34s-70 54 -93 94s-34.5 85.667 -34.5 137c0 52 11.5 97.833 34.5 137.5s54 70.834 93 93.501s83.5 34 133.5 34s94.167 -11.333 132.5 -34s68.5 -53.834 90.5 -93.501s33 -85.5 33 -137.5c0 -51.333 -11 -97 -33 -137
s-52.167 -71.333 -90.5 -94s-82.5 -34 -132.5 -34zM310 41c40 0 76 9.16699 108 27.5s57 44.166 75 77.499s27 71.666 27 114.999c0 44 -9 82.5 -27 115.5s-43 58.667 -75 77s-68 27.5 -108 27.5s-75.833 -9.16699 -107.5 -27.5s-56.667 -44 -75 -77
s-27.5 -71.5 -27.5 -115.5c0 -43.333 9.16699 -81.666 27.5 -114.999s43.333 -59.166 75 -77.499s67.5 -27.5 107.5 -27.5zM790 -4c-52.667 0 -99.0039 11.3311 -139.004 33.998s-71.167 54 -93.5 94s-33.5 85.667 -33.5 137c0 52 10.667 97.833 32 137.5
s50.5 70.834 87.5 93.501s79.5 34 127.5 34c47.333 0 89.833 -11 127.5 -33s67.167 -52.833 88.5 -92.5s32 -85.5 32 -137.5v-6.5v-7.5h-462v39h435l-20 -19c0 40.667 -8.66699 77.167 -26 109.5s-41.166 57.666 -71.499 75.999s-64.833 27.5 -103.5 27.5
s-73.167 -9.16699 -103.5 -27.5s-54.166 -43.666 -71.499 -75.999s-26 -69.166 -26 -110.499v-9c0 -42.667 9.33301 -80.5 28 -113.5s44.834 -58.667 78.501 -77s71.834 -27.5 114.501 -27.5c33.333 0 64.5 6 93.5 18s53.5 30.333 73.5 55l29 -33
c-23.333 -28 -52 -49.167 -86 -63.5s-71 -21.5 -111 -21.5z" />
    <glyph glyph-name="Racute" unicode="&#x154;" horiz-adv-x="720" 
d="M122 0v700h251c58.667 0 109 -9.33301 151 -28s74.333 -45.5 97 -80.5s34 -77.5 34 -127.5c0 -48.667 -11.333 -90.5 -34 -125.5s-55 -62 -97 -81s-92.333 -28.5 -151 -28.5h-223l23 24v-253h-51zM608 0l-182 254h58l182 -254h-58zM173 250l-23 24h223
c75.333 0 132.5 16.667 171.5 50s58.5 80 58.5 140c0 60.667 -19.5 107.5 -58.5 140.5s-96.167 49.5 -171.5 49.5h-223l23 25v-429zM311 757l139 118h72l-157 -118h-54z" />
    <glyph glyph-name="racute" unicode="&#x155;" horiz-adv-x="394" 
d="M106 0l-0.000976562 522h48v-143l-5 16c14.667 42 39.334 74.333 74.001 97s78 34 130 34v-49c-2 0 -4 0.166992 -6 0.5s-4 0.5 -6 0.5c-58 0 -103.333 -18.167 -136 -54.5s-49 -86.833 -49 -151.5v-272h-50zM172.999 607l139 118h72l-157 -118h-54z" />
    <glyph glyph-name="uni0156" unicode="&#x156;" horiz-adv-x="720" 
d="M122 0v700h251c58.667 0 109 -9.33301 151 -28s74.333 -45.5 97 -80.5s34 -77.5 34 -127.5c0 -48.667 -11.333 -90.5 -34 -125.5s-55 -62 -97 -81s-92.333 -28.5 -151 -28.5h-223l23 24v-253h-51zM608 0l-182 254h58l182 -254h-58zM173 250l-23 24h223
c75.333 0 132.5 16.667 171.5 50s58.5 80 58.5 140c0 60.667 -19.5 107.5 -58.5 140.5s-96.167 49.5 -171.5 49.5h-223l23 25v-429zM339 -261l25.001 102l4 -21c-10 0 -18.5 3.33301 -25.5 10s-10.5 14.667 -10.5 24c0 10 3.33301 18.167 10 24.5s15.334 9.5 26.001 9.5
c11.333 0 20.166 -3.5 26.499 -10.5s9.5 -14.833 9.5 -23.5c0 -6 -0.833008 -12.333 -2.5 -19s-3.83398 -13.667 -6.50098 -21l-26 -75h-30z" />
    <glyph glyph-name="uni0157" unicode="&#x157;" horiz-adv-x="394" 
d="M106 0l-0.000976562 522h48v-143l-5 16c14.667 42 39.334 74.333 74.001 97s78 34 130 34v-49c-2 0 -4 0.166992 -6 0.5s-4 0.5 -6 0.5c-58 0 -103.333 -18.167 -136 -54.5s-49 -86.833 -49 -151.5v-272h-50zM101.999 -261l25.001 102l4 -21
c-10 0 -18.5 3.33301 -25.5 10s-10.5 14.667 -10.5 24c0 10 3.33301 18.167 10 24.5s15.334 9.5 26.001 9.5c11.333 0 20.166 -3.5 26.499 -10.5s9.5 -14.833 9.5 -23.5c0 -6 -0.833008 -12.333 -2.5 -19s-3.83398 -13.667 -6.50098 -21l-26 -75h-30z" />
    <glyph glyph-name="Rcaron" unicode="&#x158;" horiz-adv-x="720" 
d="M122 0v700h251c58.667 0 109 -9.33301 151 -28s74.333 -45.5 97 -80.5s34 -77.5 34 -127.5c0 -48.667 -11.333 -90.5 -34 -125.5s-55 -62 -97 -81s-92.333 -28.5 -151 -28.5h-223l23 24v-253h-51zM608 0l-182 254h58l182 -254h-58zM173 250l-23 24h223
c75.333 0 132.5 16.667 171.5 50s58.5 80 58.5 140c0 60.667 -19.5 107.5 -58.5 140.5s-96.167 49.5 -171.5 49.5h-223l23 25v-429zM340 757l-126 118h50l122 -101h-36l122 101h50l-126 -118h-56z" />
    <glyph glyph-name="rcaron" unicode="&#x159;" horiz-adv-x="394" 
d="M106 0l-0.000976562 522h48v-143l-5 16c14.667 42 39.334 74.333 74.001 97s78 34 130 34v-49c-2 0 -4 0.166992 -6 0.5s-4 0.5 -6 0.5c-58 0 -103.333 -18.167 -136 -54.5s-49 -86.833 -49 -151.5v-272h-50zM201.999 607l-126 118h50l122 -101h-36l122 101h50l-126 -118
h-56z" />
    <glyph glyph-name="Sacute" unicode="&#x15a;" horiz-adv-x="609" 
d="M306 -5c-52 0 -101.172 8.83203 -147.505 26.499s-82.166 40.5 -107.499 68.5l23 38c24 -24.667 56.833 -45.5 98.5 -62.5s85.834 -25.5 132.501 -25.5s84.834 6.16699 114.501 18.5s51.667 28.833 66 49.5s21.5 43.667 21.5 69c0 30 -8 54 -24 72s-37 32.333 -63 43
s-54.333 19.667 -85 27s-61.667 15.166 -93 23.499s-60 19.166 -86 32.499s-46.833 31.5 -62.5 54.5s-23.5 52.833 -23.5 89.5c0 33.333 8.66699 64 26 92s44.333 50.667 81 68s83.667 26 141 26c38.667 0 76.834 -5.66699 114.501 -17s69.834 -26.666 96.501 -45.999
l-19 -41c-29.333 20 -60.833 34.833 -94.5 44.5s-66.167 14.5 -97.5 14.5c-44.667 0 -81.667 -6.33301 -111 -19s-51 -29.5 -65 -50.5s-21 -44.5 -21 -70.5c0 -30 7.83301 -54 23.5 -72s36.5 -32.333 62.5 -43s54.667 -19.667 86 -27s62.333 -15.166 93 -23.499
s59 -19.166 85 -32.499s47 -31.333 63 -54s24 -52 24 -88c0 -32.667 -9 -63.167 -27 -91.5s-45.5 -51 -82.5 -68s-84.5 -25.5 -142.5 -25.5zM262.995 756.999l139 118h72l-157 -118h-54z" />
    <glyph glyph-name="sacute" unicode="&#x15b;" horiz-adv-x="478" 
d="M238 -4c-43.333 0 -83.8291 6.33203 -121.496 18.999s-66.834 28.667 -87.501 48l23 40c20 -17.333 46.667 -32.166 80 -44.499s69.333 -18.5 108 -18.5c54.667 0 94 9 118 27s36 41.667 36 71c0 21.333 -6.16699 38.166 -18.5 50.499s-28.833 21.833 -49.5 28.5
s-43.334 12.167 -68.001 16.5s-49.334 9.16602 -74.001 14.499s-47.334 13 -68.001 23s-37.167 23.833 -49.5 41.5s-18.5 41.167 -18.5 70.5c0 26.667 7.33301 50.667 22 72s36.667 38.5 66 51.5s66 19.5 110 19.5c32.667 0 65.5 -4.66699 98.5 -14
s59.833 -21.666 80.5 -36.999l-23 -40c-22 16.667 -46.667 28.667 -74 36s-55 11 -83 11c-50.667 0 -87.834 -9.33301 -111.501 -28s-35.5 -42 -35.5 -70c0 -22 6.16699 -39.5 18.5 -52.5s28.833 -23 49.5 -30s43.334 -12.667 68.001 -17s49.334 -9.16602 74.001 -14.499
s47.334 -12.833 68.001 -22.5s37.167 -23 49.5 -40s18.5 -39.833 18.5 -68.5s-7.83301 -53.667 -23.5 -75s-38.834 -38 -69.501 -50s-68.334 -18 -113.001 -18zM181.004 606.999l139 118h72l-157 -118h-54z" />
    <glyph glyph-name="Scircumflex" unicode="&#x15c;" horiz-adv-x="609" 
d="M306 -5c-52 0 -101.172 8.83203 -147.505 26.499s-82.166 40.5 -107.499 68.5l23 38c24 -24.667 56.833 -45.5 98.5 -62.5s85.834 -25.5 132.501 -25.5s84.834 6.16699 114.501 18.5s51.667 28.833 66 49.5s21.5 43.667 21.5 69c0 30 -8 54 -24 72s-37 32.333 -63 43
s-54.333 19.667 -85 27s-61.667 15.166 -93 23.499s-60 19.166 -86 32.499s-46.833 31.5 -62.5 54.5s-23.5 52.833 -23.5 89.5c0 33.333 8.66699 64 26 92s44.333 50.667 81 68s83.667 26 141 26c38.667 0 76.834 -5.66699 114.501 -17s69.834 -26.666 96.501 -45.999
l-19 -41c-29.333 20 -60.833 34.833 -94.5 44.5s-66.167 14.5 -97.5 14.5c-44.667 0 -81.667 -6.33301 -111 -19s-51 -29.5 -65 -50.5s-21 -44.5 -21 -70.5c0 -30 7.83301 -54 23.5 -72s36.5 -32.333 62.5 -43s54.667 -19.667 86 -27s62.333 -15.166 93 -23.499
s59 -19.166 85 -32.499s47 -31.333 63 -54s24 -52 24 -88c0 -32.667 -9 -63.167 -27 -91.5s-45.5 -51 -82.5 -68s-84.5 -25.5 -142.5 -25.5zM165.995 756.999l126 118h56l126 -118h-50l-122 102h36l-122 -102h-50z" />
    <glyph glyph-name="scircumflex" unicode="&#x15d;" horiz-adv-x="478" 
d="M238 -4c-43.333 0 -83.8291 6.33203 -121.496 18.999s-66.834 28.667 -87.501 48l23 40c20 -17.333 46.667 -32.166 80 -44.499s69.333 -18.5 108 -18.5c54.667 0 94 9 118 27s36 41.667 36 71c0 21.333 -6.16699 38.166 -18.5 50.499s-28.833 21.833 -49.5 28.5
s-43.334 12.167 -68.001 16.5s-49.334 9.16602 -74.001 14.499s-47.334 13 -68.001 23s-37.167 23.833 -49.5 41.5s-18.5 41.167 -18.5 70.5c0 26.667 7.33301 50.667 22 72s36.667 38.5 66 51.5s66 19.5 110 19.5c32.667 0 65.5 -4.66699 98.5 -14
s59.833 -21.666 80.5 -36.999l-23 -40c-22 16.667 -46.667 28.667 -74 36s-55 11 -83 11c-50.667 0 -87.834 -9.33301 -111.501 -28s-35.5 -42 -35.5 -70c0 -22 6.16699 -39.5 18.5 -52.5s28.833 -23 49.5 -30s43.334 -12.667 68.001 -17s49.334 -9.16602 74.001 -14.499
s47.334 -12.833 68.001 -22.5s37.167 -23 49.5 -40s18.5 -39.833 18.5 -68.5s-7.83301 -53.667 -23.5 -75s-38.834 -38 -69.501 -50s-68.334 -18 -113.001 -18zM84.0039 606.999l126 118h56l126 -118h-50l-122 102h36l-122 -102h-50z" />
    <glyph glyph-name="Scedilla" unicode="&#x15e;" horiz-adv-x="609" 
d="M306 -5c-52 0 -101.172 8.83203 -147.505 26.499s-82.166 40.5 -107.499 68.5l23 38c24 -24.667 56.833 -45.5 98.5 -62.5s85.834 -25.5 132.501 -25.5s84.834 6.16699 114.501 18.5s51.667 28.833 66 49.5s21.5 43.667 21.5 69c0 30 -8 54 -24 72s-37 32.333 -63 43
s-54.333 19.667 -85 27s-61.667 15.166 -93 23.499s-60 19.166 -86 32.499s-46.833 31.5 -62.5 54.5s-23.5 52.833 -23.5 89.5c0 33.333 8.66699 64 26 92s44.333 50.667 81 68s83.667 26 141 26c38.667 0 76.834 -5.66699 114.501 -17s69.834 -26.666 96.501 -45.999
l-19 -41c-29.333 20 -60.833 34.833 -94.5 44.5s-66.167 14.5 -97.5 14.5c-44.667 0 -81.667 -6.33301 -111 -19s-51 -29.5 -65 -50.5s-21 -44.5 -21 -70.5c0 -30 7.83301 -54 23.5 -72s36.5 -32.333 62.5 -43s54.667 -19.667 86 -27s62.333 -15.166 93 -23.499
s59 -19.166 85 -32.499s47 -31.333 63 -54s24 -52 24 -88c0 -32.667 -9 -63.167 -27 -91.5s-45.5 -51 -82.5 -68s-84.5 -25.5 -142.5 -25.5zM299.995 -217.001c-15.333 0 -29.5 2.00098 -42.5 6.00098s-25.167 10.333 -36.5 19l14 28
c9.33301 -6.66699 19.5 -11.834 30.5 -15.501s22.5 -5.5 34.5 -5.5c20 0 36 4.66699 48 14s18 22.333 18 39c0 14.667 -5.66699 26.834 -17 36.501s-27.666 14.5 -48.999 14.5h-20l23 87h33l-16 -60c26.667 -1.33301 47.5 -9.33301 62.5 -24s22.5 -33.334 22.5 -56.001
c0 -25.333 -9.83301 -45.5 -29.5 -60.5s-44.834 -22.5 -75.501 -22.5z" />
    <glyph glyph-name="scedilla" unicode="&#x15f;" horiz-adv-x="478" 
d="M238 -4c-43.333 0 -83.8291 6.33203 -121.496 18.999s-66.834 28.667 -87.501 48l23 40c20 -17.333 46.667 -32.166 80 -44.499s69.333 -18.5 108 -18.5c54.667 0 94 9 118 27s36 41.667 36 71c0 21.333 -6.16699 38.166 -18.5 50.499s-28.833 21.833 -49.5 28.5
s-43.334 12.167 -68.001 16.5s-49.334 9.16602 -74.001 14.499s-47.334 13 -68.001 23s-37.167 23.833 -49.5 41.5s-18.5 41.167 -18.5 70.5c0 26.667 7.33301 50.667 22 72s36.667 38.5 66 51.5s66 19.5 110 19.5c32.667 0 65.5 -4.66699 98.5 -14
s59.833 -21.666 80.5 -36.999l-23 -40c-22 16.667 -46.667 28.667 -74 36s-55 11 -83 11c-50.667 0 -87.834 -9.33301 -111.501 -28s-35.5 -42 -35.5 -70c0 -22 6.16699 -39.5 18.5 -52.5s28.833 -23 49.5 -30s43.334 -12.667 68.001 -17s49.334 -9.16602 74.001 -14.499
s47.334 -12.833 68.001 -22.5s37.167 -23 49.5 -40s18.5 -39.833 18.5 -68.5s-7.83301 -53.667 -23.5 -75s-38.834 -38 -69.501 -50s-68.334 -18 -113.001 -18zM218.004 -217.001c-15.333 0 -29.5 2.00098 -42.5 6.00098s-25.167 10.333 -36.5 19l14 28
c9.33301 -6.66699 19.5 -11.834 30.5 -15.501s22.5 -5.5 34.5 -5.5c20 0 36 4.66699 48 14s18 22.333 18 39c0 14.667 -5.66699 26.834 -17 36.501s-27.666 14.5 -48.999 14.5h-20l23 87h33l-16 -60c26.667 -1.33301 47.5 -9.33301 62.5 -24s22.5 -33.334 22.5 -56.001
c0 -25.333 -9.83301 -45.5 -29.5 -60.5s-44.834 -22.5 -75.501 -22.5z" />
    <glyph glyph-name="Scaron" unicode="&#x160;" horiz-adv-x="609" 
d="M306 -5c-52 0 -101.172 8.83203 -147.505 26.499s-82.166 40.5 -107.499 68.5l23 38c24 -24.667 56.833 -45.5 98.5 -62.5s85.834 -25.5 132.501 -25.5s84.834 6.16699 114.501 18.5s51.667 28.833 66 49.5s21.5 43.667 21.5 69c0 30 -8 54 -24 72s-37 32.333 -63 43
s-54.333 19.667 -85 27s-61.667 15.166 -93 23.499s-60 19.166 -86 32.499s-46.833 31.5 -62.5 54.5s-23.5 52.833 -23.5 89.5c0 33.333 8.66699 64 26 92s44.333 50.667 81 68s83.667 26 141 26c38.667 0 76.834 -5.66699 114.501 -17s69.834 -26.666 96.501 -45.999
l-19 -41c-29.333 20 -60.833 34.833 -94.5 44.5s-66.167 14.5 -97.5 14.5c-44.667 0 -81.667 -6.33301 -111 -19s-51 -29.5 -65 -50.5s-21 -44.5 -21 -70.5c0 -30 7.83301 -54 23.5 -72s36.5 -32.333 62.5 -43s54.667 -19.667 86 -27s62.333 -15.166 93 -23.499
s59 -19.166 85 -32.499s47 -31.333 63 -54s24 -52 24 -88c0 -32.667 -9 -63.167 -27 -91.5s-45.5 -51 -82.5 -68s-84.5 -25.5 -142.5 -25.5zM291.995 756.999l-126 118h50l122 -101h-36l122 101h50l-126 -118h-56z" />
    <glyph glyph-name="scaron" unicode="&#x161;" horiz-adv-x="478" 
d="M238 -4c-43.333 0 -83.8291 6.33203 -121.496 18.999s-66.834 28.667 -87.501 48l23 40c20 -17.333 46.667 -32.166 80 -44.499s69.333 -18.5 108 -18.5c54.667 0 94 9 118 27s36 41.667 36 71c0 21.333 -6.16699 38.166 -18.5 50.499s-28.833 21.833 -49.5 28.5
s-43.334 12.167 -68.001 16.5s-49.334 9.16602 -74.001 14.499s-47.334 13 -68.001 23s-37.167 23.833 -49.5 41.5s-18.5 41.167 -18.5 70.5c0 26.667 7.33301 50.667 22 72s36.667 38.5 66 51.5s66 19.5 110 19.5c32.667 0 65.5 -4.66699 98.5 -14
s59.833 -21.666 80.5 -36.999l-23 -40c-22 16.667 -46.667 28.667 -74 36s-55 11 -83 11c-50.667 0 -87.834 -9.33301 -111.501 -28s-35.5 -42 -35.5 -70c0 -22 6.16699 -39.5 18.5 -52.5s28.833 -23 49.5 -30s43.334 -12.667 68.001 -17s49.334 -9.16602 74.001 -14.499
s47.334 -12.833 68.001 -22.5s37.167 -23 49.5 -40s18.5 -39.833 18.5 -68.5s-7.83301 -53.667 -23.5 -75s-38.834 -38 -69.501 -50s-68.334 -18 -113.001 -18zM210.004 606.999l-126 118h50l122 -101h-36l122 101h50l-126 -118h-56z" />
    <glyph glyph-name="uni0162" unicode="&#x162;" horiz-adv-x="563" 
d="M256 0v654h-252v46h555v-46h-252v-654h-51zM262 -217c-15.333 0 -29.5 2.00098 -42.5 6.00098s-25.167 10.333 -36.5 19l14 28c9.33301 -6.66699 19.5 -11.834 30.5 -15.501s22.5 -5.5 34.5 -5.5c20 0 36 4.66699 48 14s18 22.333 18 39
c0 14.667 -5.66699 26.834 -17 36.501s-27.666 14.5 -48.999 14.5h-20l23 87h33l-16 -60c26.667 -1.33301 47.5 -9.33301 62.5 -24s22.5 -33.334 22.5 -56.001c0 -25.333 -9.83301 -45.5 -29.5 -60.5s-44.834 -22.5 -75.501 -22.5z" />
    <glyph glyph-name="uni0163" unicode="&#x163;" horiz-adv-x="398" 
d="M258 -4c-46 0 -81.167 12.667 -105.5 38s-36.5 60 -36.5 104v498h50v-493c0 -33.333 8.33301 -59 25 -77s40.667 -27 72 -27c32.667 0 59.667 9.66699 81 29l21 -35c-13.333 -12.667 -29.5 -22 -48.5 -28s-38.5 -9 -58.5 -9zM20 479v43h312v-43h-312zM226 -217
c-15.333 0 -29.5 2.00098 -42.5 6.00098s-25.167 10.333 -36.5 19l14 28c9.33301 -6.66699 19.5 -11.834 30.5 -15.501s22.5 -5.5 34.5 -5.5c20 0 36 4.66699 48 14s18 22.333 18 39c0 14.667 -5.66699 26.834 -17 36.501s-27.666 14.5 -48.999 14.5h-20l23 87h33l-16 -60
c26.667 -1.33301 47.5 -9.33301 62.5 -24s22.5 -33.334 22.5 -56.001c0 -25.333 -9.83301 -45.5 -29.5 -60.5s-44.834 -22.5 -75.501 -22.5z" />
    <glyph glyph-name="Tcaron" unicode="&#x164;" horiz-adv-x="563" 
d="M256 0v654h-252v46h555v-46h-252v-654h-51zM254 757l-126 118h50l122 -101h-36l122 101h50l-126 -118h-56z" />
    <glyph glyph-name="tcaron" unicode="&#x165;" horiz-adv-x="398" 
d="M258 -4c-46 0 -81.167 12.667 -105.5 38s-36.5 60 -36.5 104v498h50v-493c0 -33.333 8.33301 -59 25 -77s40.667 -27 72 -27c32.667 0 59.667 9.66699 81 29l21 -35c-13.333 -12.667 -29.5 -22 -48.5 -28s-38.5 -9 -58.5 -9zM20 479v43h312v-43h-312zM263 600v163h42
l-7 -163h-35z" />
    <glyph glyph-name="Tbar" unicode="&#x166;" horiz-adv-x="563" 
d="M256 0v654h-252v46h555v-46h-252v-654h-51zM94 328v43h376v-43h-376z" />
    <glyph glyph-name="tbar" unicode="&#x167;" horiz-adv-x="408" 
d="M263 -4c-46 0 -81.167 12.667 -105.5 38s-36.5 60 -36.5 104v498h50v-493c0 -33.333 8.33301 -59 25 -77s40.667 -27 72 -27c32.667 0 59.667 9.66699 81 29l21 -35c-13.333 -12.667 -29.5 -22 -48.5 -28s-38.5 -9 -58.5 -9zM25 479v43h312v-43h-312zM36 281v38h290v-38
h-290z" />
    <glyph glyph-name="Utilde" unicode="&#x168;" horiz-adv-x="793" 
d="M396 -5c-86.667 0 -155 25.333 -205 76s-75 126 -75 226v403h51v-401c0 -87.333 20 -152 60 -194s96.667 -63 170 -63c72.667 0 129 21 169 63s60 106.667 60 194v401h51v-403c0 -100 -25 -175.333 -75 -226s-118.667 -76 -206 -76zM463 765
c-14.667 0 -27.8389 3.49902 -39.5059 10.499s-22.167 15 -31.5 24s-18.666 17 -27.999 24s-19.333 10.5 -30 10.5c-15.333 0 -27.666 -5.83301 -36.999 -17.5s-14.666 -27.5 -15.999 -47.5h-33c1.33301 30 9.5 54.167 24.5 72.5s34.5 27.5 58.5 27.5
c14.667 0 27.834 -3.5 39.501 -10.5s22.334 -15 32.001 -24s19 -17 28 -24s18.833 -10.5 29.5 -10.5c15.333 0 27.833 5.83301 37.5 17.5s14.834 26.834 15.501 45.501h33c-0.666992 -28.667 -8.66699 -52.167 -24 -70.5s-35 -27.5 -59 -27.5z" />
    <glyph glyph-name="utilde" unicode="&#x169;" horiz-adv-x="669" 
d="M318 -4c-44.667 0 -83.332 8.16992 -115.999 24.5029s-57.834 41 -75.501 74s-26.5 73.833 -26.5 122.5v305h50v-301c0 -58.667 15 -103.334 45 -134.001s72.333 -46 127 -46c39.333 0 73.333 8.33301 102 25s50.667 40.167 66 70.5s23 66.166 23 107.499v278h50v-522
h-48v145l7 -17c-15.333 -40.667 -40.833 -72.834 -76.5 -96.501s-78.167 -35.5 -127.5 -35.5zM398.002 615.003c-14.667 0 -27.8389 3.49902 -39.5059 10.499s-22.167 15 -31.5 24s-18.666 17 -27.999 24s-19.333 10.5 -30 10.5c-15.333 0 -27.666 -5.83301 -36.999 -17.5
s-14.666 -27.5 -15.999 -47.5h-33c1.33301 30 9.5 54.167 24.5 72.5s34.5 27.5 58.5 27.5c14.667 0 27.834 -3.5 39.501 -10.5s22.334 -15 32.001 -24s19 -17 28 -24s18.833 -10.5 29.5 -10.5c15.333 0 27.833 5.83301 37.5 17.5s14.834 26.834 15.501 45.501h33
c-0.666992 -28.667 -8.66699 -52.167 -24 -70.5s-35 -27.5 -59 -27.5z" />
    <glyph glyph-name="Umacron" unicode="&#x16a;" horiz-adv-x="793" 
d="M396 -5c-86.667 0 -155 25.333 -205 76s-75 126 -75 226v403h51v-401c0 -87.333 20 -152 60 -194s96.667 -63 170 -63c72.667 0 129 21 169 63s60 106.667 60 194v401h51v-403c0 -100 -25 -175.333 -75 -226s-118.667 -76 -206 -76zM250 798v36h294v-36h-294z" />
    <glyph glyph-name="umacron" unicode="&#x16b;" horiz-adv-x="669" 
d="M318 -4c-44.667 0 -83.332 8.16992 -115.999 24.5029s-57.834 41 -75.501 74s-26.5 73.833 -26.5 122.5v305h50v-301c0 -58.667 15 -103.334 45 -134.001s72.333 -46 127 -46c39.333 0 73.333 8.33301 102 25s50.667 40.167 66 70.5s23 66.166 23 107.499v278h50v-522
h-48v145l7 -17c-15.333 -40.667 -40.833 -72.834 -76.5 -96.501s-78.167 -35.5 -127.5 -35.5zM185.002 648.003v36h294v-36h-294z" />
    <glyph glyph-name="Ubreve" unicode="&#x16c;" horiz-adv-x="793" 
d="M396 -5c-86.667 0 -155 25.333 -205 76s-75 126 -75 226v403h51v-401c0 -87.333 20 -152 60 -194s96.667 -63 170 -63c72.667 0 129 21 169 63s60 106.667 60 194v401h51v-403c0 -100 -25 -175.333 -75 -226s-118.667 -76 -206 -76zM397 753
c-39.333 0 -72.835 11 -100.502 33s-42.167 51.667 -43.5 89h37c1.33301 -27.333 12.333 -49 33 -65s45.334 -24 74.001 -24c29.333 0 54.333 8 75 24s31.334 37.667 32.001 65h37c-1.33301 -37.333 -15.833 -67 -43.5 -89s-61.167 -33 -100.5 -33z" />
    <glyph glyph-name="ubreve" unicode="&#x16d;" horiz-adv-x="669" 
d="M318 -4c-44.667 0 -83.332 8.16992 -115.999 24.5029s-57.834 41 -75.501 74s-26.5 73.833 -26.5 122.5v305h50v-301c0 -58.667 15 -103.334 45 -134.001s72.333 -46 127 -46c39.333 0 73.333 8.33301 102 25s50.667 40.167 66 70.5s23 66.166 23 107.499v278h50v-522
h-48v145l7 -17c-15.333 -40.667 -40.833 -72.834 -76.5 -96.501s-78.167 -35.5 -127.5 -35.5zM332.002 603.003c-39.333 0 -72.835 11 -100.502 33s-42.167 51.667 -43.5 89h37c1.33301 -27.333 12.333 -49 33 -65s45.334 -24 74.001 -24c29.333 0 54.333 8 75 24
s31.334 37.667 32.001 65h37c-1.33301 -37.333 -15.833 -67 -43.5 -89s-61.167 -33 -100.5 -33z" />
    <glyph glyph-name="Uring" unicode="&#x16e;" horiz-adv-x="793" 
d="M396 -5c-86.667 0 -155 25.333 -205 76s-75 126 -75 226v403h51v-401c0 -87.333 20 -152 60 -194s96.667 -63 170 -63c72.667 0 129 21 169 63s60 106.667 60 194v401h51v-403c0 -100 -25 -175.333 -75 -226s-118.667 -76 -206 -76zM396 774
c-19.333 0 -36.332 4.5 -50.999 13.5s-26.334 20.833 -35.001 35.5s-13 30.667 -13 48c0 18 4.33301 34.5 13 49.5s20.5 27.167 35.5 36.5s31.833 14 50.5 14c19.333 0 36.5 -4.66699 51.5 -14s26.833 -21.5 35.5 -36.5s13 -31.5 13 -49.5
c0 -17.333 -4.33301 -33.333 -13 -48s-20.5 -26.5 -35.5 -35.5s-32.167 -13.5 -51.5 -13.5zM396.001 802c20.667 0 37.499 6.66699 50.499 20s19.5 29.666 19.5 48.999s-6.5 36 -19.5 50s-29.833 21 -50.5 21c-20 0 -36.5 -6.83301 -49.5 -20.5s-19.5 -30.5 -19.5 -50.5
c0 -19.333 6.33301 -35.666 19 -48.999s29.334 -20 50.001 -20z" />
    <glyph glyph-name="uring" unicode="&#x16f;" horiz-adv-x="669" 
d="M318 -4c-44.667 0 -83.332 8.16992 -115.999 24.5029s-57.834 41 -75.501 74s-26.5 73.833 -26.5 122.5v305h50v-301c0 -58.667 15 -103.334 45 -134.001s72.333 -46 127 -46c39.333 0 73.333 8.33301 102 25s50.667 40.167 66 70.5s23 66.166 23 107.499v278h50v-522
h-48v145l7 -17c-15.333 -40.667 -40.833 -72.834 -76.5 -96.501s-78.167 -35.5 -127.5 -35.5zM331.002 596.003c-19.333 0 -36.332 4.5 -50.999 13.5s-26.334 20.833 -35.001 35.5s-13 30.667 -13 48c0 18 4.33301 34.5 13 49.5s20.5 27.167 35.5 36.5s31.833 14 50.5 14
c19.333 0 36.5 -4.66699 51.5 -14s26.833 -21.5 35.5 -36.5s13 -31.5 13 -49.5c0 -17.333 -4.33301 -33.333 -13 -48s-20.5 -26.5 -35.5 -35.5s-32.167 -13.5 -51.5 -13.5zM331.003 624.003c20.667 0 37.499 6.66699 50.499 20s19.5 29.666 19.5 48.999s-6.5 36 -19.5 50
s-29.833 21 -50.5 21c-20 0 -36.5 -6.83301 -49.5 -20.5s-19.5 -30.5 -19.5 -50.5c0 -19.333 6.33301 -35.666 19 -48.999s29.334 -20 50.001 -20z" />
    <glyph glyph-name="Uhungarumlaut" unicode="&#x170;" horiz-adv-x="793" 
d="M396 -5c-86.667 0 -155 25.333 -205 76s-75 126 -75 226v403h51v-401c0 -87.333 20 -152 60 -194s96.667 -63 170 -63c72.667 0 129 21 169 63s60 106.667 60 194v401h51v-403c0 -100 -25 -175.333 -75 -226s-118.667 -76 -206 -76zM449 757l103 118h60l-114 -118h-49z
M296 757l103 118h61l-115 -118h-49z" />
    <glyph glyph-name="uhungarumlaut" unicode="&#x171;" horiz-adv-x="669" 
d="M318 -4c-44.667 0 -83.332 8.16992 -115.999 24.5029s-57.834 41 -75.501 74s-26.5 73.833 -26.5 122.5v305h50v-301c0 -58.667 15 -103.334 45 -134.001s72.333 -46 127 -46c39.333 0 73.333 8.33301 102 25s50.667 40.167 66 70.5s23 66.166 23 107.499v278h50v-522
h-48v145l7 -17c-15.333 -40.667 -40.833 -72.834 -76.5 -96.501s-78.167 -35.5 -127.5 -35.5zM384.002 607.003l103 118h60l-114 -118h-49zM231.002 607.003l103 118h61l-115 -118h-49z" />
    <glyph glyph-name="Uogonek" unicode="&#x172;" horiz-adv-x="793" 
d="M626 700l51 -0.000976562v-403c0 -81.333 -15.833 -145.166 -47.5 -191.499s-75.5 -78.833 -131.5 -97.5c-42.667 -14.667 -74.834 -29.834 -96.501 -45.501s-36.167 -31 -43.5 -46s-11 -28.5 -11 -40.5c0 -20 6.33301 -35 19 -45s29 -15 49 -15
c10.667 0 21.5 1.83301 32.5 5.5s20.5 8.83398 28.5 15.501l14 -29c-11.333 -8 -23.666 -14.167 -36.999 -18.5s-27.666 -6.5 -42.999 -6.5c-30.667 0 -55.334 8 -74.001 24s-28 38 -28 66c0 15.333 3.83301 31.5 11.5 48.5s21.5 34.167 41.5 51.5s48.667 33.333 86 48
l-11 -24c-6 -0.666992 -12.5 -1.16699 -19.5 -1.5s-13.833 -0.5 -20.5 -0.5c-86.667 0 -155 25.333 -205 76s-75 126 -75 226v403h51v-401c0 -87.333 20 -152 60 -194s96.667 -63 170 -63c72.667 0 129 21 169 63s60 106.667 60 194v401z" />
    <glyph glyph-name="uogonek" unicode="&#x173;" horiz-adv-x="669" 
d="M318 -4c-44.667 0 -83.332 8.16992 -115.999 24.5029s-57.834 41 -75.501 74s-26.5 73.833 -26.5 122.5v305h50v-301c0 -58.667 15 -103.334 45 -134.001s72.333 -46 127 -46c39.333 0 73.333 8.33301 102 25s50.667 40.167 66 70.5s23 66.166 23 107.499v278h50v-522
h-48v145l7 -17c-15.333 -40.667 -40.833 -72.834 -76.5 -96.501s-78.167 -35.5 -127.5 -35.5zM502.002 -216.997c-30 0 -54.499 8 -73.499 24s-28.5 38 -28.5 66c0 15.333 3.83301 31.5 11.5 48.5s21.667 34.167 42 51.5s48.833 33.666 85.5 48.999l24 -22
c-34 -14.667 -59.833 -29.167 -77.5 -43.5s-29.834 -28.333 -36.501 -42s-10 -26.5 -10 -38.5c0 -20 6.5 -35 19.5 -45s29.167 -15 48.5 -15c11.333 0 22.5 1.83301 33.5 5.5s20.5 8.83398 28.5 15.501l14 -29c-11.333 -8 -23.833 -14.167 -37.5 -18.5
s-28.167 -6.5 -43.5 -6.5z" />
    <glyph glyph-name="Wcircumflex" unicode="&#x174;" horiz-adv-x="1098" 
d="M278 0l-238 700h54l226 -669h-27l233 669h49l231 -669h-26l228 669h50l-237 -700h-54l-224 647h13l-224 -647h-54zM395 757l126 118h56l126 -118h-50l-122 102h36l-122 -102h-50z" />
    <glyph glyph-name="wcircumflex" unicode="&#x175;" horiz-adv-x="862" 
d="M208 0l-198 522h48l184 -494h-21l189 494h43l188 -494h-22l187 494h46l-198 -522h-47l-184 474h16l-185 -474h-46zM276 606l126 118h56l126 -118h-50l-122 102h36l-122 -102h-50z" />
    <glyph glyph-name="Ycircumflex" unicode="&#x176;" horiz-adv-x="625" 
d="M287 0v254l12 -33l-294 479h56l267 -435h-28l267 435h53l-294 -479l12 33v-254h-51zM158 757l126 118h56l126 -118h-50l-122 102h36l-122 -102h-50z" />
    <glyph glyph-name="ycircumflex" unicode="&#x177;" horiz-adv-x="528" 
d="M94 -198c-24 0 -46.502 4.00098 -67.502 12.001s-38.833 19.667 -53.5 35l25 38c13.333 -14 27.833 -24.333 43.5 -31s33.5 -10 53.5 -10c24 0 45.167 6.66699 63.5 20s35.5 37.666 51.5 72.999l36 80l7 9l221 494h51l-268 -593c-14 -32 -29.167 -57.167 -45.5 -75.5
s-34.166 -31.5 -53.499 -39.5s-40.666 -12 -63.999 -12zM244.998 -12.999l-242 535h53l220 -491zM95.998 607.001l126 118h56l126 -118h-50l-122 102h36l-122 -102h-50z" />
    <glyph glyph-name="Ydieresis" unicode="&#x178;" horiz-adv-x="625" 
d="M287 0v254l12 -33l-294 479h56l267 -435h-28l267 435h53l-294 -479l12 33v-254h-51zM398 784c-9.33301 0 -17.666 3.5 -24.999 10.5s-11 15.5 -11 25.5c0 10.667 3.66699 19.334 11 26.001s15.666 10 24.999 10c10 0 18.5 -3.33301 25.5 -10s10.5 -15.334 10.5 -26.001
c0 -10 -3.5 -18.5 -10.5 -25.5s-15.5 -10.5 -25.5 -10.5zM226 784c-10 0 -18.5 3.5 -25.5 10.5s-10.5 15.5 -10.5 25.5c0 10.667 3.5 19.334 10.5 26.001s15.5 10 25.5 10s18.5 -3.33301 25.5 -10s10.5 -15.334 10.5 -26.001c0 -10 -3.5 -18.5 -10.5 -25.5
s-15.5 -10.5 -25.5 -10.5z" />
    <glyph glyph-name="Zacute" unicode="&#x179;" horiz-adv-x="646" 
d="M47 0v36l499 638l5 -20h-498v46h547v-36l-498 -638l-6 20h515v-46h-564zM272 757l139 118h72l-157 -118h-54z" />
    <glyph glyph-name="zacute" unicode="&#x17a;" horiz-adv-x="503" 
d="M44 0v34l357 462l13 -17h-365v43h404v-34l-358 -462l-15 17h379v-43h-415zM195 607l139 118h72l-157 -118h-54z" />
    <glyph glyph-name="Zdotaccent" unicode="&#x17b;" horiz-adv-x="646" 
d="M47 0v36l499 638l5 -20h-498v46h547v-36l-498 -638l-6 20h515v-46h-564zM329 785c-10.667 0 -19.834 3.83301 -27.501 11.5s-11.5 16.834 -11.5 27.501s3.83301 19.834 11.5 27.501s16.834 11.5 27.501 11.5c11.333 0 20.666 -3.83301 27.999 -11.5
s11 -16.834 11 -27.501s-3.66699 -19.834 -11 -27.501s-16.666 -11.5 -27.999 -11.5z" />
    <glyph glyph-name="zdotaccent" unicode="&#x17c;" horiz-adv-x="503" 
d="M44 0v34l357 462l13 -17h-365v43h404v-34l-358 -462l-15 17h379v-43h-415zM252 635c-10.667 0 -19.834 3.83301 -27.501 11.5s-11.5 16.834 -11.5 27.501s3.83301 19.834 11.5 27.501s16.834 11.5 27.501 11.5c11.333 0 20.666 -3.83301 27.999 -11.5
s11 -16.834 11 -27.501s-3.66699 -19.834 -11 -27.501s-16.666 -11.5 -27.999 -11.5z" />
    <glyph glyph-name="Zcaron" unicode="&#x17d;" horiz-adv-x="646" 
d="M47 0v36l499 638l5 -20h-498v46h547v-36l-498 -638l-6 20h515v-46h-564zM301 757l-126 118h50l122 -101h-36l122 101h50l-126 -118h-56z" />
    <glyph glyph-name="zcaron" unicode="&#x17e;" horiz-adv-x="503" 
d="M44 0v34l357 462l13 -17h-365v43h404v-34l-358 -462l-15 17h379v-43h-415zM224 607l-126 118h50l122 -101h-36l122 101h50l-126 -118h-56z" />
    <glyph glyph-name="longs" unicode="&#x17f;" horiz-adv-x="286" 
d="M127 0l-0.000976562 602.002c0 43.333 12.5 78.166 37.5 104.499s60.5 39.5 106.5 39.5c20 0 39.167 -2.83301 57.5 -8.5s33.833 -14.167 46.5 -25.5l-20 -38c-10 10 -22.167 17.333 -36.5 22s-29.166 7 -44.499 7c-32 0 -56.167 -8.83301 -72.5 -26.5
s-24.5 -43.834 -24.5 -78.501v-598h-50zM29.999 479.002v43h125v-43h-125z" />
    <glyph glyph-name="uni018F" unicode="&#x18f;" horiz-adv-x="816" 
d="M408 -5c-50.667 0 -97.499 8.83691 -140.499 26.5039s-80.5 42.667 -112.5 75s-56.667 70.166 -74 113.499s-26 90.666 -26 141.999v17h663v-45h-630l18 26c0 -44.667 7.5 -85.834 22.5 -123.501s36 -70.334 63 -98.001s58.833 -49.167 95.5 -64.5s77 -23 121 -23
c42.667 0 82.167 7.66699 118.5 23s68.333 36.833 96 64.5s49.167 60.167 64.5 97.5s23 77.666 23 120.999v5c0 44 -7.83301 84.5 -23.5 121.5s-37.667 69.333 -66 97s-61.333 49.167 -99 64.5s-78.167 23 -121.5 23c-28.667 0 -56.334 -2.66699 -83.001 -8s-52 -14 -76 -26
s-46.667 -27.667 -68 -47l-30 36c21.333 20.667 45.333 37.667 72 51s55.667 23.5 87 30.5s64 10.5 98 10.5c52 0 100 -8.83301 144 -26.5s82.333 -42.5 115 -74.5s58 -69.5 76 -112.5s27 -89.833 27 -140.5c0 -50 -9 -96.5 -27 -139.5s-43.167 -80.667 -75.5 -113
s-69.833 -57.666 -112.5 -75.999s-89 -27.5 -139 -27.5z" />
    <glyph glyph-name="florin" unicode="&#x192;" horiz-adv-x="428" 
d="M16 -198c-20.667 0 -40.3311 2.83301 -58.998 8.5s-33.667 14.5 -45 26.5l23 37c19.333 -19.333 46 -29 80 -29c30.667 0 55.167 9 73.5 27s29.833 44 34.5 78l80 652c5.33301 43.333 22 78.166 50 104.499s64.667 39.5 110 39.5c20 0 39.167 -2.83301 57.5 -8.5
s33.166 -14.5 44.499 -26.5l-25 -37c-8.66699 9.33301 -19.834 16.5 -33.501 21.5s-28.167 7.5 -43.5 7.5c-32 0 -57.333 -9 -76 -27s-30.334 -44 -35.001 -78l-11 -88l-2 -24l-66 -540c-5.33301 -43.333 -21.666 -78.166 -48.999 -104.499s-63.333 -39.5 -108 -39.5z
M91.0029 474l6 43h312l-6 -43h-312z" />
    <glyph glyph-name="Ohorn" unicode="&#x1a0;" horiz-adv-x="838" 
d="M419 -5c-52 0 -100.166 8.83008 -144.499 26.4971s-83 42.667 -116 75s-58.5 70 -76.5 113s-27 89.833 -27 140.5c0 51.333 9 98.5 27 141.5s43.5 80.5 76.5 112.5s71.833 56.833 116.5 74.5s93 26.5 145 26.5c42 0 78.5 -2.5 109.5 -7.5s62.167 -7.5 93.5 -7.5
c34.667 0 60.667 6.66699 78 20s26 33 26 59c0 12.667 -2 24.334 -6 35.001s-8.66699 20.667 -14 30l34 14c8 -10.667 14.167 -23 18.5 -37s6.5 -28.333 6.5 -43c0 -37.333 -12.333 -65.666 -37 -84.999s-60.667 -29 -108 -29c-14 0 -30.667 0.833008 -50 2.5
s-37.333 3.83398 -54 6.50098l57 8c42 -16.667 78.667 -41 110 -73s55.666 -69.167 72.999 -111.5s26 -87.833 26 -136.5c0 -51.333 -9.16699 -98.5 -27.5 -141.5s-43.833 -80.5 -76.5 -112.5s-71.167 -56.833 -115.5 -74.5s-92.5 -26.5 -144.5 -26.5zM419.001 41.9971
c44.667 0 86 7.83105 124 23.498s71 37.334 99 65.001s49.833 60.167 65.5 97.5s23.5 78 23.5 122s-7.83301 84.667 -23.5 122s-37.5 69.833 -65.5 97.5s-61 49.334 -99 65.001s-79.333 23.5 -124 23.5s-86 -7.66699 -124 -23s-71.167 -37 -99.5 -65
s-50.333 -60.667 -66 -98s-23.5 -78 -23.5 -122s7.83301 -84.667 23.5 -122s37.667 -70 66 -98s61.5 -49.667 99.5 -65s79.333 -23 124 -23z" />
    <glyph glyph-name="ohorn" unicode="&#x1a1;" horiz-adv-x="620" 
d="M310 -4c-50 0 -94.5 11.3311 -133.5 33.998s-70 54 -93 94s-34.5 85.667 -34.5 137c0 52 11.5 97.833 34.5 137.5s54 70.834 93 93.501s83.5 34 133.5 34c18.667 0 34.167 -0.333008 46.5 -1s24.666 -1.66699 36.999 -3s26.833 -2 43.5 -2
c29.333 0 50.833 7.16699 64.5 21.5s20.5 30.833 20.5 49.5c0 13.333 -2 25.333 -6 36s-8.66699 20.667 -14 30l34 14c7.33301 -11.333 13.333 -23.833 18 -37.5s7 -27.834 7 -42.501c0 -20 -4.83301 -38.167 -14.5 -54.5s-23.667 -29.166 -42 -38.499s-41.5 -14 -69.5 -14
c-7.33301 0 -14.666 0.333008 -21.999 1s-16.333 1.33398 -27 2.00098l17 23c50 -17.333 90.5 -48 121.5 -92s46.5 -96.333 46.5 -157c0 -51.333 -11.333 -97 -34 -137s-53.667 -71.333 -93 -94s-84 -34 -134 -34zM310 40.998c40 0 75.833 9.16699 107.5 27.5
s56.667 44.166 75 77.499s27.5 71.666 27.5 114.999c0 44 -9 82.5 -27 115.5s-43 58.667 -75 77s-68 27.5 -108 27.5s-75.833 -9.16699 -107.5 -27.5s-56.667 -44 -75 -77s-27.5 -71.5 -27.5 -115.5c0 -43.333 9.16699 -81.666 27.5 -114.999s43.333 -59.166 75 -77.499
s67.5 -27.5 107.5 -27.5z" />
    <glyph glyph-name="Uhorn" unicode="&#x1af;" horiz-adv-x="796" 
d="M396 -5c-86.667 0 -155 25.333 -205 76s-75 126 -75 226v403h51v-401c0 -87.333 20 -152 60 -194s96.667 -63 170 -63c72.667 0 129 21 169 63s60 106.667 60 194v401h51v-403c0 -100 -25 -175.333 -75 -226s-118.667 -76 -206 -76zM654 660l0.000976562 39.999h13
c24.667 0 42.167 6.66699 52.5 20s15.5 29.333 15.5 48c0 13.333 -2 25.333 -6 36s-8.66699 20.667 -14 30l35 14c7.33301 -10.667 13.166 -23 17.499 -37s6.5 -28.333 6.5 -43c0 -31.333 -8.66699 -57.166 -26 -77.499s-44.333 -30.5 -81 -30.5h-13z" />
    <glyph glyph-name="uhorn" unicode="&#x1b0;" horiz-adv-x="672" 
d="M318 -4c-44.667 0 -83.332 8.16992 -115.999 24.5029s-57.834 41 -75.501 74s-26.5 73.833 -26.5 122.5v305h50v-301c0 -58.667 15 -103.334 45 -134.001s72.333 -46 127 -46c39.333 0 73.333 8.33301 102 25s50.667 40.167 66 70.5s23 66.166 23 107.499v278h50v-522
h-48v145l7 -17c-15.333 -40.667 -40.833 -72.834 -76.5 -96.501s-78.167 -35.5 -127.5 -35.5zM526.002 482.003l0.000976562 39.999h13c24.667 0 42.167 6.66699 52.5 20s15.5 29.333 15.5 48c0 13.333 -2 25.333 -6 36s-8.66699 20.667 -14 30l35 14
c7.33301 -10.667 13.166 -23 17.499 -37s6.5 -28.333 6.5 -43c0 -31.333 -8.66699 -57.166 -26 -77.499s-44.333 -30.5 -81 -30.5h-13z" />
    <glyph glyph-name="uni01B7" unicode="&#x1b7;" horiz-adv-x="609" 
d="M292 -5c-55.333 0 -106.168 8.6709 -152.501 26.0039s-81.833 39.666 -106.5 66.999l22 39c22.667 -24.667 54.834 -45.167 96.501 -61.5s88.5 -24.5 140.5 -24.5c66.667 0 117.5 14.167 152.5 42.5s52.5 66.166 52.5 113.499s-17.667 85 -53 113s-90 42 -164 42h-46v37
l238 285l5 -19h-420v45h462v-36l-238 -285l-18 16h23c59.333 0 108.333 -8.33301 147 -25s67.667 -39.834 87 -69.501s29 -64.167 29 -103.5c0 -38.667 -9.66699 -73.334 -29 -104.001s-48 -54.667 -86 -72s-85.333 -26 -142 -26z" />
    <glyph glyph-name="uni01C4" unicode="&#x1c4;" horiz-adv-x="1458" 
d="M122 0v700h277c74 0 139 -15 195 -45s99.5 -71.333 130.5 -124s46.5 -113 46.5 -181s-15.5 -128.333 -46.5 -181s-74.5 -94 -130.5 -124s-121 -45 -195 -45h-277zM173 46h222c66 0 123.333 13 172 39s86.334 61.833 113.001 107.5s40 98.167 40 157.5
s-13.333 111.833 -40 157.5s-64.334 81.5 -113.001 107.5s-106 39 -172 39h-222v-608zM850 0v36l499 638l5 -20h-498v46h547v-36l-498 -638l-6 20h515v-46h-564zM1104 757l-126 118h50l122 -101h-36l122 101h50l-126 -118h-56z" />
    <glyph glyph-name="uni01C5" unicode="&#x1c5;" horiz-adv-x="1329" 
d="M122 0v700h277c74 0 139 -15 195 -45s99.5 -71.333 130.5 -124s46.5 -113 46.5 -181s-15.5 -128.333 -46.5 -181s-74.5 -94 -130.5 -124s-121 -45 -195 -45h-277zM173 46h222c66 0 123.333 13 172 39s86.334 61.833 113.001 107.5s40 98.167 40 157.5
s-13.333 111.833 -40 157.5s-64.334 81.5 -113.001 107.5s-106 39 -172 39h-222v-608zM870 0v34l357 462l13 -17h-365v43h404v-34l-358 -462l-15 17h379v-43h-415zM1050 607l-126 118h50l122 -101h-36l122 101h50l-126 -118h-56z" />
    <glyph glyph-name="uni01C6" unicode="&#x1c6;" horiz-adv-x="1194" 
d="M307 -4c-48.667 0 -92.5 11.1641 -131.5 33.4971s-69.833 53.5 -92.5 93.5s-34 86 -34 138c0 52.667 11.333 98.834 34 138.501s53.5 70.667 92.5 93s82.833 33.5 131.5 33.5c46 0 87.5 -10.667 124.5 -32s66.333 -51.666 88 -90.999s32.5 -86.666 32.5 -141.999
c0 -54 -10.667 -101 -32 -141s-50.5 -70.667 -87.5 -92s-78.833 -32 -125.5 -32zM310 40.9971c40 0 75.833 9.16699 107.5 27.5s56.667 44.166 75 77.499s27.5 71.666 27.5 114.999c0 44 -9.16699 82.5 -27.5 115.5s-43.333 58.667 -75 77s-67.5 27.5 -107.5 27.5
s-75.833 -9.16699 -107.5 -27.5s-56.667 -44 -75 -77s-27.5 -71.5 -27.5 -115.5c0 -43.333 9.16699 -81.666 27.5 -114.999s43.333 -59.166 75 -77.499s67.5 -27.5 107.5 -27.5zM521 -0.00292969v171l9 91l-10 91v389h50v-742h-49zM719 -0.00292969v34l357 462l13 -17h-365
v43h404v-34l-358 -462l-15 17h379v-43h-415zM899 606.997l-126 118h50l122 -101h-36l122 101h50l-126 -118h-56z" />
    <glyph glyph-name="uni01C7" unicode="&#x1c7;" horiz-adv-x="1077" 
d="M122 0v700h51v-654h403v-46h-454zM770 -5c-38 0 -73.498 8.83301 -106.498 26.5s-59.5 42.167 -79.5 73.5l31 34c19.333 -28.667 42.166 -50.5 68.499 -65.5s55.166 -22.5 86.499 -22.5c92.667 0 139 55 139 165v448h-258v46h309v-494c0 -70 -16 -122.667 -48 -158
s-79.333 -53 -142 -53z" />
    <glyph glyph-name="uni01C8" unicode="&#x1c8;" horiz-adv-x="852" 
d="M122 0v700h51v-654h403v-46h-454zM605 -198c-20.667 0 -40.668 2.83301 -60.001 8.5s-35.333 14.5 -48 26.5l20 37c22 -19.333 50.333 -29 85 -29c30 0 53.167 9 69.5 27s24.5 44 24.5 78v572h50v-574c0 -44 -12.167 -79.333 -36.5 -106s-59.166 -40 -104.499 -40z
M720.999 649c-11.333 0 -21 4 -29 12s-12 17.333 -12 28c0 11.333 4 21 12 29s17.667 12 29 12c12 0 21.833 -3.83301 29.5 -11.5s11.5 -17.167 11.5 -28.5s-3.83301 -21 -11.5 -29s-17.5 -12 -29.5 -12z" />
    <glyph glyph-name="uni01C9" unicode="&#x1c9;" horiz-adv-x="528" 
d="M106 0v742h50v-742h-50zM281 -198c-20.667 0 -40.668 2.83301 -60.001 8.5s-35.333 14.5 -48 26.5l20 37c22 -19.333 50.333 -29 85 -29c30 0 53.167 9 69.5 27s24.5 44 24.5 78v572h50v-574c0 -44 -12.167 -79.333 -36.5 -106s-59.166 -40 -104.499 -40zM396.999 649
c-11.333 0 -21 4 -29 12s-12 17.333 -12 28c0 11.333 4 21 12 29s17.667 12 29 12c12 0 21.833 -3.83301 29.5 -11.5s11.5 -17.167 11.5 -28.5s-3.83301 -21 -11.5 -29s-17.5 -12 -29.5 -12z" />
    <glyph glyph-name="uni01CA" unicode="&#x1ca;" horiz-adv-x="1306" 
d="M122 0v700h43l499 -637h-23v637h51v-700h-42l-500 637h23v-637h-51zM999 -5c-38 0 -73.498 8.83301 -106.498 26.5s-59.5 42.167 -79.5 73.5l31 34c19.333 -28.667 42.166 -50.5 68.499 -65.5s55.166 -22.5 86.499 -22.5c92.667 0 139 55 139 165v448h-258v46h309v-494
c0 -70 -16 -122.667 -48 -158s-79.333 -53 -142 -53z" />
    <glyph glyph-name="uni01CB" unicode="&#x1cb;" horiz-adv-x="1081" 
d="M122 0v700h43l499 -637h-23v637h51v-700h-42l-500 637h23v-637h-51zM834 -198c-20.667 0 -40.668 2.83301 -60.001 8.5s-35.333 14.5 -48 26.5l20 37c22 -19.333 50.333 -29 85 -29c30 0 53.167 9 69.5 27s24.5 44 24.5 78v572h50v-574c0 -44 -12.167 -79.333 -36.5 -106
s-59.166 -40 -104.499 -40zM949.999 649c-11.333 0 -21 4 -29 12s-12 17.333 -12 28c0 11.333 4 21 12 29s17.667 12 29 12c12 0 21.833 -3.83301 29.5 -11.5s11.5 -17.167 11.5 -28.5s-3.83301 -21 -11.5 -29s-17.5 -12 -29.5 -12z" />
    <glyph glyph-name="uni01CC" unicode="&#x1cc;" horiz-adv-x="939" 
d="M361 526c42.667 0 79.832 -8.16797 111.499 -24.501s56.334 -41 74.001 -74s26.5 -73.833 26.5 -122.5v-305h-50v301c0 58.667 -14.833 103.334 -44.5 134.001s-71.167 46 -124.5 46c-40.667 0 -76 -8.33301 -106 -25s-52.833 -40 -68.5 -70s-23.5 -66 -23.5 -108v-278
h-50v522h48v-145l-7 16c16 41.333 42.333 73.833 79 97.5s81.667 35.5 135 35.5zM692.998 -198.001c-20.667 0 -40.668 2.83301 -60.001 8.5s-35.333 14.5 -48 26.5l20 37c22 -19.333 50.333 -29 85 -29c30 0 53.167 9 69.5 27s24.5 44 24.5 78v572h50v-574
c0 -44 -12.167 -79.333 -36.5 -106s-59.166 -40 -104.499 -40zM808.997 648.999c-11.333 0 -21 4 -29 12s-12 17.333 -12 28c0 11.333 4 21 12 29s17.667 12 29 12c12 0 21.833 -3.83301 29.5 -11.5s11.5 -17.167 11.5 -28.5s-3.83301 -21 -11.5 -29s-17.5 -12 -29.5 -12z
" />
    <glyph glyph-name="uni01CD" unicode="&#x1cd;" horiz-adv-x="705" 
d="M5 0l322 700h51l322 -700h-55l-304 668h22l-303 -668h-55zM123 197l17 43h419l17 -43h-453zM325 757l-126 118h50l122 -101h-36l122 101h50l-126 -118h-56z" />
    <glyph glyph-name="uni01CE" unicode="&#x1ce;" horiz-adv-x="583" 
d="M435 0l-0.000976562 119l-2 18v196c0 48.667 -13.167 85.667 -39.5 111s-64.833 38 -115.5 38c-36 0 -69.5 -6.16699 -100.5 -18.5s-57.5 -28.166 -79.5 -47.499l-25 36c26 23.333 57.333 41.5 94 54.5s75 19.5 115 19.5c64.667 0 114.334 -16.333 149.001 -49
s52 -81.334 52 -146.001v-331h-48zM246.999 -4c-38.667 0 -72.167 6.16504 -100.5 18.498s-50 29.833 -65 52.5s-22.5 48.667 -22.5 78c0 26.667 6.16699 50.834 18.5 72.501s32.833 39.334 61.5 53.001s67 20.5 115 20.5h192v-39h-191c-54 0 -91.833 -10 -113.5 -30
s-32.5 -45 -32.5 -75c0 -33.333 12.667 -60 38 -80s61 -30 107 -30c44 0 81.167 10 111.5 30s52.833 49 67.5 87l14 -34c-14 -38 -37.833 -68.167 -71.5 -90.5s-76.5 -33.5 -128.5 -33.5zM251.999 606.998l-126 118h50l122 -101h-36l122 101h50l-126 -118h-56z" />
    <glyph glyph-name="uni01D3" unicode="&#x1d3;" horiz-adv-x="793" 
d="M396 -5c-86.667 0 -155 25.333 -205 76s-75 126 -75 226v403h51v-401c0 -87.333 20 -152 60 -194s96.667 -63 170 -63c72.667 0 129 21 169 63s60 106.667 60 194v401h51v-403c0 -100 -25 -175.333 -75 -226s-118.667 -76 -206 -76zM369 757l-126 118h50l122 -101h-36
l122 101h50l-126 -118h-56z" />
    <glyph glyph-name="uni01D4" unicode="&#x1d4;" horiz-adv-x="669" 
d="M318 -4c-44.667 0 -83.332 8.16992 -115.999 24.5029s-57.834 41 -75.501 74s-26.5 73.833 -26.5 122.5v305h50v-301c0 -58.667 15 -103.334 45 -134.001s72.333 -46 127 -46c39.333 0 73.333 8.33301 102 25s50.667 40.167 66 70.5s23 66.166 23 107.499v278h50v-522
h-48v145l7 -17c-15.333 -40.667 -40.833 -72.834 -76.5 -96.501s-78.167 -35.5 -127.5 -35.5zM304.002 607.003l-126 118h50l122 -101h-36l122 101h50l-126 -118h-56z" />
    <glyph glyph-name="uni01E4" unicode="&#x1e4;" horiz-adv-x="805" 
d="M412 214v42h370v-42h-370zM421 -5c-52.667 0 -101.331 8.83301 -145.998 26.5s-83.5 42.5 -116.5 74.5s-58.5 69.5 -76.5 112.5s-27 90.167 -27 141.5s9 98.5 27 141.5s43.667 80.5 77 112.5s72.166 56.833 116.499 74.5s93.166 26.5 146.499 26.5
c50.667 0 97.667 -8 141 -24s80.333 -40 111 -72l-32 -34c-30.667 30 -64.167 51.333 -100.5 64s-75.833 19 -118.5 19c-45.333 0 -87.333 -7.66699 -126 -23s-72.334 -37 -101.001 -65s-50.834 -60.667 -66.501 -98s-23.5 -78 -23.5 -122s7.83301 -84.667 23.5 -122
s37.834 -70 66.501 -98s62.334 -49.667 101.001 -65s80.667 -23 126 -23c41.333 0 80.5 6.33301 117.5 19s70.833 33.667 101.5 63l29 -39c-31.333 -30 -68.833 -52.5 -112.5 -67.5s-89.5 -22.5 -137.5 -22.5zM622.003 90v257h49v-262z" />
    <glyph glyph-name="uni01E5" unicode="&#x1e5;" horiz-adv-x="686" 
d="M323 -198c-47.333 0 -92.332 7.33301 -134.999 22s-77.334 35 -104.001 61l27 38c26 -24 57.167 -42.667 93.5 -56s75.5 -20 117.5 -20c70 0 121.5 16.333 154.5 49s49.5 84 49.5 154v145l10 78l-8 78v171h48v-466c0 -87.333 -21.167 -151.5 -63.5 -192.5
s-105.5 -61.5 -189.5 -61.5zM292.001 -65v38h348v-38h-348zM309.001 27c-49.333 0 -93.5 10.665 -132.5 31.998s-70 50.833 -93 88.5s-34.5 80.834 -34.5 129.501c0 49.333 11.5 92.666 34.5 129.999s54 66.5 93 87.5s83.167 31.5 132.5 31.5c47.333 0 89.833 -10 127.5 -30
s67.5 -48.5 89.5 -85.5s33 -81.5 33 -133.5c0 -51.333 -11 -95.666 -33 -132.999s-51.833 -66.166 -89.5 -86.499s-80.167 -30.5 -127.5 -30.5zM313.001 70.998c42 0 79 8.66699 111 26s57.167 41.666 75.5 72.999s27.5 67 27.5 107c0 41.333 -9.16699 77.333 -27.5 108
s-43.5 54.667 -75.5 72s-69 26 -111 26c-40.667 0 -77.167 -8.66699 -109.5 -26s-57.666 -41.333 -75.999 -72s-27.5 -66.667 -27.5 -108c0 -40 9.16699 -75.667 27.5 -107s43.666 -55.666 75.999 -72.999s68.833 -26 109.5 -26z" />
    <glyph glyph-name="Gcaron" unicode="&#x1e6;" horiz-adv-x="773" 
d="M421 -5c-52.667 0 -101.331 8.83301 -145.998 26.5s-83.5 42.5 -116.5 74.5s-58.5 69.5 -76.5 112.5s-27 90.167 -27 141.5s9 98.5 27 141.5s43.667 80.5 77 112.5s72.166 56.833 116.499 74.5s93.166 26.5 146.499 26.5c50.667 0 97.667 -8 141 -24s80.333 -40 111 -72
l-32 -34c-30.667 30 -64.167 51.333 -100.5 64s-75.833 19 -118.5 19c-45.333 0 -87.333 -7.66699 -126 -23s-72.334 -37 -101.001 -65s-50.834 -60.667 -66.501 -98s-23.5 -78 -23.5 -122s7.83301 -84.667 23.5 -122s37.834 -70 66.501 -98s62.334 -49.667 101.001 -65
s80.667 -23 126 -23c41.333 0 80.5 6.33301 117.5 19s70.833 33.667 101.5 63l29 -39c-31.333 -30 -68.833 -52.5 -112.5 -67.5s-89.5 -22.5 -137.5 -22.5zM622.003 90v257h49v-262zM377.003 756l-126 118h50l122 -101h-36l122 101h50l-126 -118h-56z" />
    <glyph glyph-name="gcaron" unicode="&#x1e7;" horiz-adv-x="682" 
d="M323 -198c-47.333 0 -92.332 7.33301 -134.999 22s-77.334 35 -104.001 61l27 38c26 -24 57.167 -42.667 93.5 -56s75.5 -20 117.5 -20c70 0 121.5 16.333 154.5 49s49.5 84 49.5 154v145l10 78l-8 78v171h48v-466c0 -87.333 -21.167 -151.5 -63.5 -192.5
s-105.5 -61.5 -189.5 -61.5zM309.001 19c-49.333 0 -93.5 10.835 -132.5 32.502s-70 51.667 -93 90s-34.5 82.166 -34.5 131.499c0 50 11.5 94 34.5 132s54 67.667 93 89s83.167 32 132.5 32c47.333 0 89.833 -10.167 127.5 -30.5s67.5 -49.333 89.5 -87
s33 -82.834 33 -135.501c0 -52 -11 -97 -33 -135s-51.833 -67.333 -89.5 -88s-80.167 -31 -127.5 -31zM313.001 64.002c42 0 79 8.83301 111 26.5s57.167 42.334 75.5 74.001s27.5 67.834 27.5 108.501c0 41.333 -9.16699 77.666 -27.5 108.999s-43.5 55.666 -75.5 72.999
s-69 26 -111 26c-40.667 0 -77.167 -8.66699 -109.5 -26s-57.666 -41.666 -75.999 -72.999s-27.5 -67.666 -27.5 -108.999c0 -40.667 9.16699 -76.834 27.5 -108.501s43.666 -56.334 75.999 -74.001s68.833 -26.5 109.5 -26.5zM293.001 607.002l-126 118h50l122 -101h-36
l122 101h50l-126 -118h-56z" />
    <glyph glyph-name="uni01E8" unicode="&#x1e8;" horiz-adv-x="703" 
d="M166 177l-2 64l446 459h62l-312 -323l-29 -31zM122 0v700h51v-700h-51zM631 0l-315 360l35 37l342 -397h-62zM344 757l-126 118h50l122 -101h-36l122 101h50l-126 -118h-56z" />
    <glyph glyph-name="uni01E9" unicode="&#x1e9;" horiz-adv-x="588" 
d="M144 144l1 63l345 315h64l-229 -215l-30 -25zM106 0v742h50v-742h-50zM514 0l-228 286l34 37l256 -323h-62zM103 827l-126 118h50l122 -101h-36l122 101h50l-126 -118h-56z" />
    <glyph glyph-name="uni01EA" unicode="&#x1ea;" horiz-adv-x="838" 
d="M419 -217c-30 0 -54.501 8.00098 -73.501 24.001s-28.5 38 -28.5 66c0 15.333 4 31.666 12 48.999s22.167 34.666 42.5 51.999s48.5 33.333 84.5 48l-9 -25c-5.33301 -0.666992 -10.166 -1.16699 -14.499 -1.5s-8.83301 -0.5 -13.5 -0.5
c-52 0 -100.167 8.83301 -144.5 26.5s-83 42.5 -116 74.5s-58.5 69.5 -76.5 112.5s-27 90.167 -27 141.5s9 98.5 27 141.5s43.5 80.5 76.5 112.5s71.667 56.833 116 74.5s92.5 26.5 144.5 26.5s100.167 -8.83301 144.5 -26.5s82.833 -42.5 115.5 -74.5
s58.167 -69.5 76.5 -112.5s27.5 -90.167 27.5 -141.5c0 -60.667 -12.333 -115 -37 -163s-57.667 -87.333 -99 -118s-87.333 -51.667 -138 -63c-28 -6 -53.667 -15.5 -77 -28.5s-41.833 -28.167 -55.5 -45.5s-20.5 -36 -20.5 -56s6.5 -35 19.5 -45s29.167 -15 48.5 -15
c11.333 0 22.5 1.83301 33.5 5.5s20.5 8.83398 28.5 15.501l14 -29c-11.333 -8 -23.833 -14.167 -37.5 -18.5s-28.167 -6.5 -43.5 -6.5zM418.999 42.001c44.667 0 86 7.66699 124 23s71 37 99 65s49.833 60.667 65.5 98s23.5 78 23.5 122
c0 44.667 -7.83301 85.5 -23.5 122.5s-37.5 69.5 -65.5 97.5s-61 49.667 -99 65s-79.333 23 -124 23s-86 -7.66699 -124 -23s-71.167 -37 -99.5 -65s-50.333 -60.5 -66 -97.5s-23.5 -77.833 -23.5 -122.5c0 -44 7.83301 -84.667 23.5 -122s37.667 -70 66 -98
s61.5 -49.667 99.5 -65s79.333 -23 124 -23z" />
    <glyph glyph-name="uni01EB" unicode="&#x1eb;" horiz-adv-x="620" 
d="M339 -217c-30.667 0 -55.333 7.99902 -74 23.999s-28 37.667 -28 65c0 16 3.66699 32.5 11 49.5s20.666 34.167 39.999 51.5s47 33.666 83 48.999l-5 -21c-12 -2 -22.167 -3.33301 -30.5 -4s-16.833 -1 -25.5 -1c-50 0 -94.5 11.333 -133.5 34s-70 54 -93 94
s-34.5 85.667 -34.5 137c0 52 11.5 97.833 34.5 137.5s54 70.834 93 93.501s83.5 34 133.5 34s94.667 -11.333 134 -34s70.333 -53.834 93 -93.501s34 -85.5 34 -137.5c0 -56.667 -13.5 -106 -40.5 -148s-63.833 -73.667 -110.5 -95
c-41.333 -19.333 -72.333 -37.333 -93 -54s-34.334 -32.167 -41.001 -46.5s-10 -28.166 -10 -41.499c0 -20 6.33301 -35 19 -45s29 -15 49 -15c10.667 0 21.5 1.83301 32.5 5.5s20.5 8.83398 28.5 15.501l14 -29c-11.333 -8 -23.666 -14.167 -36.999 -18.5
s-27.666 -6.5 -42.999 -6.5zM310.001 40.999c40 0 76 9.16699 108 27.5s57 44.166 75 77.499s27 71.666 27 114.999c0 44 -9 82.5 -27 115.5s-43 58.667 -75 77s-68 27.5 -108 27.5s-75.833 -9.16699 -107.5 -27.5s-56.667 -44 -75 -77s-27.5 -71.5 -27.5 -115.5
c0 -43.333 9.16699 -81.666 27.5 -114.999s43.333 -59.166 75 -77.499s67.5 -27.5 107.5 -27.5z" />
    <glyph glyph-name="uni01EE" unicode="&#x1ee;" horiz-adv-x="609" 
d="M292 -5c-55.333 0 -106.168 8.6709 -152.501 26.0039s-81.833 39.666 -106.5 66.999l22 39c22.667 -24.667 54.834 -45.167 96.501 -61.5s88.5 -24.5 140.5 -24.5c66.667 0 117.5 14.167 152.5 42.5s52.5 66.166 52.5 113.499s-17.667 85 -53 113s-90 42 -164 42h-46v37
l238 285l5 -19h-420v45h462v-36l-238 -285l-18 16h23c59.333 0 108.333 -8.33301 147 -25s67.667 -39.834 87 -69.501s29 -64.167 29 -103.5c0 -38.667 -9.66699 -73.334 -29 -104.001s-48 -54.667 -86 -72s-85.333 -26 -142 -26zM264.998 757.004l-126 118h50l122 -101h-36
l122 101h50l-126 -118h-56z" />
    <glyph glyph-name="uni01EF" unicode="&#x1ef;" horiz-adv-x="503" 
d="M221 -199c-52 0 -99.833 8.83203 -143.5 26.499s-77.5 40.834 -101.5 69.501l23 39c20.667 -25.333 50.667 -46.5 90 -63.5s83 -25.5 131 -25.5c63.333 0 111.333 14.5 144 43.5s49 67.833 49 116.5s-16.333 87.5 -49 116.5s-84 43.5 -154 43.5h-44v36l224 293l4 -19
h-394v45h437v-36l-224 -293l-19 16h22c83.333 0 145.5 -18.5 186.5 -55.5s61.5 -85.833 61.5 -146.5c0 -39.333 -9.16699 -74.5 -27.5 -105.5s-45.5 -55.5 -81.5 -73.5s-80.667 -27 -134 -27zM190 606.999l-126 118h50l122 -101h-36l122 101h50l-126 -118h-56z" />
    <glyph glyph-name="Aringacute" unicode="&#x1fa;" horiz-adv-x="705" 
d="M5 0l322 700h51l322 -700h-55l-304 668h22l-303 -668h-55zM123 197l17 43h419l17 -43h-453zM352 774c-19.333 0 -36.332 4.5 -50.999 13.5s-26.334 20.833 -35.001 35.5s-13 30.667 -13 48c0 18 4.33301 34.5 13 49.5s20.5 27.167 35.5 36.5s31.833 14 50.5 14
c19.333 0 36.5 -4.66699 51.5 -14s26.833 -21.5 35.5 -36.5s13 -31.5 13 -49.5c0 -17.333 -4.33301 -33.333 -13 -48s-20.5 -26.5 -35.5 -35.5s-32.167 -13.5 -51.5 -13.5zM352.001 802c20.667 0 37.499 6.66699 50.499 20s19.5 29.666 19.5 48.999s-6.5 36 -19.5 50
s-29.833 21 -50.5 21c-20 0 -36.5 -6.83301 -49.5 -20.5s-19.5 -30.5 -19.5 -50.5c0 -19.333 6.33301 -35.666 19 -48.999s29.334 -20 50.001 -20zM426 928l-33 12l96 94l30 -24z" />
    <glyph glyph-name="aringacute" unicode="&#x1fb;" horiz-adv-x="583" 
d="M435 0l-0.000976562 119l-2 18v196c0 48.667 -13.167 85.667 -39.5 111s-64.833 38 -115.5 38c-36 0 -69.5 -6.16699 -100.5 -18.5s-57.5 -28.166 -79.5 -47.499l-25 36c26 23.333 57.333 41.5 94 54.5s75 19.5 115 19.5c64.667 0 114.334 -16.333 149.001 -49
s52 -81.334 52 -146.001v-331h-48zM246.999 -4c-38.667 0 -72.167 6.16504 -100.5 18.498s-50 29.833 -65 52.5s-22.5 48.667 -22.5 78c0 26.667 6.16699 50.834 18.5 72.501s32.833 39.334 61.5 53.001s67 20.5 115 20.5h192v-39h-191c-54 0 -91.833 -10 -113.5 -30
s-32.5 -45 -32.5 -75c0 -33.333 12.667 -60 38 -80s61 -30 107 -30c44 0 81.167 10 111.5 30s52.833 49 67.5 87l14 -34c-14 -38 -37.833 -68.167 -71.5 -90.5s-76.5 -33.5 -128.5 -33.5zM278.999 595.998c-19.333 0 -36.332 4.5 -50.999 13.5s-26.334 20.833 -35.001 35.5
s-13 30.667 -13 48c0 18 4.33301 34.5 13 49.5s20.5 27.167 35.5 36.5s31.833 14 50.5 14c19.333 0 36.5 -4.66699 51.5 -14s26.833 -21.5 35.5 -36.5s13 -31.5 13 -49.5c0 -17.333 -4.33301 -33.333 -13 -48s-20.5 -26.5 -35.5 -35.5s-32.167 -13.5 -51.5 -13.5z
M279 623.998c20.667 0 37.499 6.66699 50.499 20s19.5 29.666 19.5 48.999s-6.5 36 -19.5 50s-29.833 21 -50.5 21c-20 0 -36.5 -6.83301 -49.5 -20.5s-19.5 -30.5 -19.5 -50.5c0 -19.333 6.33301 -35.666 19 -48.999s29.334 -20 50.001 -20zM352.999 749.998l-33 12l96 94
l30 -24z" />
    <glyph glyph-name="AEacute" unicode="&#x1fc;" horiz-adv-x="1022" 
d="M5 0l434 700h52v-46h-48l33 20l-416 -674h-55zM163 197l8 43h320v-43h-328zM520 378h379v-45h-379v45zM526 46h432v-46h-483v700h468v-46h-417v-608zM443 757l139 118h72l-157 -118h-54z" />
    <glyph glyph-name="aeacute" unicode="&#x1fd;" horiz-adv-x="983" 
d="M251 -4c-60.667 0 -107.84 13.8291 -141.507 41.4961s-50.5 64.167 -50.5 109.5c0 25.333 6.16699 48.666 18.5 69.999s32.833 38.833 61.5 52.5s67 20.5 115 20.5h189v-39h-188c-54 0 -91.833 -9.83301 -113.5 -29.5s-32.5 -44.167 -32.5 -73.5
c0 -34 12.833 -61 38.5 -81s61.167 -30 106.5 -30c54 0 97.333 14.333 130 43s49 69.334 49 122.001v131c0 48.667 -13.167 85.667 -39.5 111s-64.833 38 -115.5 38c-36 0 -69.5 -6.16699 -100.5 -18.5s-57.5 -28.166 -79.5 -47.499l-25 36c26 23.333 57.333 41.5 94 54.5
s74.667 19.5 114 19.5c59.333 0 105.5 -13.333 138.5 -40s52.5 -66.667 58.5 -120l-20 8c18.667 46 47.834 82.833 87.501 110.5s85.834 41.5 138.501 41.5c36 0 69 -6.33301 99 -19s56.333 -30.667 79 -54s40.334 -50.666 53.001 -81.999s19 -66 19 -104
c0 -3.33301 -0.166992 -6.16602 -0.5 -8.49902s-0.5 -4.83301 -0.5 -7.5h-460v39h433l-21 -21c0.666992 42.667 -8.16602 80 -26.499 112s-42.666 56.833 -72.999 74.5s-64.166 26.5 -101.499 26.5s-71.166 -8.83301 -101.499 -26.5s-54.5 -42.667 -72.5 -75
s-27 -69.833 -27 -112.5v-9c0 -42.667 9.5 -80.5 28.5 -113.5s45 -58.667 78 -77s71.167 -27.5 114.5 -27.5c33.333 0 64.333 6 93 18s53.334 30.333 74.001 55l30 -33c-23.333 -28 -52.166 -49.167 -86.499 -63.5s-71.5 -21.5 -111.5 -21.5
c-38.667 0 -75.334 6.83301 -110.001 20.5s-64.834 34.334 -90.501 62.001s-45.167 62.5 -58.5 104.5l32 -1c-4.66699 -45.333 -18.167 -81.5 -40.5 -108.5s-49.5 -46.667 -81.5 -59s-66.333 -18.5 -103 -18.5zM400.994 606.996l139 118h72l-157 -118h-54z" />
    <glyph glyph-name="Oslashacute" unicode="&#x1fe;" horiz-adv-x="838" 
d="M419 -5c-52 0 -100.167 8.83301 -144.5 26.5s-83 42.667 -116 75s-58.5 70 -76.5 113s-27 89.833 -27 140.5s9 97.5 27 140.5s43.5 80.667 76.5 113s71.667 57.333 116 75s92.5 26.5 144.5 26.5s100.167 -8.83301 144.5 -26.5s82.833 -42.5 115.5 -74.5
s58.167 -69.5 76.5 -112.5s27.5 -90.167 27.5 -141.5s-9.16699 -98.5 -27.5 -141.5s-43.833 -80.5 -76.5 -112.5s-71.167 -56.833 -115.5 -74.5s-92.5 -26.5 -144.5 -26.5zM419 42c44.667 0 86 7.66699 124 23s71 37 99 65s49.833 60.667 65.5 98s23.5 78 23.5 122
c0 44.667 -7.83301 85.5 -23.5 122.5s-37.5 69.5 -65.5 97.5s-61 49.667 -99 65s-79.333 23 -124 23s-86 -7.66699 -124 -23s-71.167 -37 -99.5 -65s-50.333 -60.5 -66 -97.5s-23.5 -77.833 -23.5 -122.5c0 -44 7.83301 -84.667 23.5 -122s37.667 -70 66 -98
s61.5 -49.667 99.5 -65s79.333 -23 124 -23zM92 -70l610 840h45l-610 -840h-45zM362 757l139 118h72l-157 -118h-54z" />
    <glyph glyph-name="oslashacute" unicode="&#x1ff;" horiz-adv-x="620" 
d="M310 -4c-50 0 -94.5 11.333 -133.5 34s-70 54 -93 94s-34.5 85.667 -34.5 137c0 52 11.5 97.833 34.5 137.5s54 70.834 93 93.501s83.5 34 133.5 34s94.667 -11.333 134 -34s70.333 -53.834 93 -93.501s34 -85.5 34 -137.5c0 -51.333 -11.333 -97 -34 -137
s-53.667 -71.333 -93 -94s-84 -34 -134 -34zM310 41c40 0 76 9.16699 108 27.5s57 44.166 75 77.499s27 71.666 27 114.999c0 44 -9 82.5 -27 115.5s-43 58.667 -75 77s-68 27.5 -108 27.5s-75.833 -9.16699 -107.5 -27.5s-56.667 -44 -75 -77s-27.5 -71.5 -27.5 -115.5
c0 -43.333 9.16699 -81.666 27.5 -114.999s43.333 -59.166 75 -77.499s67.5 -27.5 107.5 -27.5zM68 -70l444 662h38l-444 -662h-38zM252 607l139 118h72l-157 -118h-54z" />
    <glyph glyph-name="uni0200" unicode="&#x200;" horiz-adv-x="705" 
d="M5 0l322 700h51l322 -700h-55l-304 668h22l-303 -668h-55zM123 197l17 43h419l17 -43h-453zM405 757l-115 118h61l103 -118h-49zM252 757l-114 118h60l103 -118h-49z" />
    <glyph glyph-name="uni0201" unicode="&#x201;" horiz-adv-x="583" 
d="M435 0l-0.000976562 119l-2 18v196c0 48.667 -13.167 85.667 -39.5 111s-64.833 38 -115.5 38c-36 0 -69.5 -6.16699 -100.5 -18.5s-57.5 -28.166 -79.5 -47.499l-25 36c26 23.333 57.333 41.5 94 54.5s75 19.5 115 19.5c64.667 0 114.334 -16.333 149.001 -49
s52 -81.334 52 -146.001v-331h-48zM246.999 -4c-38.667 0 -72.167 6.16504 -100.5 18.498s-50 29.833 -65 52.5s-22.5 48.667 -22.5 78c0 26.667 6.16699 50.834 18.5 72.501s32.833 39.334 61.5 53.001s67 20.5 115 20.5h192v-39h-191c-54 0 -91.833 -10 -113.5 -30
s-32.5 -45 -32.5 -75c0 -33.333 12.667 -60 38 -80s61 -30 107 -30c44 0 81.167 10 111.5 30s52.833 49 67.5 87l14 -34c-14 -38 -37.833 -68.167 -71.5 -90.5s-76.5 -33.5 -128.5 -33.5zM331.999 606.998l-115 118h61l103 -118h-49zM178.999 606.998l-114 118h60l103 -118
h-49z" />
    <glyph glyph-name="uni0202" unicode="&#x202;" horiz-adv-x="705" 
d="M5 0l322 700h51l322 -700h-55l-304 668h22l-303 -668h-55zM123 197l17 43h419l17 -43h-453zM209 757c1.33301 38 15.835 67.833 43.502 89.5s61.167 32.5 100.5 32.5s72.833 -10.833 100.5 -32.5s42.167 -51.5 43.5 -89.5h-37c-0.666992 27.333 -11.334 49 -32.001 65
s-45.667 24 -75 24c-28.667 0 -53.334 -8 -74.001 -24s-31.667 -37.667 -33 -65h-37z" />
    <glyph glyph-name="uni0203" unicode="&#x203;" horiz-adv-x="583" 
d="M435 0l-0.000976562 119l-2 18v196c0 48.667 -13.167 85.667 -39.5 111s-64.833 38 -115.5 38c-36 0 -69.5 -6.16699 -100.5 -18.5s-57.5 -28.166 -79.5 -47.499l-25 36c26 23.333 57.333 41.5 94 54.5s75 19.5 115 19.5c64.667 0 114.334 -16.333 149.001 -49
s52 -81.334 52 -146.001v-331h-48zM246.999 -4c-38.667 0 -72.167 6.16504 -100.5 18.498s-50 29.833 -65 52.5s-22.5 48.667 -22.5 78c0 26.667 6.16699 50.834 18.5 72.501s32.833 39.334 61.5 53.001s67 20.5 115 20.5h192v-39h-191c-54 0 -91.833 -10 -113.5 -30
s-32.5 -45 -32.5 -75c0 -33.333 12.667 -60 38 -80s61 -30 107 -30c44 0 81.167 10 111.5 30s52.833 49 67.5 87l14 -34c-14 -38 -37.833 -68.167 -71.5 -90.5s-76.5 -33.5 -128.5 -33.5zM135.999 606.998c1.33301 38 15.835 67.833 43.502 89.5s61.167 32.5 100.5 32.5
s72.833 -10.833 100.5 -32.5s42.167 -51.5 43.5 -89.5h-37c-0.666992 27.333 -11.334 49 -32.001 65s-45.667 24 -75 24c-28.667 0 -53.334 -8 -74.001 -24s-31.667 -37.667 -33 -65h-37z" />
    </font>
</defs>
</svg>
